<?xml version="1.0" encoding="UTF-8" standalone="no"?>
<!-- Created with Inkscape (http://www.inkscape.org/) -->

<svg
   xmlns:dc="http://purl.org/dc/elements/1.1/"
   xmlns:cc="http://creativecommons.org/ns#"
   xmlns:rdf="http://www.w3.org/1999/02/22-rdf-syntax-ns#"
   xmlns:svg="http://www.w3.org/2000/svg"
   xmlns="http://www.w3.org/2000/svg"
   xmlns:sodipodi="http://sodipodi.sourceforge.net/DTD/sodipodi-0.dtd"
   xmlns:inkscape="http://www.inkscape.org/namespaces/inkscape"
   width="50.423897mm"
   height="48.914589mm"
   viewBox="0 0 50.423898 48.914589"
   version="1.1"
   id="svg4551"
   inkscape:version="0.92.3 (2405546, 2018-03-11)"
   sodipodi:docname="at.svg">
  <defs
     id="defs4545">
    <clipPath
       id="SVG_CP_1">
      <path
         inkscape:connector-curvature="0"
         d="M 0,0 V 413.26299 H 439.51181 V 0 Z"
         id="path6" />
    </clipPath>
    <clipPath
       id="clipPath4541">
      <path
         inkscape:connector-curvature="0"
         d="M 0,0 V 413.26299 H 439.51181 V 0 Z"
         id="path4539" />
    </clipPath>
    <clipPath
       id="SVG_CP_1-3">
      <path
         inkscape:connector-curvature="0"
         d="M 0,0 V 413.26299 H 439.51181 V 0 Z"
         id="path6-6" />
    </clipPath>
    <clipPath
       id="SVG_CP_1-7">
      <path
         inkscape:connector-curvature="0"
         d="M 0,0 V 413.26299 H 439.51181 V 0 Z"
         id="path6-5" />
    </clipPath>
    <clipPath
       id="SVG_CP_1-35">
      <path
         inkscape:connector-curvature="0"
         d="M 0,0 V 413.26299 H 439.51181 V 0 Z"
         id="path6-62" />
    </clipPath>
    <clipPath
       id="SVG_CP_1-9">
      <path
         inkscape:connector-curvature="0"
         d="M 0,0 V 413.26299 H 439.51181 V 0 Z"
         id="path6-1" />
    </clipPath>
    <clipPath
       id="SVG_CP_1-2">
      <path
         inkscape:connector-curvature="0"
         d="M 0,0 V 413.26299 H 439.51181 V 0 Z"
         id="path6-7" />
    </clipPath>
    <clipPath
       id="SVG_CP_1-0">
      <path
         inkscape:connector-curvature="0"
         d="M 0,0 V 413.26299 H 439.51181 V 0 Z"
         id="path6-9" />
    </clipPath>
    <clipPath
       id="SVG_CP_1-36">
      <path
         inkscape:connector-curvature="0"
         d="M 0,0 V 413.26299 H 439.51181 V 0 Z"
         id="path6-0" />
    </clipPath>
    <clipPath
       id="SVG_CP_1-6">
      <path
         inkscape:connector-curvature="0"
         d="M 0,0 V 413.26299 H 439.51181 V 0 Z"
         id="path6-2" />
    </clipPath>
    <clipPath
       id="SVG_CP_1-61">
      <path
         inkscape:connector-curvature="0"
         d="M 0,0 V 413.26299 H 439.51181 V 0 Z"
         id="path6-8" />
    </clipPath>
    <clipPath
       id="SVG_CP_1-79">
      <path
         inkscape:connector-curvature="0"
         d="M 0,0 V 413.26299 H 439.51181 V 0 Z"
         id="path6-20" />
    </clipPath>
    <clipPath
       id="SVG_CP_1-23">
      <path
         inkscape:connector-curvature="0"
         d="M 0,0 V 413.26299 H 439.51181 V 0 Z"
         id="path6-75" />
    </clipPath>
    <clipPath
       id="SVG_CP_1-92">
      <path
         inkscape:connector-curvature="0"
         d="M 0,0 V 413.26299 H 439.51181 V 0 Z"
         id="path6-28" />
    </clipPath>
    <clipPath
       id="SVG_CP_1-97">
      <path
         inkscape:connector-curvature="0"
         d="M 0,0 V 413.26299 H 439.51181 V 0 Z"
         id="path6-3" />
    </clipPath>
    <clipPath
       id="SVG_CP_1-612">
      <path
         inkscape:connector-curvature="0"
         d="M 0,0 V 413.26299 H 439.51181 V 0 Z"
         id="path6-93" />
    </clipPath>
    <clipPath
       id="SVG_CP_1-1">
      <path
         inkscape:connector-curvature="0"
         d="M 0,0 V 413.26299 H 439.51181 V 0 Z"
         id="path6-94" />
    </clipPath>
    <clipPath
       id="SVG_CP_1-78">
      <path
         inkscape:connector-curvature="0"
         d="M 0,0 V 413.26299 H 439.51181 V 0 Z"
         id="path6-4" />
    </clipPath>
    <clipPath
       id="SVG_CP_1-5">
      <path
         inkscape:connector-curvature="0"
         d="M 0,0 V 413.26299 H 439.51181 V 0 Z"
         id="path6-03" />
    </clipPath>
    <clipPath
       id="SVG_CP_1-610">
      <path
         inkscape:connector-curvature="0"
         d="M 0,0 V 413.26299 H 439.51181 V 0 Z"
         id="path6-63" />
    </clipPath>
    <clipPath
       id="SVG_CP_1-20">
      <path
         inkscape:connector-curvature="0"
         d="M 0,0 V 413.26299 H 439.51181 V 0 Z"
         id="path6-61" />
    </clipPath>
    <clipPath
       id="SVG_CP_1-55">
      <path
         inkscape:connector-curvature="0"
         d="M 0,0 V 413.26299 H 439.51181 V 0 Z"
         id="path6-47" />
    </clipPath>
    <clipPath
       id="SVG_CP_1-65">
      <path
         inkscape:connector-curvature="0"
         d="M 0,0 V 413.26299 H 439.51181 V 0 Z"
         id="path6-69" />
    </clipPath>
    <clipPath
       id="SVG_CP_1-37">
      <path
         inkscape:connector-curvature="0"
         d="M 0,0 V 413.26299 H 439.51181 V 0 Z"
         id="path6-45" />
    </clipPath>
    <clipPath
       id="SVG_CP_1-25">
      <path
         inkscape:connector-curvature="0"
         d="M 0,0 V 413.26299 H 439.51181 V 0 Z"
         id="path6-474" />
    </clipPath>
    <clipPath
       id="SVG_CP_1-4">
      <path
         inkscape:connector-curvature="0"
         d="M 0,0 V 413.26299 H 439.51181 V 0 Z"
         id="path6-30" />
    </clipPath>
    <clipPath
       id="SVG_CP_1-786">
      <path
         inkscape:connector-curvature="0"
         d="M 0,0 V 413.26299 H 439.51181 V 0 Z"
         id="path6-88" />
    </clipPath>
    <clipPath
       id="SVG_CP_1-43">
      <path
         inkscape:connector-curvature="0"
         d="M 0,0 V 413.26299 H 439.51181 V 0 Z"
         id="path6-14" />
    </clipPath>
    <clipPath
       id="SVG_CP_1-920">
      <path
         inkscape:connector-curvature="0"
         d="M 0,0 V 413.26299 H 439.51181 V 0 Z"
         id="path6-68" />
    </clipPath>
    <clipPath
       id="SVG_CP_1-926">
      <path
         inkscape:connector-curvature="0"
         d="M 0,0 V 413.26299 H 439.51181 V 0 Z"
         id="path6-64" />
    </clipPath>
    <clipPath
       id="SVG_CP_1-95">
      <path
         inkscape:connector-curvature="0"
         d="M 0,0 V 413.26299 H 439.51181 V 0 Z"
         id="path6-04" />
    </clipPath>
    <clipPath
       id="SVG_CP_1-8">
      <path
         inkscape:connector-curvature="0"
         d="M 0,0 V 413.26299 H 439.51181 V 0 Z"
         id="path6-71" />
    </clipPath>
    <clipPath
       id="SVG_CP_1-72">
      <path
         inkscape:connector-curvature="0"
         d="M 0,0 V 413.26299 H 439.51181 V 0 Z"
         id="path6-72" />
    </clipPath>
    <clipPath
       id="SVG_CP_1-26">
      <path
         inkscape:connector-curvature="0"
         d="M 0,0 V 413.26299 H 439.51181 V 0 Z"
         id="path6-10" />
    </clipPath>
    <clipPath
       id="SVG_CP_1-615">
      <path
         inkscape:connector-curvature="0"
         d="M 0,0 V 413.26299 H 439.51181 V 0 Z"
         id="path6-949" />
    </clipPath>
    <clipPath
       id="SVG_CP_1-09">
      <path
         inkscape:connector-curvature="0"
         d="M 0,0 V 413.26299 H 439.51181 V 0 Z"
         id="path6-17" />
    </clipPath>
    <clipPath
       id="SVG_CP_1-71">
      <path
         inkscape:connector-curvature="0"
         d="M 0,0 V 413.26299 H 439.51181 V 0 Z"
         id="path6-15" />
    </clipPath>
    <clipPath
       id="SVG_CP_1-977">
      <path
         inkscape:connector-curvature="0"
         d="M 0,0 V 413.26299 H 439.51181 V 0 Z"
         id="path6-67" />
    </clipPath>
    <clipPath
       id="SVG_CP_1-365">
      <path
         inkscape:connector-curvature="0"
         d="M 0,0 V 413.26299 H 439.51181 V 0 Z"
         id="path6-639" />
    </clipPath>
    <clipPath
       id="SVG_CP_1-48">
      <path
         inkscape:connector-curvature="0"
         d="M 0,0 V 413.26299 H 439.51181 V 0 Z"
         id="path6-12" />
    </clipPath>
    <clipPath
       id="SVG_CP_1-93">
      <path
         inkscape:connector-curvature="0"
         d="M 0,0 V 413.26299 H 439.51181 V 0 Z"
         id="path6-90" />
    </clipPath>
    <clipPath
       id="SVG_CP_1-88">
      <path
         inkscape:connector-curvature="0"
         d="M 0,0 V 413.26299 H 439.51181 V 0 Z"
         id="path6-50" />
    </clipPath>
    <clipPath
       id="SVG_CP_1-96">
      <path
         inkscape:connector-curvature="0"
         d="M 0,0 V 413.26299 H 439.51181 V 0 Z"
         id="path6-38" />
    </clipPath>
    <clipPath
       id="SVG_CP_1-56">
      <path
         inkscape:connector-curvature="0"
         d="M 0,0 V 413.26299 H 439.51181 V 0 Z"
         id="path6-11" />
    </clipPath>
    <clipPath
       id="SVG_CP_1-59">
      <path
         inkscape:connector-curvature="0"
         d="M 0,0 V 413.26299 H 439.51181 V 0 Z"
         id="path6-84" />
    </clipPath>
    <clipPath
       id="SVG_CP_1-81">
      <path
         inkscape:connector-curvature="0"
         d="M 0,0 V 413.26299 H 439.51181 V 0 Z"
         id="path6-030" />
    </clipPath>
    <clipPath
       id="SVG_CP_1-44">
      <path
         inkscape:connector-curvature="0"
         d="M 0,0 V 413.26299 H 439.51181 V 0 Z"
         id="path6-44" />
    </clipPath>
    <clipPath
       id="SVG_CP_1-76">
      <path
         inkscape:connector-curvature="0"
         d="M 0,0 V 413.26299 H 439.51181 V 0 Z"
         id="path6-31" />
    </clipPath>
    <clipPath
       id="SVG_CP_1-75">
      <path
         inkscape:connector-curvature="0"
         d="M 0,0 V 413.26299 H 439.51181 V 0 Z"
         id="path6-96" />
    </clipPath>
    <clipPath
       id="SVG_CP_1-21">
      <path
         inkscape:connector-curvature="0"
         d="M 0,0 V 413.26299 H 439.51181 V 0 Z"
         id="path6-78" />
    </clipPath>
    <clipPath
       id="SVG_CP_1-57">
      <path
         inkscape:connector-curvature="0"
         d="M 0,0 V 413.26299 H 439.51181 V 0 Z"
         id="path6-41" />
    </clipPath>
    <clipPath
       id="SVG_CP_1-53">
      <path
         inkscape:connector-curvature="0"
         d="M 0,0 V 413.26299 H 439.51181 V 0 Z"
         id="path6-883" />
    </clipPath>
    <clipPath
       id="SVG_CP_1-18">
      <path
         inkscape:connector-curvature="0"
         d="M 0,0 V 413.26299 H 439.51181 V 0 Z"
         id="path6-964" />
    </clipPath>
    <clipPath
       id="SVG_CP_1-33">
      <path
         inkscape:connector-curvature="0"
         d="M 0,0 V 413.26299 H 439.51181 V 0 Z"
         id="path6-386" />
    </clipPath>
    <clipPath
       id="SVG_CP_1-04">
      <path
         inkscape:connector-curvature="0"
         d="M 0,0 V 413.26299 H 439.51181 V 0 Z"
         id="path6-888" />
    </clipPath>
    <clipPath
       id="SVG_CP_1-9776">
      <path
         inkscape:connector-curvature="0"
         d="M 0,0 V 413.26299 H 439.51181 V 0 Z"
         id="path6-43" />
    </clipPath>
    <clipPath
       id="SVG_CP_1-03">
      <path
         inkscape:connector-curvature="0"
         d="M 0,0 V 413.26299 H 439.51181 V 0 Z"
         id="path6-09" />
    </clipPath>
    <clipPath
       id="SVG_CP_1-254">
      <path
         inkscape:connector-curvature="0"
         d="M 0,0 V 413.26299 H 439.51181 V 0 Z"
         id="path6-05" />
    </clipPath>
    <clipPath
       id="SVG_CP_1-94">
      <path
         inkscape:connector-curvature="0"
         d="M 0,0 V 413.26299 H 439.51181 V 0 Z"
         id="path6-692" />
    </clipPath>
    <clipPath
       id="SVG_CP_1-24">
      <path
         inkscape:connector-curvature="0"
         d="M 0,0 V 413.26299 H 439.51181 V 0 Z"
         id="path6-77" />
    </clipPath>
  </defs>
  <sodipodi:namedview
     id="base"
     pagecolor="#ffffff"
     bordercolor="#666666"
     borderopacity="1.0"
     inkscape:pageopacity="0.0"
     inkscape:pageshadow="2"
     inkscape:zoom="0.98994949"
     inkscape:cx="180.27165"
     inkscape:cy="95.842988"
     inkscape:document-units="mm"
     inkscape:current-layer="layer1"
     showgrid="false"
     fit-margin-top="0"
     fit-margin-left="0"
     fit-margin-right="0"
     fit-margin-bottom="0"
     inkscape:window-width="1920"
     inkscape:window-height="1025"
     inkscape:window-x="1920"
     inkscape:window-y="27"
     inkscape:window-maximized="1"
     showguides="true" />
  <metadata
     id="metadata4548">
    <rdf:RDF>
      <cc:Work
         rdf:about="">
        <dc:format>image/svg+xml</dc:format>
        <dc:type
           rdf:resource="http://purl.org/dc/dcmitype/StillImage" />
        <dc:title></dc:title>
      </cc:Work>
    </rdf:RDF>
  </metadata>
  <g
     inkscape:label="Capa 1"
     inkscape:groupmode="layer"
     id="layer1"
     transform="translate(-2.2913791,-5.6818699)">
    <path
       transform="matrix(0.60712969,0,0,0.60712969,-197.95188,-42.738992)"
       inkscape:connector-curvature="0"
       clip-path="url(#SVG_CP_1-24)"
       stroke-miterlimit="10"
       d="m 407.32357,100.33738 v 0.24004 0.24004 l -0.24003,0.24004 -0.24002,0.48009 v 0.48008 l -0.24003,0.24004 -0.24003,0.24004 v 0.24005 0.48008 l -0.24002,0.24004 h -0.48005 -0.24003 0.24003 v 0.24004 h 0.24002 l 0.24003,0.48008 0.24002,0.24005 -0.24002,0.24004 -0.24003,0.96016 v 0.48009 0.24004 h 0.24003 l -0.24003,1.20021 v 0.24004 0.24004 0.24004 l -0.24002,1.68029 -0.24003,0.24004 v 0.24005 h -0.24002 v 0.24004 l -0.24003,0.48008 -0.24002,0.48008 -0.24003,0.24004 v 0.24005 0.24004 h -0.24003 l -0.24002,0.24004 h -0.24003 v 0.24004 h -0.24002 v 0.24004 l -0.24003,0.24004 -0.9601,0.48009 h -0.24003 -0.24002 l -0.24003,0.24004 v 0.24004 0.24004 l -0.24002,0.24004 -0.48006,0.48009 v 0.24004 0.24004 0.48008 0.24004 l -0.24002,0.48009 -0.24003,0.24004 -0.24002,0.24004 -0.48005,0.48008 -0.24003,0.72013 -0.24003,0.24004 v 0.24004 l -0.72007,0.24004 -0.48005,0.24005 -0.24003,0.24004 -0.24002,0.24004 -0.24003,0.24004 v 0.24004 h -0.24003 v 0.24004 l -0.24002,0.24004 v 0.24005 0.24004 0.24004 l -0.24003,0.24004 -1.68018,1.92033 0.96011,3.36059 0.24002,0.24004 0.72008,1.92033 -0.48005,-0.24004 h -0.24003 l -0.24002,0.24004 h -0.24003 -0.24003 l -0.24002,1.20021 v 0.48008 l 0.9601,0.24004 h 0.48005 0.24003 0.24002 0.24003 v 0.24004 l 0.24003,0.48009 0.24002,0.24004 v 0.24004 l 0.48005,0.24004 h 0.24003 0.48005 l 0.48005,-0.24004 h 0.48005 0.24003 0.24002 0.48005 l 0.24003,-0.24004 0.72008,0.24004 -0.96011,3.12054 -0.72007,1.68029 v 0.24004 l -0.72008,0.96017 -0.24003,0.24004 -1.20012,2.16038 -0.24003,0.72012 -0.48005,0.72013 -1.68018,0.24004 -1.68018,0.24004 -0.24003,-0.24004 -1.44015,-0.72013 -0.48005,-0.24004 h -0.72008 l -0.48005,-0.24004 -0.48005,-0.72013 v -0.24004 l -0.24003,-0.48008 -0.48005,-0.96017 -0.72007,0.48009 h -0.72008 l -0.48005,0.24004 h -0.96011 -0.24002 l -0.24003,0.48008 -0.48005,0.48008 h -0.24002 l -0.24003,0.24005 -0.24003,0.24004 -0.24002,0.24004 -0.24003,0.24004 -0.24002,0.24004 -0.24003,0.24004 h -0.24002 l -0.24003,0.48009 -0.24003,0.24004 v 0.24004 l -0.48005,0.24004 -0.48005,0.24004 -0.24002,0.24004 -0.24003,0.24005 v 0.48008 h -0.24003 l -1.68017,-1.68029 0.24002,-0.48008 -0.24002,-0.24005 h -0.72008 -0.48005 -0.72008 l -0.48005,0.24005 h -0.24003 l -2.88031,2.64045 1.44016,0.48009 0.48005,1.2002 0.72008,0.96017 v 2.8805 l 0.24002,1.20021 -1.9202,2.64045 -0.48005,0.72013 -0.48006,0.24004 h -0.48005 -0.48005 l -0.24002,0.24004 -0.48005,0.24004 h -0.48006 l -0.72007,0.24005 h -0.24003 l -1.9202,-1.92034 -0.48006,0.24004 -0.48005,-0.24004 -0.9601,-2.16037 -0.24003,-0.24004 -0.9601,-1.44025 -0.24002,0.24004 -0.72008,0.72012 -0.48005,0.24005 -0.9601,-0.72013 -0.48006,-0.24004 0.24003,-0.48008 0.24003,-0.48009 0.48005,-1.20021 0.48005,-1.44024 0.9601,-2.40042 0.24003,-0.72013 -0.72008,-0.48008 -1.44015,-1.20021 -1.20013,-1.2002 -0.96011,-0.96017 -0.72007,-0.48008 -0.48005,-0.24005 -0.24003,-0.48008 -1.20013,-0.96016 -1.68018,-0.48009 -0.48005,0.24004 -2.64028,0.48009 h -1.44016 -0.9601 -0.9601 l -1.20013,0.24004 -0.24003,-0.24004 -1.20012,-1.44025 -2.16023,-2.16038 -0.72008,-0.72012 -1.92021,-2.16038 -0.48005,0.72013 -0.72008,0.96017 -0.72007,-1.20021 -0.48005,-0.72013 v -0.24004 l -2.88031,-0.72012 0.48005,-0.48009 h -0.24003 v -0.72012 l 0.24003,-0.48008 -0.48005,-0.72013 h -0.24003 v -0.24004 -0.48008 l 0.24003,-0.72013 h 0.24002 v -0.24004 l 0.48006,-0.72013 v -0.48008 l 0.24002,-0.96016 0.24003,-0.48009 v -0.48008 l 0.9601,-1.68029 0.24002,-0.48009 v -0.24004 -0.48008 -0.48008 -1.20021 -0.48008 -0.96017 l 0.24003,-0.72013 0.24003,-0.24004 0.24002,-0.48008 0.24003,-0.48008 -0.24003,-0.72013 v -0.24004 0.24004 h 0.24003 0.24002 l 0.48005,0.24004 h 1.44016 l 0.24002,0.24005 h 0.96011 0.24002 0.24003 0.24002 0.24003 0.24003 l 0.24002,0.24004 0.9601,-0.24004 h 0.48005 0.24003 v -0.48009 h 0.24003 v -0.24004 -0.24004 l 0.24002,-0.24004 v -0.24004 h 0.24003 l -0.24003,-0.24005 h 0.24003 -0.24003 0.24003 l -0.24003,-0.24004 h 0.24003 v -0.24004 h 0.24002 l 0.24003,-0.24004 h 0.24002 0.24003 v -0.24004 -0.24004 h 0.24003 v 0.24004 h 0.24002 v 0.24004 h 0.24003 v -0.24004 h 0.24002 v 0.24004 0.24004 h 0.24003 v -0.24004 h 0.24002 0.24003 0.24003 v -0.24004 h 0.24002 v 0.24004 h -0.24002 l 0.24002,0.24004 h 0.24003 v -0.24004 h 0.24002 l 0.24003,-0.24004 v 0.24004 h 0.24002 v -0.24004 h 0.24003 v -0.24004 h 0.24003 0.24002 v -0.24005 h 0.24003 v -0.24004 l 0.24002,-0.24004 v 0.24004 l 0.24003,-0.24004 h 0.24002 0.24003 0.24003 v -0.24004 h 0.24002 v -0.24004 l 0.24003,-0.24004 -0.24003,0.24004 h -0.24002 v -0.24004 h 0.24002 v -0.24004 h 0.24003 v -0.24005 h 0.24002 l -0.24002,-0.24004 h 0.24002 -0.24002 V 109.699 h 0.24002 v 0.24004 h 0.24003 V 109.699 l 0.24002,-0.24004 0.24003,-0.24004 h 0.24002 v 0.24004 -0.24004 l 0.24003,0.24004 h 0.24003 0.48005 v -0.24004 -0.24004 l 0.24002,0.24004 h 0.24003 v 0.24004 l 0.24002,-0.24004 v 0.24004 h 0.24003 l 0.24003,-0.24004 0.24002,-0.24004 v -0.24005 h 0.24003 v -0.24004 h -0.24003 0.24003 v -0.24004 -0.48008 h 0.24002 l -0.24002,-0.24004 0.24002,-0.24004 v -0.24005 l 0.24003,-0.24004 h 0.24002 0.24003 v -0.24004 h 0.24003 -0.24003 0.24003 v -0.24004 h 0.24002 l 0.24003,-0.24004 0.24002,-0.24004 h 0.24003 v -0.24005 l 0.24002,-0.24004 h 0.24003 0.24003 v 0.24004 h 0.24002 0.24003 v -0.24004 -0.24004 h 0.24002 0.24003 v -0.24004 h 0.24002 0.24003 l 0.24003,0.24004 h 0.24002 l 0.24003,-0.24004 -0.24003,-0.24004 -0.24002,-0.24004 v -0.24005 l 0.24002,-0.24004 h 0.24003 0.24002 v 0.24004 h 0.24003 v -0.24004 -0.24004 -0.24004 l 0.24002,-0.24004 v 0.24004 h 0.24003 v -0.24004 l 0.24002,-0.24004 v 0.24004 -0.24004 -0.24004 -0.24005 h 0.24003 v -0.24004 h 0.24003 v -0.24004 l 0.24002,0.24004 v -0.24004 l 0.24003,-0.24004 h 0.24002 l 0.24003,0.24004 v -0.24004 -0.24004 0.24004 h 0.24002 v -0.24004 h 0.24003 l 0.24003,-0.24004 h 0.24002 0.24003 -0.24003 l 0.24003,-0.24005 h 0.24002 0.24003 0.24002 -0.24002 0.24002 v -0.24004 h 0.24003 v -0.24004 h 0.24003 0.24002 l 0.24003,-0.24004 h 0.24002 0.24003 0.24002 l 0.24003,0.24004 v 0.24004 l 0.24003,-0.24004 v -0.24004 -0.24004 l 0.24002,-0.24004 h 0.24003 0.24002 v 0.24004 h 0.24003 l 0.24002,-0.24004 h 0.24003 0.24003 l 0.24002,-0.24005 0.24003,-0.24004 v -0.24004 -0.24004 h 0.24002 0.24003 0.24002 l 0.24003,-0.24004 0.24002,-0.48008 0.24003,-0.24005 v -0.24004 l -0.24003,-0.24004 V 97.21684 L 373.96,96.9768 v -0.24004 -0.24005 h 0.24002 0.24003 v -0.24004 h 0.24003 l 0.24002,-0.24004 v -0.24004 h 0.24003 0.24002 v -0.24004 -0.24004 -0.24005 l 0.24003,-0.24004 v -0.24004 -0.24004 h 0.24002 V 94.0963 93.85626 93.61622 l -0.24002,-0.24005 v -0.24004 l -0.24003,-0.24004 v -0.24004 -0.24004 h 0.24003 l -0.24003,-0.24004 h -0.24002 l 0.24002,-0.24005 h -0.24002 v -0.24004 l -0.48005,0.24004 v -0.24004 0.24004 0.24005 l -0.24003,-0.24005 v -0.24004 0.24004 -0.24004 -0.24004 l -0.24003,0.24004 v -0.24004 h 0.24003 0.24003 V 91.2158 h -0.24003 0.24003 v -0.24004 -0.24004 h 0.24002 v -0.24005 0.24005 h 0.24003 l -0.24003,-0.24005 v -0.24004 -0.24004 l 0.24003,-0.24004 h -0.24003 v -0.24004 h 0.24003 l -0.24003,-0.24004 0.24003,-0.24004 h -0.24003 l 0.24003,-0.24005 h -0.24003 v -0.24004 h 0.24003 V 88.3353 88.09526 87.85522 87.61518 87.37513 87.13509 h 0.24002 l 0.24003,-0.24004 h 0.24002 v -0.24004 h 0.24003 v -0.24004 h 0.24003 0.24002 v -0.24004 h 0.24003 v -0.24005 0.24005 h 0.24002 v -0.24005 h 0.24003 l 0.24002,-0.24004 V 85.4548 h 0.24003 v -0.24004 h 0.24003 0.24002 v -0.24004 h 0.48005 v -0.24004 h 0.24003 v -0.24004 h 0.24002 0.24003 0.24003 0.24002 l 0.24003,0.24004 v 0.24004 h 0.24002 l 0.24003,0.24004 h 0.24002 v 0.24004 l 0.24003,0.24004 -0.24003,0.24004 h 0.24003 l 0.24002,0.24005 0.24003,0.24004 0.24003,0.24004 h 0.24002 v 0.24004 h 0.24003 v 0.24004 h 0.24002 0.24003 l -0.24003,0.24004 h 0.24003 v 0.24005 l 0.24002,0.24004 v 0.24004 h 0.24003 l 0.24003,-0.24004 v 0.24004 h 0.24002 v 0.72012 l 0.24003,0.24005 h 0.24002 0.24003 v 0.24004 h 0.24002 0.24003 0.24003 v 0.24004 l 0.48005,0.48008 h 0.24002 0.24003 0.24002 0.24003 0.24003 0.24002 v -0.24004 l 0.24003,0.24004 h 0.24002 v 0.24004 h 0.24003 v 0.24004 l 0.24002,0.24005 h 0.24003 0.24003 0.24002 l -0.24002,0.24004 v 0.24004 l 0.24002,0.24004 h 0.24003 0.24002 l 0.24003,0.24004 v 0.24004 0.24005 h 0.24002 v 0.24004 h -0.24002 l 0.24002,0.24004 h -0.24002 l 0.24002,0.24004 h -0.24002 v 0.24004 0.24004 h 0.24002 v 0.24005 h 0.24003 0.24002 l 0.24003,0.24004 h 0.24003 l 0.24002,0.24004 v 0.24004 h 0.48005 v 0.24004 h 0.24003 l 0.24002,0.24004 h 0.24003 0.24003 0.24002 l 0.48005,0.24004 h 0.24003 0.24002 v 0.24005 l 0.24003,0.24004 h 0.24003 v -0.24004 h 0.24002 l 0.24003,-0.24005 h 0.24002 0.24003 0.48005 0.24003 0.24002 0.24003 0.24002 v 0.24005 -0.24005 0.24005 l 0.24003,-0.24005 v 0.24005 -0.24005 h 0.24002 0.24003 l 0.24003,-0.24004 v 0.24004 h 0.24002 v -0.24004 h 0.24003 0.24002 0.24003 v 0.24004 0.24005 h 0.24002 v 0.24004 h 0.24003 0.24002 0.48006 l 0.24002,-0.24004 h 0.24003 v -0.24005 h 0.24002 0.24003 l 0.24002,-0.24004 v 0.24004 h 0.24003 v 0.24005 0.24004 h 0.24003 v 0.24004 h 0.24002 v 0.24004 0.24004 0.24004 0.24005 l -0.24002,0.24004 h -0.24003 l 0.24003,0.24004 h 0.48005 0.24002 V 96.9768 h 0.24003 0.24002 0.24003 0.24003 v 0.24004 h 0.24002 v 0.24004 h 0.24003 v 0.24004 l -0.24003,0.24004 v 0.24005 l 0.24003,-0.24005 v 0.24005 -0.24005 h 0.24002 v 0.24005 0.24004 -0.24004 l 0.24003,0.24004 h 0.24002 v 0.48008 l -0.24002,0.24004 v 0.24004 l 0.24002,-0.24004 h 0.24003 0.24003 v 0.24004 0.24004 0.24005 0.24004 h 0.24002 v 0.24004 l 0.24003,-0.24004 h 0.24002 V 99.8573 h 0.24003 0.24002 v 0.24004 l 0.24003,0.48008 v 0.24004 h 0.24002 0.24003 0.24003 v -0.24004 -0.24004 h 0.24002 0.24003"
       id="path286"
       style="fill:#000000;fill-opacity:1" />
  </g>
</svg>
