<?xml version="1.0" standalone="no"?>
<!DOCTYPE svg PUBLIC "-//W3C//DTD SVG 20010904//EN"
 "http://www.w3.org/TR/2001/REC-SVG-20010904/DTD/svg10.dtd">
<svg version="1.0" xmlns="http://www.w3.org/2000/svg"
 width="1024.000000pt" height="1024.000000pt" viewBox="0 0 1024.000000 1024.000000"
 preserveAspectRatio="xMidYMid meet">
<metadata>
Created by potrace 1.10, written by Peter Selinger 2001-2011
</metadata>
<g transform="translate(0.000000,1024.000000) scale(0.100000,-0.100000)"
fill="#000000" stroke="none">

<path id="ES-A" title="Alicante" class="land" d="M528.8,203.9l0.76,0.66l1.31,-0.15l0.83,1.51l3.06,-1.06l0.85,1l1.96,0.24l0.78,1.61l3.4,-2.21l-0.75,-0.95l-0.87,0.52l-0.75,-0.57l-0.37,-0.86l0.49,-0.41l3.24,-0.12l2.22,-1.41l0.61,0.21l2.19,-1.84l2.46,1.1l2.14,-1.33l0.39,1.14l2.38,-1.07l1.12,1.13l-0.11,-1.12l0,0l4.6,1.57l2.68,1.66l-0.31,1.19l1.11,0.35l0.2,1.25l-0.91,0.02l-3.31,2.44l-0.66,0.96l0.31,0.54l-1.07,-0.4l-2.34,0.89l-1.05,1.48l0.42,0.7l-1.47,1.55l-1.57,-0.52l-6.98,3.68l-0.8,1.19l-0.02,2.32l-1.31,-0.41l-2.33,2.86l0.32,3.46l-3.2,1.05l-0.93,2.44l-0.08,4.33l-1.52,1.17l-0.68,2.24l-0.96,0.52l-0.37,1.98l0,0l-2.08,-0.67l-2.15,-2.28l-3.99,-6.75l-0.19,-1.57l1.47,-2.42l0.65,-2.82L526.96,222l-2.93,-1.01l-0.3,-3.58l2.46,-2.29l-0.38,-0.99l0.76,-1.97l-0.75,-3.24l0,0l1.95,-0.05l1.43,-1.53l-1.4,-3.09L528.8,203.9z"/>

</g>
</svg>
