<?xml version="1.0" encoding="UTF-8" standalone="no"?>
<!-- Created with Inkscape (http://www.inkscape.org/) -->

<svg
   xmlns:dc="http://purl.org/dc/elements/1.1/"
   xmlns:cc="http://creativecommons.org/ns#"
   xmlns:rdf="http://www.w3.org/1999/02/22-rdf-syntax-ns#"
   xmlns:svg="http://www.w3.org/2000/svg"
   xmlns="http://www.w3.org/2000/svg"
   xmlns:sodipodi="http://sodipodi.sourceforge.net/DTD/sodipodi-0.dtd"
   xmlns:inkscape="http://www.inkscape.org/namespaces/inkscape"
   width="50.423897mm"
   height="48.914589mm"
   viewBox="0 0 50.423898 48.914589"
   version="1.1"
   id="svg4551"
   inkscape:version="0.92.3 (2405546, 2018-03-11)"
   sodipodi:docname="esc.svg">
  <defs
     id="defs4545">
    <clipPath
       id="SVG_CP_1">
      <path
         inkscape:connector-curvature="0"
         d="M 0,0 V 413.26299 H 439.51181 V 0 Z"
         id="path6" />
    </clipPath>
    <clipPath
       id="clipPath4541">
      <path
         inkscape:connector-curvature="0"
         d="M 0,0 V 413.26299 H 439.51181 V 0 Z"
         id="path4539" />
    </clipPath>
    <clipPath
       id="SVG_CP_1-3">
      <path
         inkscape:connector-curvature="0"
         d="M 0,0 V 413.26299 H 439.51181 V 0 Z"
         id="path6-6" />
    </clipPath>
    <clipPath
       id="SVG_CP_1-7">
      <path
         inkscape:connector-curvature="0"
         d="M 0,0 V 413.26299 H 439.51181 V 0 Z"
         id="path6-5" />
    </clipPath>
    <clipPath
       id="SVG_CP_1-35">
      <path
         inkscape:connector-curvature="0"
         d="M 0,0 V 413.26299 H 439.51181 V 0 Z"
         id="path6-62" />
    </clipPath>
    <clipPath
       id="SVG_CP_1-9">
      <path
         inkscape:connector-curvature="0"
         d="M 0,0 V 413.26299 H 439.51181 V 0 Z"
         id="path6-1" />
    </clipPath>
    <clipPath
       id="SVG_CP_1-2">
      <path
         inkscape:connector-curvature="0"
         d="M 0,0 V 413.26299 H 439.51181 V 0 Z"
         id="path6-7" />
    </clipPath>
    <clipPath
       id="SVG_CP_1-0">
      <path
         inkscape:connector-curvature="0"
         d="M 0,0 V 413.26299 H 439.51181 V 0 Z"
         id="path6-9" />
    </clipPath>
    <clipPath
       id="SVG_CP_1-36">
      <path
         inkscape:connector-curvature="0"
         d="M 0,0 V 413.26299 H 439.51181 V 0 Z"
         id="path6-0" />
    </clipPath>
  </defs>
  <sodipodi:namedview
     id="base"
     pagecolor="#ffffff"
     bordercolor="#666666"
     borderopacity="1.0"
     inkscape:pageopacity="0.0"
     inkscape:pageshadow="2"
     inkscape:zoom="0.98994949"
     inkscape:cx="-86.655402"
     inkscape:cy="-113.36944"
     inkscape:document-units="mm"
     inkscape:current-layer="layer1"
     showgrid="false"
     fit-margin-top="0"
     fit-margin-left="0"
     fit-margin-right="0"
     fit-margin-bottom="0"
     inkscape:window-width="1920"
     inkscape:window-height="1025"
     inkscape:window-x="1920"
     inkscape:window-y="27"
     inkscape:window-maximized="1" />
  <metadata
     id="metadata4548">
    <rdf:RDF>
      <cc:Work
         rdf:about="">
        <dc:format>image/svg+xml</dc:format>
        <dc:type
           rdf:resource="http://purl.org/dc/dcmitype/StillImage" />
        <dc:title></dc:title>
      </cc:Work>
    </rdf:RDF>
  </metadata>
  <g
     inkscape:label="Capa 1"
     inkscape:groupmode="layer"
     id="layer1"
     transform="translate(-2.2913791,-5.6818699)">
    <path
       inkscape:connector-curvature="0"
       id="path28"
       style="fill:#000000;fill-opacity:1"
       d="M 11.249344,43.669105 11.149143,43.468696 V 43.368492 L 11.048947,43.268288 10.948746,43.168084 10.748349,42.967673 10.447756,42.56685 10.247354,41.865412 9.9467609,40.963565 V 40.362333 L 9.6461631,39.761098 9.8465601,39.360276 V 38.558632 L 9.7463642,37.857194 9.4457665,37.255961 V 36.754927 L 8.9447709,36.354107 V 35.55246 L 8.2433783,35.352051 7.8425849,34.851024 7.3415891,34.24979 7.2413852,33.247738 V 32.947119 L 7.0409869,32.345887 6.8405901,32.245683 6.740402,31.844859 6.6401981,30.842808 7.2413899,30.341779 V 30.241575 H 7.3415937 V 30.141371 H 7.4417976 7.5420015 L 7.6422054,30.041167 H 7.7423936 L 7.8425975,29.940964 7.9428013,29.840759 H 8.0430052 8.1432091 8.243413 8.3436138 L 8.4438097,29.740556 H 8.5440105 L 8.4438097,29.640351 8.5440105,29.540148 h 0.100196 0.1002007 0.100196 L 8.944804,29.439944 V 29.33974 29.239536 29.139332 h 0.1002007 v -0.100204 -0.100203 l 0.100196,-0.100205 h -0.100196 l 0.100196,-0.100203 V 28.638312 28.437903 28.3377 h 0.1002008 v -0.100205 l 0.100196,-0.200413 0.1002007,-0.100204 V 27.836674 27.73647 l 0.100196,-0.100204 h 0.1002008 0.1002007 0.100196 l 0.1002008,-0.100204 v -0.100204 h 0.1001955 l 0.100201,-0.100204 v -0.100203 l 0.100196,-0.100205 v -0.300614 -0.100205 h 0.100201 v -0.100203 h 0.100201 l 0.100196,-0.100204 h 0.1002 l 0.100196,-0.20041 0.100201,-0.100203 v -0.100205 l 0.100196,0.100205 0.100201,0.100203 h 0.100196 v 0.100205 0.100203 l 0.100201,0.100204 0.1002,0.100204 v 0.100204 h 0.100196 0.100201 0.100196 l 0.100201,-0.100204 0.100196,0.200414 v 0.100204 h 0.1002 0.100201 l 0.100204,-0.100204 h 0.100204 0.100204 l 0.100204,0.20041 0.100204,0.100204 h 0.100204 l 0.200396,-0.100204 h 0.100204 v 0.100204 l -0.100204,0.200412 -0.100204,0.100204 h 0.100204 v 0.100203 h 0.100204 0.100204 v 0.100205 0.100203 h 0.100204 v 0.100205 h 0.100204 0.100204 0.100204 v 0.100203 h 0.100204 0.100203 0.200397 l 0.100204,0.100204 h 0.100204 0.100204 v -0.100204 h 0.100204 l 0.200406,-0.200447 h 0.100204 0.100188 v 0.100204 0.100204 h 0.100204 v 0.100204 h 0.100188 V 28.03705 27.936846 h 0.100204 v 0.100204 0.100204 h 0.100204 l 0.100188,-0.100204 h 0.100204 l 0.200397,-0.100204 h 0.100188 l 0.100203,0.100204 h 0.100205 0.100188 v 0.100204 h 0.100203 V 28.03705 h 0.100189 v -0.100204 h 0.100203 l 0.100188,0.100204 0.100205,-0.100204 h 0.100203 0.100188 v -0.100204 -0.20041 h 0.100205 l 0.100188,-0.200411 h 0.100203 v -0.100203 l 0.200399,-0.200409 h 0.100204 v -0.100204 -0.100204 -0.100204 l 0.100203,-0.100204 0.100205,0.100204 0.100203,-0.100204 h 0.100205 v -0.100204 -0.100204 -0.100203 h -0.100205 v -0.100205 l 0.100205,-0.100203 v -0.100205 l 0.100203,0.100205 h 0.100204 v -0.100205 h 0.100204 l 0.100204,-0.100203 0.100204,-0.100204 0.100204,-0.100204 V 25.732354 25.63215 25.531946 25.431743 h 0.100203 v -0.100205 l 0.100205,-0.100203 v -0.20041 l 0.100203,-0.100204 h 0.100205 v -0.100203 l 0.100203,0.100203 h 0.100204 l 0.100188,-0.100203 h 0.100204 0.100204 l 0.100204,-0.100205 h 0.100203 V 24.63011 h 0.100205 v -0.100205 -0.100203 l 0.100203,-0.100204 v 0.100204 h 0.100204 0.100204 l 0.100204,-0.100204 h 0.100204 v -0.100204 h 0.200396 V 24.12909 h 0.100205 0.100204 v -0.100204 l 0.100203,-0.100204 h 0.100189 0.100204 v -0.100203 h 0.100203 v -0.100205 l 0.100205,-0.100203 h 0.100203 l 0.100205,-0.100205 v -0.100203 l 0.200396,-0.100204 v -0.100204 h 0.100204 l 0.100188,-0.100204 h 0.100204 l 0.100204,-0.100204 h 0.100204 l 0.100203,-0.100203 0.100205,-0.100204 0.200396,-0.100204 h 0.100204 v -0.100204 h 0.100188 l 0.100204,-0.20041 h 0.100204 v 0.100205 h 0.100204 l 0.100204,-0.100205 v 0.100205 L 22.7725,22.425622 h 0.100203 0.100205 0.200401 l 0.100188,0.100205 h 0.100204 v -0.100205 0.100205 l -0.300598,0.300613 -0.200398,0.200414 v 0.100203 l 0.100204,0.100205 0.100204,0.100203 h 0.100203 0.100189 v -0.100203 h 0.100204 l 0.100188,-0.100205 v -0.100203 0.100203 h 0.100204 v -0.100203 h 0.100188 l 0.100204,-0.100205 h 0.100204 v -0.100203 h -0.100204 v -0.200409 l 0.100204,-0.100205 0.100203,-0.100203 v -0.100205 h 0.100205 l 0.100203,-0.100203 0.100204,-0.100204 v -0.100204 h 0.100204 l 0.100204,-0.300614 h 0.100204 v 0.200411 0.100203 l -0.100204,0.100204 -0.100204,0.100204 -0.100204,0.100203 v 0.100205 h -0.100204 v 0.100203 l -0.100203,0.100205 v 0.100203 0.100204 L 23.9749,22.926648 v 0.100204 l -0.100203,0.100204 v 0.200409 h 0.100203 0.100205 0.100203 0.100204 l 0.100204,0.100204 v -0.100204 h 0.100204 0.100204 v -0.100203 h 0.100204 v 0.100203 h 0.100203 0.100205 l 0.100203,-0.100203 0.100205,-0.100205 v -0.100203 l 0.100203,-0.100205 0.100188,-0.100203 h 0.100205 v 0.100203 h 0.200396 v -0.100203 h 0.100204 0.100188 l 0.100204,-0.100204 0.100188,-0.100204 0.100204,-0.100204 h 0.100204 0.100204 0.200396 l 0.100205,-0.100204 h 0.100203 0.100204 0.100204 0.100188 l 0.100204,0.100204 v 0.100204 0.100204 l 0.100204,-0.100204 h 0.100204 l 0.100204,-0.100204 h 0.100204 v 0.100204 0.100204 h -0.100204 v 0.100204 0.100203 l -0.100204,0.100205 v 0.100203 l -0.100204,0.100205 v 0.100203 0.100204 l -0.100204,0.100204 v 0.100204 l -0.100204,0.100204 v 0.100204 0.200409 0.100204 0.100204 l -0.100188,0.100204 -0.100204,0.100204 v 0.200409 l -0.100204,0.100204 v 0.100204 h 0.100204 v 0.100204 h 0.100204 l 0.100188,-0.100204 v -0.100204 h 0.100204 0.100204 l 0.100204,-0.100204 v 0.100204 H 27.18134 v 0.100204 0.100204 l -0.100204,0.100204 v 0.100204 l 0.100204,-0.100204 v 0.100204 h 0.100204 v -0.100204 h 0.100204 0.100204 v 0.100204 -0.100204 l 0.100203,-0.100204 h 0.100205 l 0.100203,-0.100204 0.100189,-0.100204 v 0.100204 h 0.100203 v -0.100204 -0.100204 h 0.100188 l 0.100205,-0.100204 v -0.100203 h 0.100203 v 0.100203 l 0.100204,-0.100203 h 0.100204 0.100204 v 0.100203 h 0.100204 l 0.100188,-0.100203 v -0.100205 h 0.100204 0.100188 0.100204 0.100203 0.100189 l 0.100204,0.100205 h -0.100204 l 0.100204,0.100203 0.100203,-0.100203 h 0.100205 v -0.100205 h 0.100188 v -0.100203 l 0.100204,-0.100205 h 0.100204 v -0.100203 l 0.100187,0.100203 0.100205,-0.100203 0.100188,-0.100204 h 0.100203 v -0.100204 h 0.100188 0.100205 v 0.100204 l 0.100203,-0.100204 0.100205,-0.100204 V 23.62808 l 0.200396,-0.100204 0.100204,-0.100203 0.100204,-0.200411 0.100203,-0.20041 0.100205,-0.100204 0.100203,0.100204 v -0.100283 l 0.100205,-0.100203 0.100188,-0.100205 v -0.100203 l 0.100203,-0.100205 h 0.100205 l 0.100203,-0.200414 v -0.100203 l 0.200397,-0.100204 0.100204,-0.100204 V 21.924524 21.82432 l 0.100188,-0.100203 h 0.100204 l 0.300594,-0.200415 0.100204,0.100205 h 0.200399 l 0.100203,-0.100205 h 0.100188 0.100204 v 0.100205 h 0.100204 0.100204 0.100204 l -0.100204,0.100203 v 0.100204 l -0.100204,0.100204 -0.100204,0.100203 -0.300597,0.300616 v 0.100203 l -0.100204,0.20041 h -0.100204 v 0.100203 l -0.100204,0.100205 h -0.100204 v 0.100203 l 0.100204,0.100204 h 0.2004 l 0.100204,0.100204 h 0.100203 0.100189 l 0.100204,-0.100204 v -0.100204 l 0.100203,-0.100203 0.100205,-0.100205 h 0.100203 l 0.200397,-0.100203 h 0.100204 v -0.100205 l 0.100204,-0.100203 0.100204,-0.100204 0.200401,-0.200409 v 0.100203 h 0.100189 0.100203 0.100188 0.100205 v 0.100205 h 0.100188 l 0.100203,-0.100205 h 0.100205 l 0.100203,-0.100203 h 0.100204 v 0.100203 h 0.100188 v 0.100205 h 0.100204 l 0.100188,-0.100205 v -0.100203 h 0.100204 l 0.100204,-0.100204 0.200402,-0.300615 v -0.100203 l 0.100188,-0.100205 h 0.100203 v 0.100205 0.100203 l -0.100203,0.100204 0.100203,0.100204 0.100205,0.100203 v -0.100203 0.100203 0.100205 h 0.100203 v 0.100203 h 0.100188 0.100204 v -0.100203 -0.100205 l 0.100204,0.100205 h 0.100188 v -0.100205 l 0.100204,-0.100203 0.100188,-0.100204 h 0.100204 l 0.100204,-0.100204 0.100204,-0.100203 v -0.100205 l 0.100204,-0.100203 h 0.100204 l 0.100203,-0.100204 v -0.20042 l 0.100189,-0.100203 0.200396,-0.100204 0.100205,-0.100204 0.100203,-0.100204 0.100188,-0.100204 H 38.00292 v -0.100204 -0.100203 h 0.100188 l 0.100205,-0.100205 v -0.200408 h -0.100205 v -0.100203 -0.100204 -0.100204 -0.200412 -0.100204 -0.100204 h 0.100205 l 0.100203,-0.100204 0.100204,-0.100204 h 0.100204 v 0.100204 h 0.100203 v -0.100204 l 0.100189,-0.100204 0.100204,-0.100204 h 0.100203 0.100189 0.100204 v -0.100203 l 0.100203,-0.100205 v -0.100203 h 0.100205 v -0.100204 h 0.100203 l 0.2004,-0.100204 h 0.100204 v -0.100204 l 0.200395,-0.100204 0.100205,-0.100204 V 18.116754 18.01655 l 0.100187,-0.100203 v -0.100205 -0.100203 h -0.100187 v -0.100205 l 0.100187,-0.100203 0.100204,-0.100204 h 0.100204 l 0.100188,-0.100204 0.100204,-0.100204 h 0.100204 0.100204 l 0.200397,-0.100204 0.200396,-0.200409 h 0.100205 l 0.100188,-0.100204 h 0.100203 v -0.100204 h 0.100205 0.100203 0.100204 v 0.100204 h 0.100204 v -0.100204 h 0.100203 0.100189 v 0.100204 0.100204 h -0.100189 l 0.100189,0.100204 h 0.100204 v -0.100204 h 0.100188 l 0.100204,-0.100204 0.300597,-0.200414 V 16.513484 L 42.71232,16.41328 v -0.100204 h -0.100204 l 0.100204,-0.100203 v 0.100203 l 0.100204,-0.100203 v -0.100205 h 0.100204 v 0.100205 h 0.100204 l 0.100203,-0.100205 -0.100203,0.100205 v 0.100203 h 0.100203 v -0.100203 h 0.100205 0.100203 0.100188 0.100205 l 0.100188,-0.100205 h 0.100204 v 0.100205 0.100203 0.100204 h 0.100204 l 0.100203,-0.100204 v -0.100203 l 0.100205,-0.100205 v -0.100203 -0.100204 l 0.300593,-0.20041 0.200398,-0.100204 h 0.100203 0.200397 l 0.100204,0.100204 h 0.100203 v 0.20041 0.200414 l 0.100205,0.100204 v 0.100204 h -0.100205 l -0.100203,0.100204 v 0.100203 h -0.100204 v 0.100205 l -0.100188,0.100203 v 0.100204 l -0.100204,0.100204 v 0.100204 l -0.100204,0.100204 v 0.100203 0.100205 h -0.100188 v 0.100203 h -0.100204 l -0.100188,0.100204 h -0.100204 l 0.100204,0.100204 0.100188,0.100204 0.100204,-0.100204 h 0.100188 0.100204 -0.100204 0.100204 0.100204 l 0.100188,0.100204 h 0.100204 0.100203 0.100205 l 0.100188,-0.100204 h 0.100204 0.100204 l 0.100188,-0.100204 h 0.100204 v -0.100204 l 0.100188,-0.100203 v -0.100205 h 0.100203 v -0.100203 l 0.100188,-0.100204 0.100205,-0.100204 h 0.100203 v -0.100204 h 0.200402 l 0.200397,-0.300618 0.100204,-0.100204 0.100204,-0.100204 h 0.100187 0.100205 v -0.100203 h 0.100203 v 0.100203 0.100204 l -0.100203,0.100204 v 0.200413 l 0.100203,0.100204 v 0.100203 h 0.200397 0.100204 0.100204 v -0.100203 h 0.100188 0.100204 0.100203 l 0.100189,-0.100204 h 0.100204 v -0.100204 l 0.100188,-0.100204 h 0.100204 0.100204 v -0.100204 l 0.100204,-0.100204 h 0.100204 l 0.100203,-0.100204 v 0.100204 h 0.100205 0.100187 v -0.100204 l 0.100204,0.100204 0.100204,-0.100204 h 0.100204 l 0.100204,-0.100204 V 16.01247 l 0.100204,-0.100205 0.100203,-0.100203 0.100189,-0.100204 0.100204,-0.100204 V 15.51145 h 0.100188 v -0.100204 l 0.100204,-0.100204 h 0.100188 l 0.200401,-0.100204 0.100189,-0.100204 h 0.100203 l 0.100204,0.100204 v 0.100204 0.100204 l -0.100204,0.200411 -0.100203,0.100204 v 0.100204 h 0.100203 l 0.100204,0.100204 v 0.200412 h -0.100204 l -0.100203,0.100204 h 0.100203 v 0.100204 L 50.127098,16.5135 v 0.100203 l -0.100189,0.100205 -0.100203,0.100203 -0.100204,0.100205 v 0.100203 h -0.100189 l -0.100203,0.100204 h -0.100188 l -0.100205,0.100204 v 0.100204 0.100204 l -0.100188,0.100204 v 0.100204 h -0.100203 v 0.100204 0.100203 l -0.100204,0.100205 v 0.100203 0.100204 0.100204 0.100204 l -0.100204,0.100204 -0.100204,0.100204 -0.100204,0.100204 h -0.100204 v 0.100204 0.100203 0.100205 h -0.100188 -0.100204 v 0.100203 H 48.42371 v -0.100203 l -0.200552,0.100203 v 0.100204 H 48.122954 48.02275 l -0.100188,0.100204 h -0.100204 l -0.200802,0.200406 v 0.100204 l -0.100204,0.100204 h -0.100189 v 0.100204 L 47.32096,19.820227 V 19.720023 H 47.220756 L 47.120552,19.619819 V 19.519615 H 47.020364 V 19.419411 H 46.92016 V 19.319208 19.219003 L 46.819956,19.1188 46.719768,19.018596 46.619564,19.1188 46.51936,19.219003 h 0.100204 v 0.100205 h 0.100204 v 0.100203 0.100204 0.100204 0.100204 l -0.100204,0.100204 H 46.51936 46.419157 46.318968 V 19.92043 H 46.218764 46.11856 46.018356 45.918153 45.817964 l -0.100188,-0.200415 h -0.100188 l -0.200397,0.100204 v 0.100204 h 0.100189 l 0.100203,0.100204 0.200398,0.100204 0.100187,0.100203 h 0.100204 v 0.100205 h -0.100204 l -0.200397,-0.100205 -0.100188,0.100205 H 45.51738 45.417191 l -0.200401,0.100203 h -0.100188 v 0.100204 h -0.100204 v 0.100204 l -0.100204,0.100204 v 0.100204 H 44.81599 44.715802 44.615598 v 0.100204 l -0.100204,0.200413 v 0.100205 l -0.100188,-0.100205 v 0.100205 0.100203 H 44.315002 44.214814 44.11461 44.014406 v 0.100205 l -0.100204,0.100203 v 0.100204 h -0.100204 v 0.100204 h -0.100203 l -0.100204,0.100204 h -0.100188 l -0.100204,0.100204 v 0.100203 h -0.200397 v 0.100205 H 43.112598 L 43.012394,22.02471 v 0.100205 h 0.100204 l 0.100204,0.100203 v 0.100204 h -0.100204 -0.100204 l -0.200398,0.100204 v 0.100204 l -0.100204,0.100204 v 0.100204 H 42.611588 42.511384 42.41118 v 0.100203 h -0.100188 0.100188 v 0.100205 h -0.100188 l -0.100204,0.100203 v 0.100205 H 42.1106 v 0.100203 h -0.100204 -0.100188 v 0.100204 h -0.100204 v 0.100204 H 41.7098 41.609597 l -0.100205,0.100204 v -0.100204 -0.100204 l -0.100203,0.100204 h -0.100204 l -0.100189,-0.100204 h -0.100203 l -0.200431,-0.100188 h -0.100205 l -0.100203,0.100204 v 0.100204 H 40.60755 40.507346 40.407142 40.306954 l -0.100204,-0.100204 -0.100204,-0.20041 -0.100188,-0.100203 v -0.100205 h -0.100204 l -0.100188,-0.100203 -0.300598,-0.100204 -0.400795,-0.100204 -0.100204,0.100204 h -0.100188 -0.100204 l -0.300597,0.100204 -0.200397,0.100203 v 0.100205 -0.100205 0.100205 l -0.100204,-0.100205 v 0.100205 l -0.100204,0.100203 v 0.100205 h -0.100188 v 0.100203 l -0.100203,0.100204 v 0.100204 l 0.100203,-0.100204 v 0.100204 h -0.100203 v 0.100204 0.100204 0.100204 l 0.100203,0.100203 v 0.100205 0.100203 0.100205 0.200414 0.100203 0.100205 l -0.100203,0.100203 -0.100205,0.100204 h -0.100188 v 0.100204 0.100204 h -0.100203 v 0.100204 h -0.100189 -0.100204 -0.100203 -0.100205 l -0.100203,0.100204 H 37.00038 l -0.100204,0.100203 -0.100188,0.100205 h -0.100204 l -0.100188,0.100203 v -0.100203 0.100203 0.100205 l -0.100204,0.100203 v 0.100204 l -0.100204,0.100204 v 0.100203 H 36.299 v 0.100205 l -0.200398,0.200414 h -0.100204 -0.100189 -0.200401 l -0.100204,-0.100204 h -0.200396 -0.100204 v -0.100204 h -0.100189 v 0.100204 l -0.100203,0.100204 v 0.100203 0.100205 0.200409 m 0,0 h -0.100204 v 0.100204 0.100204 h 0.100204 l 0.100203,0.200409 v 0.100204 l 0.100189,0.100204 v 0.100204 0.100204 h 0.100204 v 0.100204 0.100204 0.100203 0.20041 0.200414 0.100203 l 0.100187,0.100205 v 0.100203 l -0.100187,0.100205 -0.100204,-0.100205 v -0.100203 l -0.100189,-0.20041 v -0.100204 -0.100203 l -0.200398,-0.100205 v -0.100203 l -0.100203,-0.400821 -0.100205,-0.100203 h -0.100188 l -0.100203,0.100203 h -0.100189 -0.100204 l -0.100188,-0.100203 -0.100204,-0.100205 -0.100203,0.100205 h -0.100204 l -0.300598,-0.100205 h -0.100204 v -0.100203 l 0.400794,0.100203 h 0.100204 l -0.100204,-0.200411 -0.100204,0.100205 v -0.100205 -0.200409 l -0.100204,0.100204 v -0.100204 l -0.200397,-0.100203 v 0.100203 l 0.100204,0.100204 h -0.100204 v 0.20041 L 33.49341,27.034933 33.593613,26.93473 V 26.734316 H 33.49341 33.393205 33.293002 l -0.100204,0.100203 h -0.100189 -0.100203 l -0.100204,-0.100203 -0.100204,0.100203 v -0.100203 l -0.100204,-0.100205 -0.200398,-0.100203 h -0.100189 -0.100203 -0.200397 -0.100204 -0.100188 v 0.100203 l -0.300599,0.200413 -0.100189,0.100204 -0.100203,0.100204 0.100203,0.100204 H 31.389224 L 31.28902,27.23534 v 0.100204 l -0.100204,0.100203 h 0.100204 -0.100204 v 0.100205 h 0.100204 v 0.100203 l 0.100204,-0.100203 0.100203,0.100203 h -0.100203 v 0.100205 l 0.100203,0.100203 H 31.389224 V 27.73636 H 31.28902 v -0.100205 h -0.100204 v -0.100203 l -0.100204,0.100203 v 0.100205 l 0.200402,0.100203 -0.200402,-0.100203 v 0.100203 h 0.200402 v 0.100204 l -0.200402,-0.100204 h -0.100204 l 0.100204,0.100204 h 0.200402 0.100203 0.100205 l 0.100187,-0.100204 v 0.100204 h -0.100187 v 0.100204 h -0.100205 0.100205 v 0.100204 l -0.100205,0.100204 V 28.137175 L 31.188821,28.036971 30.988424,27.936767 H 30.88822 v 0.200414 0.100204 h -0.100188 v 0.100204 h 0.100188 -0.100188 l -0.100204,0.100204 h 0.100204 v 0.100203 h -0.100204 v 0.100205 0.200414 0.300614 0.100205 0.100203 l -0.100204,0.100205 v 0.100203 0.100204 0.100204 0.300618 h 0.100204 l -0.100204,0.100204 v 0.100203 l 0.100204,0.100205 v 0.100203 0.100205 0.200414 0.300614 0.20041 l 0.100204,0.100203 0.100188,0.501025 0.100204,0.100203 0.100204,0.20041 -0.100204,0.100204 0.100204,-0.100204 v 0.100204 l 0.100204,0.300618 0.100204,0.200411 v 0.100203 l 0.200396,0.300616 v 0.200414 l 0.100188,0.100204 0.100205,0.300614 0.200398,0.200414 0.300597,0.501028 -0.200401,0.100204 -0.400795,0.200409 -0.200397,0.100204 -0.200397,0.300618 -0.300597,0.501024 -0.200397,0.100204 -0.200399,0.20041 v 0.100203 l -0.100203,0.100205 -0.300593,0.400822 v 0.100205 l -0.200397,0.300614 -0.300597,0.200415 -0.200398,0.300612 -0.100205,0.100205 -0.100188,0.200414 -0.100203,0.200409 -0.100205,0.100204 h -0.100187 v 0.100204 H 28.784057 28.683868 28.48347 28.383267 v 0.100204 L 28.283062,38.5585 v 0.100204 h -0.100203 0.100203 v 0.100204 l -0.200398,0.400823 -0.100188,0.100204 -0.701392,-0.300615 -0.100205,0.100204 v 0.200409 h -0.100203 l -0.100204,0.100204 h -0.100189 v 0.100204 H 26.78008 26.679876 l -0.100204,0.100204 0.100204,0.501024 0.200402,0.701439 -0.100205,0.501028 0.100205,0.601233 0.100187,0.200413 0.100204,0.100204 v 0.200409 0.100203 h -0.100204 v 0.300619 0.200409 0.100204 l -0.100187,0.200409 v 0.100205 0.100203 h -0.100205 v 0.100204 0.100204 0.100204 l 0.100205,0.100204 v 0.100204 0.100204 0.300614 l -0.200316,0.501174 -0.400793,0.50103 -0.300599,-0.200414 -0.500989,-0.400819 h -0.300598 -0.100204 l -0.200398,0.100203 -0.300597,-0.200409 -0.300593,-0.300618 -0.300598,-0.100203 -0.200398,-0.20041 -0.100204,-0.100204 -0.50099,0.400819 -0.601196,0.501027 -0.60119,0.300615 -0.500996,0.400823 -0.100204,0.200409 -0.300592,0.200415 -0.801594,-0.901851 -0.400794,-0.400821 -0.200398,-0.200414 -1.102189,-1.002051 -0.601192,-0.701438 -0.601192,0.100203 -0.300597,0.300616 -0.100204,0.100203 -0.400794,0.200415 -0.200398,0.100203 -0.300598,0.300614 h -0.200386 l -0.801589,0.300621 -0.601195,0.300613 -1.102186,0.601234 -0.300598,0.100205 -0.400795,0.200414 -0.901789,-1.202466 -0.500995,-0.501029" />
  </g>
</svg>
