<?xml version="1.0" standalone="no"?>
<!DOCTYPE svg PUBLIC "-//W3C//DTD SVG 20010904//EN"
 "http://www.w3.org/TR/2001/REC-SVG-20010904/DTD/svg10.dtd">
<svg version="1.0" xmlns="http://www.w3.org/2000/svg"
 width="1024.000000pt" height="1024.000000pt" viewBox="0 0 1024.000000 1024.000000"
 preserveAspectRatio="xMidYMid meet">
<metadata>
Created by potrace 1.10, written by Peter Selinger 2001-2011
</metadata>
<g transform="translate(0.000000,1024.000000) scale(0.100000,-0.100000)"
fill="#000000" stroke="none">

<path id="ES-AB" title="Albacete" class="land" d="M511.12,178.92L511.77,178.73L512.1,179.98L512.73,179.69L512.66,181.18L513.91,180.42L516.3,182.24L517.04,181.88L521.56,183.17L521.07,187.06L518.78,191.23L518.44,193.4L522.12,198.18L527.87,197.59L528.94,199.66L528.8,203.9L528.8,203.9L527.81,204.25L529.21,207.34L527.77,208.87L525.82,208.92L525.82,208.92L523.06,206.78L522.94,205.7L520.98,205.05L518.97,205.68L516.1,208.06L515.37,207.01L514.28,207.52L512.88,209.16L512.74,211.81L511.67,212.53L511.33,213.75L511.94,219.82L508.54,222.36L506.06,222.32L505.37,221.34L505.52,220.24L503.81,219.63L502.2,220.06L502.56,220.61L498.77,222.88L496.36,223.51L494.43,222.57L492.45,225.21L489.39,226.62L487.91,230.07L485.81,231.92L485.45,233.45L485.45,233.45L482.94,233.15L479.02,231.19L479.02,231.19L482.24,227.27L482.54,223.88L481.05,222.79L481.1,218.99L478.4,218.36L478.55,215.37L477.75,214.58L475.29,215.13L472.55,213.72L472.55,213.72L473.02,213.17L472.5,210L473.58,210.46L475.41,209.17L476.36,205.82L474.54,203.91L473.47,203.97L472.56,200.11L468.85,197.83L470.4,194.49L471.08,194.47L471.23,192.3L470.08,190.11L473.75,184.97L473.16,182.87L473.16,182.87L476.94,182L479.03,182.66L480.26,181.92L484.46,186.24L485.19,184.45L486.08,184.23L487.08,186.48L490.77,184.33L494.37,184.9L492.98,181.26L495.31,181.54L495.05,182.08L496.25,183.83L499.4,183.4L503,184.35L503.94,182.75z"/>

</g>
</svg>
