<?xml version="1.0" standalone="no"?>
<!DOCTYPE svg PUBLIC "-//W3C//DTD SVG 20010904//EN"
 "http://www.w3.org/TR/2001/REC-SVG-20010904/DTD/svg10.dtd">
<svg version="1.0" xmlns="http://www.w3.org/2000/svg"
 width="1024.000000pt" height="1024.000000pt" viewBox="0 0 1024.000000 1024.000000"
 preserveAspectRatio="xMidYMid meet">
<metadata>
Created by potrace 1.10, written by Peter Selinger 2001-2011
</metadata>
<g transform="translate(0.000000,1024.000000) scale(0.100000,-0.100000)"
fill="#000000" stroke="none">

<path id="ES-BI" title="Vizcaya" class="land" d="M472.86,14.14l0.41,1.15l1.27,0.81l0.42,1.94l0.06,-1.93l1.18,-0.22l0.73,0.98l3.36,0.62l1.53,1.74l1.47,0.62l0,0l-0.75,0.91l0.57,1.32l-0.56,1.02l-1.88,0.98l0.4,2.04l-0.76,0.43l0.26,2.72l-1.4,0.35l0,0l-3.53,0.58l0.86,2.27l-4.18,-0.29l-2.89,-1.05l-0.93,0.23l-2.42,-2.05l1.14,-1.71l-1.36,-2.75l-0.82,0.22l-0.3,-0.26l-0.32,1.74l-1.47,0.63l-1.12,0.12l-0.92,-0.76l0,0l-0.49,-0.68l-2.05,0.32l-0.9,-1.19l-5.04,2.73l0,0l-0.95,-4.31l3.33,-1.76l0.24,-1l1.63,0.5l1.66,-0.79l0.48,1.07l1.6,-0.75l0.13,-2.18l0,0l1.06,0.43l0.46,-0.89l2.61,1.6l0.2,-0.86l-0.76,-1.12l2.04,-1.67l0.77,0.16l-0.04,-1.13l4.31,0.2L472.86,14.14zM455.9,22.47l1.69,-0.04l-0.6,1.07l0,0l0.12,1.17l0,0l-1.01,-0.02L455.9,22.47z"/>

</g>
</svg>
