<?xml version="1.0" standalone="no"?>
<!DOCTYPE svg PUBLIC "-//W3C//DTD SVG 20010904//EN"
 "http://www.w3.org/TR/2001/REC-SVG-20010904/DTD/svg10.dtd">
<svg version="1.0" xmlns="http://www.w3.org/2000/svg"
 width="1024.000000pt" height="1024.000000pt" viewBox="0 0 1024.000000 1024.000000"
 preserveAspectRatio="xMidYMid meet">
<metadata>
Created by potrace 1.10, written by Peter Selinger 2001-2011
</metadata>
<g transform="translate(0.000000,1024.000000) scale(0.100000,-0.100000)"
fill="#000000" stroke="none">

<path id="ES-B" title="Barcelona" class="land" d="M613.85,62.14l1.86,-0.7l5.12,1.31l-1.63,2.43l0.41,0.7l0.71,-0.15l0.22,1.72l-1.71,0.65l0.08,-1.32l-1.29,-0.21l1.19,2.05l1.75,0.57l0.96,-0.36l1.03,1.29l0.58,-0.75l1.73,0.29l0.43,-0.73l1.69,-0.13l0.91,0.45l-0.14,1.3l2.18,-0.77l1.05,0.79l0.53,1.54l1.15,-0.54l1.1,0.44l0.26,2.71l-0.92,0.32l0.59,0.38l-0.42,0.63l-1.39,0.02l1.6,2.17l-1.16,1.15l-1.11,-0.32l-0.75,0.99l-0.4,-0.57l-1.28,0.1l0.72,3.01l2.62,0.29l2.42,1.66l0.97,1.76l3.39,-1.17l3.66,0.5l-0.58,2.31l0.59,1.17l0,0l-6.9,2.94l-5.25,3.42l-3.53,1.46l-4.7,6.93l-14.35,3.81l0,0l-0.13,-1.61l-0.6,0.49l-1.22,-0.57l-0.35,-0.96l1.52,0.29l0.52,-1.72l-1.49,0.08l0.21,-0.62l-1.11,-1.38l0.59,-0.79l-1.26,-0.93l-0.84,-0.37l-1.11,0.56l0.53,-0.84l-0.46,-1.14l0.62,-0.25l-0.82,-0.34l0.49,-1.26l-2.71,-1.55l0.38,-0.9l1.22,-0.09l-0.54,-0.76l0.72,-0.55l-1.89,-0.24l0,0l0.42,-1.04l-1.44,-0.53l2.78,-1.35l-2.09,-2.42l1.32,-1.11l-0.67,-0.51l0.43,-2.02l1.66,-0.26l-0.31,0.99l1.34,-0.46l0.8,1.45l1.28,-1.21l0.65,0.18l-0.14,-1.07l1.27,-2.25l-0.34,-0.93l-1.54,0.06l2.58,-2l-0.09,-2.09l0.77,-0.12l0.23,0.62l1.12,-0.7l-0.66,-1.24l-0.01,1.21l-1.52,-0.62l0.25,-0.85l0.31,0.72l1.03,-1.07l-0.21,-0.68l-0.63,0.21l0.08,-0.75l0.52,-1.15l0.94,-0.16l-0.72,-1.84l1.24,-1.68l-0.04,-0.53l-1.76,-0.7l0.73,-1.23l-0.43,-1.69l-0.61,-0.19L613.85,62.14zM619.59,69.79l-0.68,0.58l-0.15,-0.75L619.59,69.79z"/>

</g>
</svg>
