<?xml version="1.0" standalone="no"?>
<!DOCTYPE svg PUBLIC "-//W3C//DTD SVG 20010904//EN"
 "http://www.w3.org/TR/2001/REC-SVG-20010904/DTD/svg10.dtd">
<svg version="1.0" xmlns="http://www.w3.org/2000/svg"
 width="1024.000000pt" height="1024.000000pt" viewBox="0 0 1024.000000 1024.000000"
 preserveAspectRatio="xMidYMid meet">
<metadata>
Created by potrace 1.10, written by Peter Selinger 2001-2011
</metadata>
<g transform="translate(0.000000,1024.000000) scale(0.100000,-0.100000)"
fill="#000000" stroke="none">

<path id="ES-BA" title="Badajoz" class="land" d="M413.46,177.64L414.02,178.66L412.88,182.49L411.21,182.76L412.83,187.14L414.65,188.92L409.7,187.55L407.73,191.51L409.23,192.95L409.01,193.59L407.71,194.15L405.03,193.1L406.39,197.1L409.06,197.94L408.55,200.04L406.49,199.83L405.61,201.13L404.19,205.62L402.44,206.04L402.44,206.04L400.79,206.88L398.22,206.41L398.73,207.9L398.2,208.77L397.5,208.44L397.29,209.19L394.88,210.74L394.38,211.98L392.47,211.74L392.13,213.4L391.39,213.31L391.02,214.51L389.17,215.6L389.01,216.43L387.93,216.44L386.45,217.6L385.94,218.89L386.71,220.17L386.22,221.65L387.74,224.2L387.89,226.41L387.34,226.7L387.34,228.18L385.94,229.35L385.94,229.35L384.44,229.1L382.08,231.31L381.33,231.11L381.15,229.55L382.56,228.62L382.22,227.88L382.88,228.36L382.56,227.22L381.54,226.79L377.75,227.78L375.45,230.41L375.99,232.02L374.62,234.64L369.66,235.17L367.66,236.74L367.66,236.74L367.02,235.93L363.88,235.3L362.37,234.17L361.92,232.56L360.49,232.19L359.31,232.29L358.91,234.03L355.32,233.65L355.38,232.41L354.09,230.69L349.93,230.86L349.57,230.11L348.16,229.8L348.8,227.53L347.16,227.58L344.6,226.37L344.6,226.37L344.45,225.89L342.18,226.51L341.81,227.26L340.47,227.22L339.89,227.89L337.88,223.74L333.92,218.14L332.2,217.51L333.34,216.19L333.28,215.67L332.64,215.85L332.85,214.46L335.03,210.15L334.14,209.59L334.54,206.23L341.3,200.73L340.9,199.07L344,194.48L343.09,191.95L341.64,190.86L339.27,191.5L338.08,191.13L338.37,188.67L335.09,187.21L335.38,184.42L335.38,184.42L336.25,184.94L337.84,182.74L337.05,182.37L337.55,181.18L338.86,180.28L340.58,180.73L340.08,181.55L339.35,181.4L340.01,183.06L341.15,182.52L342.22,180.09L340.45,179.07L340.99,178.18L346.09,180.31L348.58,180.05L348.73,181.82L350.28,182.73L349.82,184.54L348.62,185.98L349.64,187.99L352.3,188.43L352.95,187.57L353.76,187.66L355.39,188.33L355.57,189.17L356.66,189.3L356.61,188.25L361.56,189L363.15,188.06L364.13,191.55L366.11,191.87L366.96,193.19L368.47,193.3L368.83,194.17L372.62,190.33L372.89,193.34L374.98,191.13L375.5,192.14L378.29,191.07L379.01,189.72L380.71,190.2L382.7,192.14L385.35,191.45L385.97,190.76L385.44,190.12L386.19,189.47L385.06,188L386.98,186.91L387.67,187.87L388.09,187.15L389.77,189.17L391.18,189.24L393.23,185.99L393.45,182.27L396.28,183.51L400.09,182.14L400.39,180.14L401.1,180L402.23,181.12L404.36,180.75L404.65,179.88L405.34,179.83L405.34,179.83L405.7,179.83L405.7,179.83L407.84,180.89L411.39,179.01L411.39,179.01z"/>

</g>
</svg>
