<?xml version="1.0" encoding="UTF-8" standalone="no"?>
<!-- Created with Inkscape (http://www.inkscape.org/) -->

<svg
   xmlns:dc="http://purl.org/dc/elements/1.1/"
   xmlns:cc="http://creativecommons.org/ns#"
   xmlns:rdf="http://www.w3.org/1999/02/22-rdf-syntax-ns#"
   xmlns:svg="http://www.w3.org/2000/svg"
   xmlns="http://www.w3.org/2000/svg"
   xmlns:sodipodi="http://sodipodi.sourceforge.net/DTD/sodipodi-0.dtd"
   xmlns:inkscape="http://www.inkscape.org/namespaces/inkscape"
   width="50.423897mm"
   height="48.914589mm"
   viewBox="0 0 50.423898 48.914589"
   version="1.1"
   id="svg4551"
   inkscape:version="0.92.3 (2405546, 2018-03-11)"
   sodipodi:docname="va.svg">
  <defs
     id="defs4545">
    <clipPath
       id="SVG_CP_1">
      <path
         inkscape:connector-curvature="0"
         d="M 0,0 V 413.26299 H 439.51181 V 0 Z"
         id="path6" />
    </clipPath>
    <clipPath
       id="clipPath4541">
      <path
         inkscape:connector-curvature="0"
         d="M 0,0 V 413.26299 H 439.51181 V 0 Z"
         id="path4539" />
    </clipPath>
    <clipPath
       id="SVG_CP_1-3">
      <path
         inkscape:connector-curvature="0"
         d="M 0,0 V 413.26299 H 439.51181 V 0 Z"
         id="path6-6" />
    </clipPath>
    <clipPath
       id="SVG_CP_1-7">
      <path
         inkscape:connector-curvature="0"
         d="M 0,0 V 413.26299 H 439.51181 V 0 Z"
         id="path6-5" />
    </clipPath>
    <clipPath
       id="SVG_CP_1-35">
      <path
         inkscape:connector-curvature="0"
         d="M 0,0 V 413.26299 H 439.51181 V 0 Z"
         id="path6-62" />
    </clipPath>
  </defs>
  <sodipodi:namedview
     id="base"
     pagecolor="#ffffff"
     bordercolor="#666666"
     borderopacity="1.0"
     inkscape:pageopacity="0.0"
     inkscape:pageshadow="2"
     inkscape:zoom="0.98994949"
     inkscape:cx="-86.655402"
     inkscape:cy="-113.36944"
     inkscape:document-units="mm"
     inkscape:current-layer="layer1"
     showgrid="false"
     fit-margin-top="0"
     fit-margin-left="0"
     fit-margin-right="0"
     fit-margin-bottom="0"
     inkscape:window-width="1920"
     inkscape:window-height="1025"
     inkscape:window-x="1920"
     inkscape:window-y="27"
     inkscape:window-maximized="1" />
  <metadata
     id="metadata4548">
    <rdf:RDF>
      <cc:Work
         rdf:about="">
        <dc:format>image/svg+xml</dc:format>
        <dc:type
           rdf:resource="http://purl.org/dc/dcmitype/StillImage" />
        <dc:title></dc:title>
      </cc:Work>
    </rdf:RDF>
  </metadata>
  <g
     inkscape:label="Capa 1"
     inkscape:groupmode="layer"
     id="layer1"
     transform="translate(-2.2913791,-5.6818699)">
    <path
       transform="matrix(1.1447199,0,0,1.1447199,-103.75424,-135.27375)"
       inkscape:connector-curvature="0"
       clip-path="url(#SVG_CP_1-35)"
       stroke-miterlimit="10"
       d="m 129.61386,164.90856 v -0.24004 l -0.24002,-0.48008 h -0.24003 l -0.24002,-0.24004 -0.24003,-0.24004 -0.24002,-0.24005 v -0.48008 l -0.24003,-0.24004 -0.24003,-0.24004 -0.24002,0.24004 h -0.24003 l -0.72007,0.24004 h -0.24003 v -0.48008 -0.24004 h -0.24003 v -0.24005 -0.48008 l -0.24002,-0.48008 0.24002,-0.96017 -0.24002,-0.96016 v -0.24005 l -1.20013,-0.24004 -1.20013,-0.72012 -0.48005,-0.48009 h -0.48005 l -1.20013,-0.48008 -0.72008,-0.96016 -1.44015,-2.40042 -1.92021,0.48008 -0.72007,0.48009 h -0.24003 l -1.20013,-0.48009 -0.48005,-0.24004 -1.44015,0.72013 h -0.48005 l -0.24003,-0.24005 -0.24002,-0.48008 -0.24003,-0.24004 -0.72008,-0.48008 -0.72007,-0.72013 -0.24003,-0.24004 -0.24003,-1.20021 h -0.48005 l -0.9601,-0.96016 -0.24003,-0.24005 v -1.2002 l -0.72007,-0.48009 -0.96011,-0.48008 -0.72007,-0.24004 h -0.48005 l -0.24003,0.24004 -1.20013,0.96017 -0.9601,0.48008 h -0.24003 l -0.24002,0.24004 -1.44016,0.48008 -0.48005,0.48009 v 0.24004 h -0.24002 l -0.24003,0.24004 h -0.48005 l -0.72008,0.24004 -0.24002,0.24004 -0.72008,0.24005 -0.48005,0.24004 v -1.92034 -0.72012 l 0.48005,-0.96017 -1.20013,-0.48008 -1.68018,-0.96017 -0.48005,-0.48008 -0.24002,-0.24004 -0.48006,-0.24004 v -0.24004 l 0.48006,-0.24005 0.24002,-0.48008 0.48005,-0.24004 v -0.24004 -0.24004 l 0.24003,0.24004 h 0.24002 0.24003 0.24003 l 0.24002,-0.24004 v -0.48009 h 0.24003 v -0.24004 -0.24004 h 0.24002 v -0.24004 h 0.24003 l 0.24002,-0.24004 h 0.24003 0.24002 v -0.24004 h 0.24003 v -0.24005 l 0.48005,-0.48008 0.48005,-0.24004 0.24003,-0.24004 v -0.24004 l 0.24002,-0.24005 v -0.24004 l 0.48006,-0.48008 h 0.24002 l 0.24003,-0.24004 h 0.48005 v -0.24004 -0.24005 h 0.24002 l 0.24003,-0.24004 v -0.24004 h 0.24003 l 0.24002,-0.24004 0.24003,-0.24004 h 0.24002 l 0.24003,-0.24004 h 0.24002 0.24003 v -0.24004 h 0.24003 v 0.24004 l 0.24002,-0.24004 0.24003,-0.24005 h 0.24002 0.24003 v -0.24004 l 0.24002,-0.24004 h 0.24003 v -0.24004 h 0.24002 v -0.24004 h -0.24002 v -0.24004 h 0.24002 v -0.24005 0.24005 h 0.24003 l 0.24003,-0.24005 0.24002,-0.24004 v -0.24004 -0.24004 -0.24004 h 0.24003 v -0.24004 l 0.24002,-0.24005 v -0.24004 -0.24004 h 0.24003 l 0.24002,-0.24004 v -0.24004 h 0.24003 v -0.24004 l 0.24003,-0.24004 v -0.24005 h 0.24002 l 0.24003,-0.24004 0.24002,-0.24004 h 0.24003 v -0.72012 h 0.24002 v -0.24005 -0.24004 l 0.24003,-0.24004 v -0.24004 -0.24004 -0.24004 l 0.24003,-0.48009 v -0.24004 -0.24004 l 0.24002,-0.24004 h 0.24003 l 0.48005,-0.24004 v -0.24004 l 0.48005,-0.24005 v -0.24004 h 0.24003 l -0.24003,-0.24004 0.24003,-0.24004 v 0.24004 -0.24004 -0.24004 l 0.24002,-0.24004 h 0.24003 0.24002 l 0.24003,-0.24005 0.24002,-0.24004 v -0.24004 -0.24004 h 0.24003 l 0.24003,-0.24004 0.24002,-0.24004 0.24003,-0.24005 0.24002,-0.24004 v -0.24004 -0.24004 h 0.24003 l 0.24002,-0.24004 v -0.24004 h 0.24003 0.24002 l 0.24003,-0.24004 h 0.24003 v -0.24005 l 0.48005,0.24005 0.24002,0.24004 0.24003,0.24004 0.24002,0.24004 v 0.24004 l 0.48006,0.24004 0.24002,1.68029 0.48005,1.44025 v 0.24005 l 0.24003,0.72012 0.24002,0.24004 v 0.48008 l 0.24003,0.24005 v 0.48008 l 0.24003,0.24004 h 0.24002 0.48005 l 0.24003,-0.24004 0.72008,-0.72013 h 0.24002 l 0.72008,-0.72012 0.24002,-0.24004 h 0.24003 v -0.24004 l 0.24003,-0.24004 0.24002,-0.48009 h 0.24003 l 0.9601,-0.96016 0.24002,-0.24005 0.24003,-0.48008 h 0.72008 2.40025 1.20013 l 0.48005,-0.48008 0.72008,0.48008 0.72008,0.96017 v 0.24004 l 0.24002,1.20021 0.96011,0.72012 -0.48006,1.20021 h 0.24003 v 0.24004 l 0.24003,0.24004 h 0.24002 l 0.48005,0.48009 0.72008,0.48008 0.24003,0.24004 -0.24003,0.48008 v 0.24005 0.24004 0.48008 0.24004 h -0.24003 l -0.48005,0.24004 -0.24002,0.48009 v 0.24004 h -0.24003 v 0.48008 0.24004 0.24004 0.24005 0.24004 0.24004 0.96017 0.24004 0.24004 l -0.24002,0.72012 v 0.24004 0.24005 0.24004 l 0.24002,0.48008 -0.24002,0.24004 0.24002,0.48009 v 0.48008 l 0.24003,0.24004 -0.72008,1.20021 -0.72008,0.72012 -0.72007,0.24004 -0.48005,0.48009 v 0.72012 0.48009 l -0.24003,1.2002 -0.24003,0.96017 0.24003,0.24004 0.72008,0.72013 0.24002,0.24004 0.48005,0.24004 h 0.48005 l 0.24003,0.48008 0.48005,0.24004 v 0.48009 l 0.48005,0.48008 h -0.24002 l 0.24002,0.48008 h 0.24003 v 0.72013 l -0.48005,0.24004 v 1.20021 0.24004 l -0.48005,0.48008 -0.24003,0.24004 v 0.48009 0.48008 l -0.24003,0.96017 v 0.24004 0.24004 0.72012 0.48009 0.96016 0.24005 0.48008 l -0.24002,0.48008 v 0.24004 h 0.48005 l 0.48005,0.24005 0.24003,0.24004 0.24002,0.24004 1.20013,0.72012 0.48005,-0.24004 h 0.24003 v 0.48008 l -0.24003,0.72013 v 0.24004 l -0.9601,0.48008 -1.20013,0.72013 -1.20013,0.72012"
       id="path378"
       style="fill:#000000;fill-opacity:1" />
  </g>
</svg>
