<?xml version="1.0" encoding="UTF-8" standalone="no"?>
<!-- Created with Inkscape (http://www.inkscape.org/) -->

<svg
   xmlns:dc="http://purl.org/dc/elements/1.1/"
   xmlns:cc="http://creativecommons.org/ns#"
   xmlns:rdf="http://www.w3.org/1999/02/22-rdf-syntax-ns#"
   xmlns:svg="http://www.w3.org/2000/svg"
   xmlns="http://www.w3.org/2000/svg"
   xmlns:sodipodi="http://sodipodi.sourceforge.net/DTD/sodipodi-0.dtd"
   xmlns:inkscape="http://www.inkscape.org/namespaces/inkscape"
   width="50.423897mm"
   height="48.914589mm"
   viewBox="0 0 50.423898 48.914589"
   version="1.1"
   id="svg4551"
   inkscape:version="0.92.3 (2405546, 2018-03-11)"
   sodipodi:docname="sm.svg">
  <defs
     id="defs4545">
    <clipPath
       id="SVG_CP_1">
      <path
         inkscape:connector-curvature="0"
         d="M 0,0 V 413.26299 H 439.51181 V 0 Z"
         id="path6" />
    </clipPath>
    <clipPath
       id="clipPath4541">
      <path
         inkscape:connector-curvature="0"
         d="M 0,0 V 413.26299 H 439.51181 V 0 Z"
         id="path4539" />
    </clipPath>
    <clipPath
       id="SVG_CP_1-3">
      <path
         inkscape:connector-curvature="0"
         d="M 0,0 V 413.26299 H 439.51181 V 0 Z"
         id="path6-6" />
    </clipPath>
    <clipPath
       id="SVG_CP_1-7">
      <path
         inkscape:connector-curvature="0"
         d="M 0,0 V 413.26299 H 439.51181 V 0 Z"
         id="path6-5" />
    </clipPath>
    <clipPath
       id="SVG_CP_1-35">
      <path
         inkscape:connector-curvature="0"
         d="M 0,0 V 413.26299 H 439.51181 V 0 Z"
         id="path6-62" />
    </clipPath>
    <clipPath
       id="SVG_CP_1-9">
      <path
         inkscape:connector-curvature="0"
         d="M 0,0 V 413.26299 H 439.51181 V 0 Z"
         id="path6-1" />
    </clipPath>
    <clipPath
       id="SVG_CP_1-2">
      <path
         inkscape:connector-curvature="0"
         d="M 0,0 V 413.26299 H 439.51181 V 0 Z"
         id="path6-7" />
    </clipPath>
    <clipPath
       id="SVG_CP_1-0">
      <path
         inkscape:connector-curvature="0"
         d="M 0,0 V 413.26299 H 439.51181 V 0 Z"
         id="path6-9" />
    </clipPath>
    <clipPath
       id="SVG_CP_1-36">
      <path
         inkscape:connector-curvature="0"
         d="M 0,0 V 413.26299 H 439.51181 V 0 Z"
         id="path6-0" />
    </clipPath>
    <clipPath
       id="SVG_CP_1-6">
      <path
         inkscape:connector-curvature="0"
         d="M 0,0 V 413.26299 H 439.51181 V 0 Z"
         id="path6-2" />
    </clipPath>
    <clipPath
       id="SVG_CP_1-61">
      <path
         inkscape:connector-curvature="0"
         d="M 0,0 V 413.26299 H 439.51181 V 0 Z"
         id="path6-8" />
    </clipPath>
    <clipPath
       id="SVG_CP_1-79">
      <path
         inkscape:connector-curvature="0"
         d="M 0,0 V 413.26299 H 439.51181 V 0 Z"
         id="path6-20" />
    </clipPath>
    <clipPath
       id="SVG_CP_1-23">
      <path
         inkscape:connector-curvature="0"
         d="M 0,0 V 413.26299 H 439.51181 V 0 Z"
         id="path6-75" />
    </clipPath>
    <clipPath
       id="SVG_CP_1-92">
      <path
         inkscape:connector-curvature="0"
         d="M 0,0 V 413.26299 H 439.51181 V 0 Z"
         id="path6-28" />
    </clipPath>
    <clipPath
       id="SVG_CP_1-97">
      <path
         inkscape:connector-curvature="0"
         d="M 0,0 V 413.26299 H 439.51181 V 0 Z"
         id="path6-3" />
    </clipPath>
    <clipPath
       id="SVG_CP_1-612">
      <path
         inkscape:connector-curvature="0"
         d="M 0,0 V 413.26299 H 439.51181 V 0 Z"
         id="path6-93" />
    </clipPath>
    <clipPath
       id="SVG_CP_1-1">
      <path
         inkscape:connector-curvature="0"
         d="M 0,0 V 413.26299 H 439.51181 V 0 Z"
         id="path6-94" />
    </clipPath>
    <clipPath
       id="SVG_CP_1-78">
      <path
         inkscape:connector-curvature="0"
         d="M 0,0 V 413.26299 H 439.51181 V 0 Z"
         id="path6-4" />
    </clipPath>
    <clipPath
       id="SVG_CP_1-5">
      <path
         inkscape:connector-curvature="0"
         d="M 0,0 V 413.26299 H 439.51181 V 0 Z"
         id="path6-03" />
    </clipPath>
    <clipPath
       id="SVG_CP_1-610">
      <path
         inkscape:connector-curvature="0"
         d="M 0,0 V 413.26299 H 439.51181 V 0 Z"
         id="path6-63" />
    </clipPath>
    <clipPath
       id="SVG_CP_1-20">
      <path
         inkscape:connector-curvature="0"
         d="M 0,0 V 413.26299 H 439.51181 V 0 Z"
         id="path6-61" />
    </clipPath>
    <clipPath
       id="SVG_CP_1-55">
      <path
         inkscape:connector-curvature="0"
         d="M 0,0 V 413.26299 H 439.51181 V 0 Z"
         id="path6-47" />
    </clipPath>
    <clipPath
       id="SVG_CP_1-65">
      <path
         inkscape:connector-curvature="0"
         d="M 0,0 V 413.26299 H 439.51181 V 0 Z"
         id="path6-69" />
    </clipPath>
    <clipPath
       id="SVG_CP_1-37">
      <path
         inkscape:connector-curvature="0"
         d="M 0,0 V 413.26299 H 439.51181 V 0 Z"
         id="path6-45" />
    </clipPath>
    <clipPath
       id="SVG_CP_1-25">
      <path
         inkscape:connector-curvature="0"
         d="M 0,0 V 413.26299 H 439.51181 V 0 Z"
         id="path6-474" />
    </clipPath>
    <clipPath
       id="SVG_CP_1-4">
      <path
         inkscape:connector-curvature="0"
         d="M 0,0 V 413.26299 H 439.51181 V 0 Z"
         id="path6-30" />
    </clipPath>
    <clipPath
       id="SVG_CP_1-786">
      <path
         inkscape:connector-curvature="0"
         d="M 0,0 V 413.26299 H 439.51181 V 0 Z"
         id="path6-88" />
    </clipPath>
    <clipPath
       id="SVG_CP_1-43">
      <path
         inkscape:connector-curvature="0"
         d="M 0,0 V 413.26299 H 439.51181 V 0 Z"
         id="path6-14" />
    </clipPath>
    <clipPath
       id="SVG_CP_1-920">
      <path
         inkscape:connector-curvature="0"
         d="M 0,0 V 413.26299 H 439.51181 V 0 Z"
         id="path6-68" />
    </clipPath>
    <clipPath
       id="SVG_CP_1-926">
      <path
         inkscape:connector-curvature="0"
         d="M 0,0 V 413.26299 H 439.51181 V 0 Z"
         id="path6-64" />
    </clipPath>
    <clipPath
       id="SVG_CP_1-95">
      <path
         inkscape:connector-curvature="0"
         d="M 0,0 V 413.26299 H 439.51181 V 0 Z"
         id="path6-04" />
    </clipPath>
    <clipPath
       id="SVG_CP_1-8">
      <path
         inkscape:connector-curvature="0"
         d="M 0,0 V 413.26299 H 439.51181 V 0 Z"
         id="path6-71" />
    </clipPath>
    <clipPath
       id="SVG_CP_1-72">
      <path
         inkscape:connector-curvature="0"
         d="M 0,0 V 413.26299 H 439.51181 V 0 Z"
         id="path6-72" />
    </clipPath>
    <clipPath
       id="SVG_CP_1-26">
      <path
         inkscape:connector-curvature="0"
         d="M 0,0 V 413.26299 H 439.51181 V 0 Z"
         id="path6-10" />
    </clipPath>
    <clipPath
       id="SVG_CP_1-615">
      <path
         inkscape:connector-curvature="0"
         d="M 0,0 V 413.26299 H 439.51181 V 0 Z"
         id="path6-949" />
    </clipPath>
    <clipPath
       id="SVG_CP_1-09">
      <path
         inkscape:connector-curvature="0"
         d="M 0,0 V 413.26299 H 439.51181 V 0 Z"
         id="path6-17" />
    </clipPath>
    <clipPath
       id="SVG_CP_1-71">
      <path
         inkscape:connector-curvature="0"
         d="M 0,0 V 413.26299 H 439.51181 V 0 Z"
         id="path6-15" />
    </clipPath>
    <clipPath
       id="SVG_CP_1-977">
      <path
         inkscape:connector-curvature="0"
         d="M 0,0 V 413.26299 H 439.51181 V 0 Z"
         id="path6-67" />
    </clipPath>
    <clipPath
       id="SVG_CP_1-365">
      <path
         inkscape:connector-curvature="0"
         d="M 0,0 V 413.26299 H 439.51181 V 0 Z"
         id="path6-639" />
    </clipPath>
  </defs>
  <sodipodi:namedview
     id="base"
     pagecolor="#ffffff"
     bordercolor="#666666"
     borderopacity="1.0"
     inkscape:pageopacity="0.0"
     inkscape:pageshadow="2"
     inkscape:zoom="0.98994949"
     inkscape:cx="-113.42444"
     inkscape:cy="-32.557239"
     inkscape:document-units="mm"
     inkscape:current-layer="layer1"
     showgrid="false"
     fit-margin-top="0"
     fit-margin-left="0"
     fit-margin-right="0"
     fit-margin-bottom="0"
     inkscape:window-width="1920"
     inkscape:window-height="1025"
     inkscape:window-x="1920"
     inkscape:window-y="27"
     inkscape:window-maximized="1" />
  <metadata
     id="metadata4548">
    <rdf:RDF>
      <cc:Work
         rdf:about="">
        <dc:format>image/svg+xml</dc:format>
        <dc:type
           rdf:resource="http://purl.org/dc/dcmitype/StillImage" />
        <dc:title></dc:title>
      </cc:Work>
    </rdf:RDF>
  </metadata>
  <g
     inkscape:label="Capa 1"
     inkscape:groupmode="layer"
     id="layer1"
     transform="translate(-2.2913791,-5.6818699)">
    <path
       transform="matrix(0.77909286,0,0,0.77909286,-214.85941,-63.152155)"
       inkscape:connector-curvature="0"
       clip-path="url(#SVG_CP_1-365)"
       stroke-miterlimit="10"
       d="m 281.31009,132.26291 2.16023,-3.60062 0.24003,-0.24005 1.44015,-2.64045 0.24003,-0.48009 0.72007,-1.44025 1.44016,-2.16037 1.20013,-1.44025 0.9601,-1.44025 h 0.24002 l 0.72008,-0.96017 0.72008,-0.96016 0.48005,-0.72013 1.68018,-2.40041 2.40026,-3.36058 0.48005,-0.96017 h 0.48005 l 0.24002,-0.24004 0.48005,-0.72013 0.48006,-0.72012 0.72007,-1.20021 3.60039,-4.08071 2.16023,-3.12054 0.24003,-0.48008 0.9601,-1.44025 0.48005,-0.48008 0.48005,0.24004 0.24003,0.48008 0.48005,0.24004 h 0.24002 v 0.24005 h 0.24003 l 0.24002,0.24004 v 0.24004 l 0.24003,0.24004 h 0.24003 v 0.24004 h 0.24002 l 0.48005,0.48008 h 0.24003 0.24002 0.24003 v 0.24005 h 0.24003 l 0.24002,0.24004 h 0.24003 0.24002 v 0.24004 l 0.24003,0.24004 0.24002,-0.24004 v -0.24004 h 0.24003 l -0.24003,0.24004 v 0.24004 h 0.24003 0.24003 0.24002 l 0.24003,0.24004 v -0.24004 h -0.24003 -0.24002 l 0.24002,-0.24004 -0.24002,-0.24004 -0.24003,-0.24004 -0.24003,-0.24005 h 0.24003 v 0.24005 h 0.24003 l 0.24002,0.24004 v 0.24004 h 0.24003 v 0.24004 h 0.24002 -0.24002 0.24002 0.24003 v 0.24004 -0.24004 l 0.24002,0.24004 0.24003,0.24004 v 0.24005 0.24004 h 0.24003 v 0.24004 -0.24004 h 0.24002 l 0.24003,0.24004 0.24002,-0.24004 v 0.24004 h 0.24003 v 0.24004 h 0.24002 l 0.24003,0.24004 v 0.24004 h 0.24002 v 0.24005 h 0.48006 v 0.24004 l 0.24002,0.24004 h 0.24003 0.24002 0.24003 v -0.24004 h 0.24002 l 0.24003,0.24004 0.24003,0.24004 0.24002,0.24004 0.24003,0.24004 h 0.24002 l 0.24003,0.24004 0.24002,0.24005 0.72008,0.24004 h 0.24003 l 0.24002,0.24004 h 0.24003 0.24002 v -0.24004 h 0.24003 v 0.24004 h 0.24003 v 0.24004 h 0.24002 l 0.24003,-0.24004 v 0.24004 h 0.24002 v 0.24004 h 0.24003 v 0.24004 h 0.24002 v -0.24004 l 0.24003,0.24004 v 0.24005 h 0.24002 l 0.24003,-0.24005 v 0.24005 -0.24005 -0.24004 l 0.24003,0.24004 h 0.24002 v 0.24005 0.24004 h 0.24003 l 0.24002,0.24004 h 0.24003 0.24002 0.24003 v 0.24004 h 0.24003 0.24002 v 0.24004 l 0.24003,0.24004 0.24002,0.24005 0.24003,-0.24005 v 0.24005 l 0.48005,0.24004 h 0.24003 0.24002 l 0.24003,0.24004 v -0.24004 h 0.24002 v 0.24004 h 0.24003 0.24002 v -0.24004 h 0.24003 l 0.24003,0.24004 v 0.24004 h 0.24002 0.24003 v 0.24004 h 0.24002 0.24003 0.24002 0.24003 v 0.24004 0.24004 h 0.24003 v 0.24005 h 0.24002 l 0.24003,0.24004 v -0.24004 l 0.24002,0.24004 0.24003,0.24004 v 0.24004 h 0.24002 0.24003 l 0.24002,0.24004 v 0.24004 l 0.48006,0.24005 0.24002,0.24004 h 0.24003 v -0.24004 l 0.48005,0.24004 h 0.24002 l 0.24003,0.24004 h 0.24003 0.24002 v 0.24004 h 0.24003 l 0.24002,-0.24004 v 0.24004 h 0.24003 0.24002 0.24003 v 0.24004 -0.24004 h -0.24003 0.24003 0.24003 l 0.24002,0.24004 v 0.24004 h 0.24003 0.24002 l 0.24003,0.24004 0.48005,0.24005 h 0.24003 l 0.24002,0.24004 v -0.24004 l 0.24003,0.24004 h 0.24002 v 0.24004 h 0.24003 0.24002 v 0.24004 h 0.24003 0.24003 l 0.24002,0.24004 h 0.24003 0.24002 l 0.24003,0.24004 v 0.24005 l 0.48005,0.24004 v 0.24004 h 0.24002 l 0.72008,0.24004 v 0.24004 l 0.24003,0.72013 -0.24003,0.48008 -0.24002,0.48008 -0.24003,0.24004 -0.24003,0.72013 v 0.96017 0.48008 1.20021 0.48008 0.48008 0.24004 l -0.24002,0.48009 -0.9601,1.68029 v 0.48008 l -0.24003,0.48009 -0.24002,0.96016 v 0.48008 l -0.48006,0.72013 v 0.24004 h -0.24002 l -0.24003,0.72013 v 0.48008 0.24004 l 0.24003,0.48008 v 0.24005 0.24004 0.48008 0.48008 0.24004 l -0.24003,0.24005 -0.24002,0.24004 -0.72008,0.48008 h -0.24003 -0.9601 -0.48005 -0.24003 l -0.24002,0.24004 -0.24003,0.24004 v 0.24005 l -0.24002,0.24004 v 0.24004 l -0.24003,0.24004 v 1.20021 0.72012 l -0.24002,0.48009 v 0.24004 0.48008 l 0.24002,0.48008 v 0.72013 l -1.20013,-0.48008 -1.44015,-0.72013 -1.20013,-0.96017 -0.24002,0.24005 -0.24003,-0.24005 v -0.24004 -0.24004 l -0.48005,-1.20021 -0.24003,-0.48008 v -0.24004 -1.44025 l -0.24002,-0.24004 -4.56049,1.92033 -0.24003,0.24004 h -0.24002 -0.48005 -0.24003 l -0.72008,0.24004 -1.20012,0.24005 -0.72008,1.2002 v 0.48009 l -0.48005,0.72012 -0.48005,0.24004 v 0.24004 h -0.24003 v 0.24005 h -0.24003 -0.48005 l -0.48005,-0.24005 h -0.48005 l -0.72008,-0.24004 -2.40025,-1.44025 -0.96011,-0.48008 -0.48005,-0.48008 -0.48005,0.72012 v 0.24004 l -0.24002,0.48009 v 0.24004 l -0.24003,0.48008 -0.24003,0.48008 -0.9601,0.48009 -0.48005,0.24004 h -0.24003 l -0.24002,0.24004 -0.24003,0.72013 -0.24002,0.24004 -0.48005,0.48008 -0.24003,0.24004 -0.24003,0.24004 v 0.24004 0.24005 l -0.48005,0.24004 -0.24002,0.24004 h -0.24003 l -0.72008,-0.48008 -0.24002,-0.24005 h -0.24003 -0.24002 l -0.48005,0.24005 h -0.24003 l -0.24002,0.24004 -0.24003,0.24004 -0.24003,0.24004 -0.48005,0.48008 -0.24002,0.24005 -0.48005,0.72012 v 0.48008 l -0.48006,0.24005 h -0.24002 -0.24003 l -0.72007,-0.24005 h -0.24003 l -0.24003,0.24005 -0.48005,0.72012 -0.48005,0.48008 -0.72008,-0.24004 -0.48005,-0.24004 -0.48005,-0.48008 -0.9601,0.96016 h -0.24003 l -0.48005,-0.96016 -0.24002,-0.24004 -0.48005,-0.72013 -0.48006,-0.48008 -1.44015,-0.96017 -0.72008,-0.24004 -0.24002,-0.24004 -0.24003,-0.24004 -0.72008,-0.72013 -0.72007,-0.48008 -0.24003,-0.24004 -0.24002,-0.24004 -0.24003,-0.48009 -0.24003,-0.24004 -0.24002,-0.24004 -0.24003,-0.24004 -0.24002,-0.24004 -0.72008,-0.48009 -0.48005,-0.48008 -0.24003,-0.24004 -0.72007,-0.48009 -0.24003,-0.24004 -0.24002,-0.48008 v -0.24004 l -1.20013,0.24004 -0.96011,0.24004 -0.24002,0.24004 h -0.24003 l -0.24002,0.24004 -0.24003,0.24005 -1.44015,-1.92034 -0.48005,-0.24004 -0.72008,-0.48008"
       id="path70"
       style="fill:#000000;fill-opacity:1" />
  </g>
</svg>
