<?xml version="1.0" standalone="no"?>
<!DOCTYPE svg PUBLIC "-//W3C//DTD SVG 20010904//EN"
 "http://www.w3.org/TR/2001/REC-SVG-20010904/DTD/svg10.dtd">
<svg version="1.0" xmlns="http://www.w3.org/2000/svg"
 width="1024.000000pt" height="1024.000000pt" viewBox="0 0 1024.000000 1024.000000"
 preserveAspectRatio="xMidYMid meet">
<metadata>
Created by potrace 1.10, written by Peter Selinger 2001-2011
</metadata>
<g transform="translate(0.000000,1024.000000) scale(0.100000,-0.100000)"
fill="#000000" stroke="none">

<path id="ES-BU" title="Burgos" class="land" d="M470.45,41.99l0.11,0.32l0,0l2.92,-0.42l2.7,1.24l1.27,-0.25l0.4,0.85l0.95,-0.52l-1.55,2.78l0.96,1.15l1.71,-0.66l0.14,1.57l-3.6,-0.06l-0.75,-1.02l-3.34,0.27l-0.51,-1.37l-2.58,-1.7l1.01,-2.35l0,0L470.45,41.99zM452.43,27.73l5.04,-2.73l0.9,1.19l2.05,-0.32l0.49,0.68l0,0l-1.24,1.7l1.47,0.99l-0.74,0.97l0.55,0.29l-0.05,1.56l-1.1,0.33l3.61,0.77l0.6,1.42l1.82,1.28l-1.15,1.26l-2.17,0.4l-1.84,-0.76l0.15,-0.72l-2.45,-0.63l-1.78,3.1l2.37,2.01l-0.51,-0.47l0.97,-1.29l0.92,0.55l1.41,-1.37l0.06,1.18l-1.41,2.35l1.1,0.64l-0.76,1.36l3.02,-0.37l0.27,1.13l0.75,-0.08l1.1,1.53l1.54,-0.18l0.86,0.61l0.2,1.6l1.17,0.7l0,0l-1.78,0.78l-0.93,-0.82l-4.22,-0.06l0.75,2.14l-2.28,1.96l1.92,0.6l-0.7,1.64l1.49,1.78l-0.53,0.84l0.17,2.27l-0.63,-1.89l-0.71,-0.04l-0.09,1.3l0.6,0l0.65,1.21l-1.4,0.17l0.63,4.39l-1.25,1.91l2.92,4.68l3.17,-0.03l0.54,2.63l0,0l0,0l0,0l-1.13,1.19l-0.62,2.66l-1.14,0.29l-0.27,1.45l-2.47,0.24l-1.2,2.84l-1.08,0.78l-0.71,-1.47l-2.74,-2.25l0.26,4.72l-2.38,1.26l-0.17,1.82l-1.07,0.12l-2.02,4.13l-2.15,-0.94l-0.65,0.66l0.27,0.78l0,0l-3.99,0.7l-1.74,1.75l-0.34,2.73l-0.93,-0.38l0.06,-3.22l-1.1,0.5l0.49,1.67l-1.11,0.19l-2.17,-2.9l-2.64,-1.27l0,0l-0.77,-1.47l-0.9,-0.05l0.28,-2.94l-1.54,-1.38l1.09,-1.73l0,0l0.09,-0.88l-1.6,-1.68l0.04,-1.63l1.57,-0.09l1.75,-1.14l-0.02,-1.24l1.37,-1.08l1.36,-0.02l0.03,-1.61l-4.34,1.75l0.56,-1.83l1.34,-1.42l-0.35,-0.75l-1.74,-0.08l-1.25,0.68l-0.71,-2.07l0.78,0.18l0.65,-0.75l-1.99,-1.13l-0.65,0.36l-1.94,-0.62l0.52,-1.72l-1.31,-1.32l-1.27,-7.33l-1.5,0.24l-0.41,-1.66l0.55,-1.62l2.29,0.11l-0.14,-1.59l-1.2,-0.72l0.26,-1.36l-0.79,-0.44l-0.06,-0.64l1.06,-0.44l-0.67,-1.02l0.88,-0.5l-0.9,-3.03l0.81,-0.6l0.3,0.72l3.4,-2.66l1.12,0.76l0.87,-1.15l0,0l1.09,-0.21l0,0l1.42,-0.1l0,0l0.64,0.45l2.09,-0.43l0.51,-1.51l0.95,0.75l1.45,-1l-0.64,-2.84l-0.83,-0.46l-0.5,1.6l-1.08,-0.4l0.55,-0.81l-0.82,-0.37l0.96,0.08l-0.46,-1.13l1.2,0.65l1.08,-0.79l-0.18,-0.91l-1.47,-0.37l-0.12,0.97l-1.3,1.08l0.12,-0.63L435.4,37l-0.55,-0.8l1.39,-3.13l1.11,-0.43l0.57,-1.08l1.28,0.03l0.53,-0.95l-0.47,-0.86l2.76,-0.03l0.03,-0.59l1.57,-0.72l1.65,-2.71l1.18,0.48l0.27,0.83L452.43,27.73zM432.55,68.05l0.11,1.32l-1.47,-0.48l-0.05,-0.63L432.55,68.05z"/>

</g>
</svg>
