<?xml version="1.0" encoding="UTF-8" standalone="no"?>
<!-- Created with Inkscape (http://www.inkscape.org/) -->

<svg
   xmlns:dc="http://purl.org/dc/elements/1.1/"
   xmlns:cc="http://creativecommons.org/ns#"
   xmlns:rdf="http://www.w3.org/1999/02/22-rdf-syntax-ns#"
   xmlns:svg="http://www.w3.org/2000/svg"
   xmlns="http://www.w3.org/2000/svg"
   xmlns:sodipodi="http://sodipodi.sourceforge.net/DTD/sodipodi-0.dtd"
   xmlns:inkscape="http://www.inkscape.org/namespaces/inkscape"
   width="50.423897mm"
   height="48.914589mm"
   viewBox="0 0 50.423898 48.914589"
   version="1.1"
   id="svg4551"
   inkscape:version="0.92.5 (2060ec1f9f, 2020-04-08)"
   sodipodi:docname="vector.svg">
  <defs
     id="defs4545">
    <clipPath
       id="SVG_CP_1">
      <path
         inkscape:connector-curvature="0"
         d="M 0,0 V 413.26299 H 439.51181 V 0 Z"
         id="path6" />
    </clipPath>
    <clipPath
       id="clipPath4541">
      <path
         inkscape:connector-curvature="0"
         d="M 0,0 V 413.26299 H 439.51181 V 0 Z"
         id="path4539" />
    </clipPath>
    <clipPath
       id="SVG_CP_1-3">
      <path
         inkscape:connector-curvature="0"
         d="M 0,0 V 413.26299 H 439.51181 V 0 Z"
         id="path6-6" />
    </clipPath>
    <clipPath
       id="SVG_CP_1-7">
      <path
         inkscape:connector-curvature="0"
         d="M 0,0 V 413.26299 H 439.51181 V 0 Z"
         id="path6-5" />
    </clipPath>
    <clipPath
       id="SVG_CP_1-35">
      <path
         inkscape:connector-curvature="0"
         d="M 0,0 V 413.26299 H 439.51181 V 0 Z"
         id="path6-62" />
    </clipPath>
    <clipPath
       id="SVG_CP_1-9">
      <path
         inkscape:connector-curvature="0"
         d="M 0,0 V 413.26299 H 439.51181 V 0 Z"
         id="path6-1" />
    </clipPath>
    <clipPath
       id="SVG_CP_1-2">
      <path
         inkscape:connector-curvature="0"
         d="M 0,0 V 413.26299 H 439.51181 V 0 Z"
         id="path6-7" />
    </clipPath>
    <clipPath
       id="SVG_CP_1-0">
      <path
         inkscape:connector-curvature="0"
         d="M 0,0 V 413.26299 H 439.51181 V 0 Z"
         id="path6-9" />
    </clipPath>
    <clipPath
       id="SVG_CP_1-36">
      <path
         inkscape:connector-curvature="0"
         d="M 0,0 V 413.26299 H 439.51181 V 0 Z"
         id="path6-0" />
    </clipPath>
    <clipPath
       id="SVG_CP_1-6">
      <path
         inkscape:connector-curvature="0"
         d="M 0,0 V 413.26299 H 439.51181 V 0 Z"
         id="path6-2" />
    </clipPath>
    <clipPath
       id="SVG_CP_1-61">
      <path
         inkscape:connector-curvature="0"
         d="M 0,0 V 413.26299 H 439.51181 V 0 Z"
         id="path6-8" />
    </clipPath>
    <clipPath
       id="SVG_CP_1-79">
      <path
         inkscape:connector-curvature="0"
         d="M 0,0 V 413.26299 H 439.51181 V 0 Z"
         id="path6-20" />
    </clipPath>
    <clipPath
       id="SVG_CP_1-23">
      <path
         inkscape:connector-curvature="0"
         d="M 0,0 V 413.26299 H 439.51181 V 0 Z"
         id="path6-75" />
    </clipPath>
    <clipPath
       id="SVG_CP_1-92">
      <path
         inkscape:connector-curvature="0"
         d="M 0,0 V 413.26299 H 439.51181 V 0 Z"
         id="path6-28" />
    </clipPath>
    <clipPath
       id="SVG_CP_1-97">
      <path
         inkscape:connector-curvature="0"
         d="M 0,0 V 413.26299 H 439.51181 V 0 Z"
         id="path6-3" />
    </clipPath>
    <clipPath
       id="SVG_CP_1-612">
      <path
         inkscape:connector-curvature="0"
         d="M 0,0 V 413.26299 H 439.51181 V 0 Z"
         id="path6-93" />
    </clipPath>
    <clipPath
       id="SVG_CP_1-1">
      <path
         inkscape:connector-curvature="0"
         d="M 0,0 V 413.26299 H 439.51181 V 0 Z"
         id="path6-94" />
    </clipPath>
    <clipPath
       id="SVG_CP_1-78">
      <path
         inkscape:connector-curvature="0"
         d="M 0,0 V 413.26299 H 439.51181 V 0 Z"
         id="path6-4" />
    </clipPath>
    <clipPath
       id="SVG_CP_1-5">
      <path
         inkscape:connector-curvature="0"
         d="M 0,0 V 413.26299 H 439.51181 V 0 Z"
         id="path6-03" />
    </clipPath>
    <clipPath
       id="SVG_CP_1-610">
      <path
         inkscape:connector-curvature="0"
         d="M 0,0 V 413.26299 H 439.51181 V 0 Z"
         id="path6-63" />
    </clipPath>
    <clipPath
       id="SVG_CP_1-20">
      <path
         inkscape:connector-curvature="0"
         d="M 0,0 V 413.26299 H 439.51181 V 0 Z"
         id="path6-61" />
    </clipPath>
    <clipPath
       id="SVG_CP_1-55">
      <path
         inkscape:connector-curvature="0"
         d="M 0,0 V 413.26299 H 439.51181 V 0 Z"
         id="path6-47" />
    </clipPath>
    <clipPath
       id="SVG_CP_1-65">
      <path
         inkscape:connector-curvature="0"
         d="M 0,0 V 413.26299 H 439.51181 V 0 Z"
         id="path6-69" />
    </clipPath>
    <clipPath
       id="SVG_CP_1-37">
      <path
         inkscape:connector-curvature="0"
         d="M 0,0 V 413.26299 H 439.51181 V 0 Z"
         id="path6-45" />
    </clipPath>
    <clipPath
       id="SVG_CP_1-25">
      <path
         inkscape:connector-curvature="0"
         d="M 0,0 V 413.26299 H 439.51181 V 0 Z"
         id="path6-474" />
    </clipPath>
    <clipPath
       id="SVG_CP_1-4">
      <path
         inkscape:connector-curvature="0"
         d="M 0,0 V 413.26299 H 439.51181 V 0 Z"
         id="path6-30" />
    </clipPath>
    <clipPath
       id="SVG_CP_1-367">
      <path
         inkscape:connector-curvature="0"
         d="M 0,0 V 413.26299 H 439.51181 V 0 Z"
         id="path6-53" />
    </clipPath>
  </defs>
  <sodipodi:namedview
     id="base"
     pagecolor="#ffffff"
     bordercolor="#666666"
     borderopacity="1.0"
     inkscape:pageopacity="0.0"
     inkscape:pageshadow="2"
     inkscape:zoom="0.98994949"
     inkscape:cx="-113.42444"
     inkscape:cy="-32.557239"
     inkscape:document-units="mm"
     inkscape:current-layer="layer1"
     showgrid="false"
     fit-margin-top="0"
     fit-margin-left="0"
     fit-margin-right="0"
     fit-margin-bottom="0"
     inkscape:window-width="1920"
     inkscape:window-height="1016"
     inkscape:window-x="1920"
     inkscape:window-y="27"
     inkscape:window-maximized="1" />
  <metadata
     id="metadata4548">
    <rdf:RDF>
      <cc:Work
         rdf:about="">
        <dc:format>image/svg+xml</dc:format>
        <dc:type
           rdf:resource="http://purl.org/dc/dcmitype/StillImage" />
        <dc:title />
      </cc:Work>
    </rdf:RDF>
  </metadata>
  <g
     inkscape:label="Capa 1"
     inkscape:groupmode="layer"
     id="layer1"
     transform="translate(-2.2913791,-5.6818699)">
    <path
       transform="matrix(0.47803006,0,0,0.47803006,-71.777574,-92.40788)"
       inkscape:connector-curvature="0"
       clip-path="url(#SVG_CP_1-367)"
       stroke-miterlimit="10"
       d="m 241.2258,295.25114 h -0.24002 -0.24003 -0.24003 v 0.24004 l -0.24002,0.24004 -0.24003,0.24004 h -0.24002 v 0.24005 h -0.24003 -0.24002 l -0.24003,0.24004 -0.24003,-0.24004 v 0.24004 h -0.24002 -0.24003 l -0.24002,0.24004 h -0.24003 -0.24002 v 0.24004 h -0.24003 -0.24002 -0.24003 v 0.24004 h 0.24003 v 0.24004 h -0.24003 -0.24003 l 0.48006,0.24005 h -0.24003 -0.24003 l 0.24003,0.24004 -0.24003,-0.24004 0.24003,0.24004 h -0.24003 -0.24002 l 0.48005,0.24004 0.24003,-0.48008 v -0.24005 l 0.24002,0.24005 -0.48005,0.48008 -0.48005,-0.24004 h -0.24003 l -0.24002,0.48008 h -0.24003 -0.24002 l -0.24003,0.24004 v 0.48009 0.24004 l 0.24003,0.24004 h 0.24002 -0.24002 v 0.24004 0.24004 h -0.24003 v 0.24004 0.24004 0.24005 l 0.24003,0.24004 h -0.24003 v 0.24004 0.24004 h -0.24003 v -0.24004 h -0.48005 -0.24002 v -0.24004 h -0.24003 -0.24002 v -0.24004 h -0.24003 v 0.24004 l -0.24003,-0.24004 h 0.24003 -0.24003 v -0.24005 h -0.24002 v -0.24004 h 0.24002 v -0.24004 l -0.24002,-0.24004 h 0.24002 v -0.24004 h 0.24003 l -0.24003,-0.24004 -0.24002,0.24004 -0.24003,-0.24004 h -0.24002 l -0.24003,0.24004 v -0.24004 -0.24004 h -0.24002 l -0.24003,-0.24005 v 0.24005 h -0.24003 -0.24002 -0.24003 -0.24002 v -0.24005 l -0.24003,0.24005 h -0.24002 v -0.24005 -0.24004 h -0.72008 v -0.48008 l -0.24003,-0.24004 -0.24002,-0.24004 h -0.24003 l -0.24002,0.24004 v -0.48009 l -0.24003,0.24005 v -0.24005 h -0.24002 v -0.24004 h -0.24003 v 0.24004 0.24005 h -0.24003 -0.48005 l -0.24002,-0.24005 h -0.24003 v -0.24004 l -0.24002,-0.24004 h -0.24003 v -0.24004 l -0.24003,-0.24004 h -0.24002 l -0.24003,-0.24004 h -0.24002 l -0.24003,-0.24005 -0.24002,-0.24004 h -0.24003 -0.24003 -0.24002 -0.24003 -0.24002 l -0.24003,-0.24004 h -0.48005 -0.24003 v 0.24004 l -0.72007,0.48009 -0.48005,0.48008 v 0.24004 h -0.24003 v 0.24004 h -0.24002 -0.48006 -0.24002 -0.24003 -0.24002 -0.24003 -0.24002 v -0.24004 l -0.24003,0.24004 -0.24003,0.24004 h -0.24002 l -0.24003,-0.24004 h -0.24002 -0.24003 -0.24002 v 0.24004 h -0.24003 -0.24003 -0.24002 l -0.24003,-0.24004 -0.48005,0.24004 h -0.24002 l -0.24003,0.24005 h -0.24003 -0.24002 v -0.24005 H 215.063 v -0.24004 0.24004 l -0.24002,-0.24004 -0.48005,0.24004 h -0.24003 l -0.24003,0.24005 -0.24002,-0.24005 h -0.48005 -0.24003 l -0.24002,-0.24004 v -0.24004 l -0.24003,-0.24004 h -0.24002 l -0.24003,-0.24004 h -0.24003 -0.24002 -0.24003 -0.24002 -0.24003 -0.24002 -0.24003 -0.24003 l -0.24002,0.24004 h -0.24003 v -0.24004 l -0.24002,0.24004 -0.24003,0.24004 h -0.24002 -0.24003 v 0.24004 l -0.24003,0.24004 -0.24002,0.24005 h -0.24003 -0.24002 v 0.24004 h -0.24003 v 0.24004 h -0.24002 l -0.24003,0.24004 -0.24003,0.24004 -0.24002,0.24004 v 0.24005 h -0.24003 v -0.24005 -0.24004 l -0.24002,-0.24004 h 0.24002 l 0.48005,-0.72012 h -0.24002 l -0.24003,0.24004 -0.24002,0.24004 v 0.24004 H 205.702 v 0.24004 0.72013 0.24004 l -0.24002,0.24004 -0.24003,0.24004 h -0.24002 -0.24003 v 0.24004 h -0.24003 -0.24002 0.24002 0.24003 0.24003 0.24002 v 0.24004 l -0.24002,0.24005 -0.24003,0.48008 -0.24003,0.24004 h -0.24002 l -0.24003,0.24004 v -0.24004 h -0.24002 -0.24003 -0.24002 -0.24003 l -0.24003,-0.24004 h -0.24002 l -0.48005,-0.24004 h -0.24003 -0.24002 -0.72008 l -0.48005,-0.24004 h -0.48005 l -0.24003,-0.24005 v -0.24004 l -0.48005,-0.24004 v -0.24004 h -0.24003 v 0.24004 h -0.24002 v -0.24004 l -0.24003,-0.24004 h -0.24002 v -0.24004 l -0.24003,-0.24004 v -0.24005 h -0.24003 v -0.24004 h -0.24002 -0.24003 -0.24002 l 0.24002,-0.24004 -0.24002,-0.24004 h -0.24003 v -0.24004 l -0.24002,-0.48009 v 0.24005 -0.24005 H 196.341 v -0.24004 h -0.24002 -0.24003 -0.24003 l -0.24002,-0.24004 h -0.24003 -0.24002 v 0.24004 h -0.24003 l -0.24002,0.24004 h -0.24003 v 0.24005 0.24004 h -0.24003 v 0.24004 l -0.24002,-0.24004 v 0.24004 h -0.24003 -0.24002 l -0.24003,0.48008 h -0.24002 v 0.24004 h -0.24003 -0.24003 l -0.24002,0.24005 h -0.48005 -0.24003 -0.24002 -0.24003 l -0.48005,0.24004 -0.48005,0.24004 h -0.24003 -0.24002 -0.24003 l -0.24003,-0.24004 h -0.24002 v -0.24004 l -0.24003,-0.24005 v -0.24004 h -0.24002 v -0.24004 h -0.24003 v -0.24004 -0.24004 -0.24004 -0.48009 l -0.24002,-0.24004 -0.48005,-0.48008 -0.24003,-0.24004 h -0.24003 l -0.24002,-0.24005 -0.24003,-0.24004 v -0.24004 h -0.24002 v -0.24004 l -0.24003,-0.24004 h -0.24002 l -0.24003,-0.48008 -0.24003,-0.24005 h -0.24002 v -0.24004 h -0.24003 v -0.48008 h -0.24002 -0.24003 v -0.24004 h -0.48005 l -0.24003,-0.24004 -0.24002,-0.24005 -0.24003,-0.24004 v -0.24004 l 0.24003,-0.24004 v -0.24004 -0.24004 -0.24005 l -0.24003,-0.24004 -0.24002,-0.24004 h -0.24003 v -0.24004 -0.24004 h -0.24002 v -0.24004 h -0.24003 v -0.24004 -0.24005 h -0.24003 -0.24002 v 0.24005 l -0.24003,-0.24005 -0.24002,-0.24004 h -0.24003 v -0.24004 l -0.24002,-0.24004 v 0.24004 -0.24004 h -0.24003 v -0.24004 h -0.24002 v -0.24004 h -0.24003 -0.24003 -0.24002 v -0.24005 l -0.24003,-0.24004 h -0.24002 -0.24003 -0.24002 l -0.24003,-0.24004 h -0.24003 -0.24002 v -0.24004 h -0.24003 -0.24002 v -0.24004 l -0.24003,-0.24004 v -0.24005 l -0.24002,-0.24004 h -0.24003 v -0.24004 h -0.24003 -0.24002 l -0.24003,-0.24004 h -0.24002 l -0.24003,-0.24004 v -0.24004 h -0.24002 l -0.48006,-0.24004 v -0.48009 h -0.24002 v -0.24004 l -0.24003,-0.24004 v -0.24004 h -0.24002 v -0.24004 h -0.24003 v -0.24005 h -0.24002 v -0.24004 l -0.24003,-0.24004 -0.24003,-0.48008 h -0.24002 l -0.24003,-0.48009 h -0.24002 0.24002 v -0.24004 l -0.24002,-0.24004 h -0.24003 v -0.24004 -0.24004 -0.24004 h 0.24003 -0.24003 l -0.24002,-0.24004 v -0.24005 h -0.24003 v -0.24004 -0.24004 h -0.24002 -0.24003 v -0.24004 h -0.24003 v -0.24004 -0.24004 -0.24005 h -0.24002 v -0.24004 h -0.24003 v -0.24004 -0.24004 -0.24004 h -0.24002 v -0.24004 -0.24005 h -0.24003 l -0.24002,-0.72012 0.24002,-0.24004 v -0.24004 h -0.24002 0.24002 v -0.24004 h -0.24002 v -0.24005 -0.24004 -0.24004 -0.24004 -0.24004 l 0.24002,-0.24004 v -0.24005 l 0.24003,-0.24004 h -0.24003 0.24003 v -0.24004 -0.24004 -0.24004 h 0.24002 l -0.24002,-0.48009 0.24002,-0.48008 v -0.24004 -0.24004 l 0.24003,-0.24004 v -0.24004 -0.24005 -0.24004 -0.24004 l 0.24002,-0.24004 v -0.24004 -0.24004 l 0.24003,-0.48009 v -0.48008 l 0.24003,-0.48008 v -0.24005 -0.24004 -0.24004 h 0.24002 l 0.24003,-0.24004 v -0.24004 -0.24004 h -0.24003 v -0.24004 -0.24005 -0.24004 h 0.24003 v -0.48008 -0.24004 l 0.24002,-0.24004 v -0.24005 l 0.24003,-0.24004 v -0.24004 h -0.24003 v -0.24004 -0.24004 l -0.24002,-0.24004 v -0.24005 h -0.24003 l 0.24003,-0.24004 h -0.24003 0.24003 v -0.24004 -0.24004 -0.24004 h -0.24003 v -0.24004 l -0.24002,-0.24004 h -0.24003 v -0.24005 -0.24004 -0.24004 h -0.24003 v 0.24004 l -0.24002,-0.24004 h 0.24002 l -0.24002,-0.24004 -0.24003,-0.24004 0.24003,-0.24004 h -0.24003 l 0.24003,-0.24005 h -0.24003 0.24003 -0.24003 l -0.24002,-0.24004 v -0.24004 l 0.48005,-0.24004 h -0.24003 v -0.24004 -0.24004 h -0.24002 v -0.24004 h -0.24003 -0.24002 v -0.24005 -0.24004 h -0.24003 0.24003 l -0.24003,-0.24004 v -0.24004 0.24004 h -0.24003 v -0.24004 h 0.24003 -0.24003 l 0.24003,-0.24004 h -0.24003 v 0.24004 -0.24004 h -0.24002 0.24002 v -0.24004 -0.24005 h -0.24002 v -0.24004 -0.24004 h -0.24003 v -0.24004 H 168.258 v -0.24004 0.24004 -0.24004 -0.24004 h -0.24003 -0.24002 v -0.24005 h -0.24003 v -0.24004 l -0.24003,-0.24004 v -0.24004 h -0.24002 v 0.24004 h -0.24003 v -0.24004 -0.24004 h -0.24002 -0.24003 v -0.24004 h -0.24002 0.24002 v -0.24004 h -0.24002 -0.24003 v -0.24005 h -0.24003 l 0.24003,-0.24004 h -0.24003 l -0.24002,-0.24004 -0.24003,-0.24004 v -0.24004 h -0.24002 v -0.24004 -0.24005 h -0.24003 v -0.24004 -0.24004 0.24004 h -0.24002 v -0.24004 -0.24004 l -0.24003,-0.24004 0.24003,-0.24004 h -0.24003 v -0.24005 h -0.24003 0.24003 l -0.24003,-0.24004 v -0.24004 -0.24004 h -0.24002 -0.24003 v -0.24004 -0.24004 h -0.24002 v -0.24004 h -0.24003 l 0.24003,-0.24005 h -0.24003 v -0.24004 -0.24004 h -0.24002 v -0.24004 h -0.24003 v -0.24004 -0.24004 h -0.24002 v -0.24005 -0.24004 h -0.24003 l -0.24003,-0.24004 h 0.24003 -0.24003 v -0.24004 -0.24004 h -0.24002 -0.24003 l 0.24003,-0.24004 v -0.24005 -0.24004 -0.24004 l 0.48005,-0.24004 0.24003,-0.24004 h 0.24002 v -0.24004 l 0.24003,-0.24004 h -0.24003 0.24003 l 0.24002,-0.24005 h 0.24003 l 0.24002,-0.24004 h 0.24003 l 0.48005,-0.24004 0.24003,-0.24004 v -0.24004 h 0.24002 v 0.24004 l 0.24003,-0.24004 0.24002,-0.24004 0.24003,-0.24005 h 0.24002 -0.24002 l 0.24002,-0.24004 h -0.24002 v -0.24004 h 0.24002 v -0.24004 l 0.48006,-0.24004 v -0.24004 h -0.24003 v -0.24005 -0.24004 l 0.24003,-0.24004 0.24002,-0.24004 v 0.24004 l 0.24003,-0.24004 h -0.24003 v -0.24004 h -0.24002 v -0.24004 h 0.24002 v -0.24004 h -0.24002 v -0.24005 l 0.24002,-0.24004 v -0.24004 -0.24004 l 0.24003,-0.24004 v -0.24004 -0.24005 -0.24004 h 0.24002 v -0.24004 l 0.24003,-0.24004 h 0.24002 -0.24002 0.24002 v -0.24004 h 0.24003 l 0.24003,-0.24004 0.48005,-0.24005 v -0.24004 h 0.24002 l 0.24003,-0.24004 0.24002,-0.24004 h 0.24003 v -0.24004 l 0.24003,-0.24004 0.24002,-0.24004 0.48005,-0.24005 v -0.24004 l 0.24003,-0.24004 h -0.48005 l -0.24003,-0.24004 0.24003,0.24004 h 0.24002 0.24003 l 0.24002,-0.48008 h -0.24002 v -0.24004 h -0.24003 l -0.24002,0.24004 v -0.24004 h -0.24003 0.24003 v -0.24005 h -0.24003 l 0.24003,-0.24004 v 0.24004 h 0.24002 v 0.24005 h 0.24003 0.24002 v -0.24005 0.24005 h 0.24003 l 0.24003,0.24004 v 0.24004 h 0.24002 l -0.24002,-0.48008 h -0.24003 v -0.24005 h -0.24003 -0.24002 l 0.24002,-0.24004 h -0.24002 v 0.24004 -0.24004 0.24004 l -0.48005,-0.24004 h 0.24002 l 0.24003,-0.24004 0.24002,0.24004 0.24003,0.24004 h 0.24003 v -0.48008 -0.24004 -0.24004 -0.24004 h 0.24002 l 1.44015,-0.24005 1.20013,-0.24004 0.24003,-0.24004 1.20013,-0.48008 0.72007,-0.24004 3.84042,-2.40042 0.48005,-0.96017 0.24002,-0.48008 0.48005,-0.72012 0.48005,-0.72013 0.24003,-0.48008 0.24003,-0.72013 0.48005,-0.72012 0.72007,-1.68029 2.88031,-3.36058 0.48005,0.24004 0.96011,-0.72013 0.24002,-0.24004 0.72008,-1.20021 -0.72008,-0.48008 1.92021,-1.20021 -0.24003,-0.24004 1.68018,-2.16037 0.72008,0.24004 0.72008,-0.72013 0.48005,-0.24004 0.9601,-0.96016 1.92021,-1.6803 0.72007,-0.72012 0.72008,-0.24004 0.48005,-0.48008 3.84041,1.44024 1.44016,0.96017 0.48005,0.48008 1.44015,0.72013 3.36036,2.16037 1.20013,0.72013 1.9202,1.20021 0.24003,0.24004 -0.24003,0.48008 1.44016,0.72013 0.9601,0.24004 1.20013,0.48008 h 0.24002 l 1.20013,0.48008 1.20013,0.24004 1.20013,1.20021 h 0.24003 l 1.20012,0.72013 0.72008,-0.24004 h 0.48005 l 1.44016,0.24004 0.24002,0.24004 0.24003,-0.24004 h 0.9601 l 0.48005,0.48008 0.48005,0.48008 0.24003,0.24005 0.24002,0.24004 h 0.24003 l 0.72008,-0.24004 h 0.24002 l 0.24003,-0.72013 0.24002,-0.24004 h 0.48006 0.48005 0.24002 l 0.24003,0.24004 0.24002,0.72013 0.72008,-0.24005 0.9601,0.72013 1.44016,0.24004 0.9601,-0.48008 0.72008,-0.72013 h 0.24002 l 0.72008,-0.24004 h 0.48005 l 0.72008,-1.20021 0.24002,-0.24004 0.24003,-0.96017 -0.24003,-0.72012 1.44016,0.24004 0.9601,-1.20021 0.72008,-0.72012 0.72007,-0.72013 0.96011,0.24005 0.72007,0.24004 0.48006,0.24004 h 0.48005 l 0.72007,0.24004 1.92021,0.24004 0.48005,0.24004 0.72008,0.24005 0.72007,0.24004 0.48006,0.48008 2.64028,1.68029 0.72008,0.48008 -0.72008,1.6803 -0.72008,1.44024 -0.48005,1.20021 -0.48005,0.72013 -0.24003,0.96016 -0.48005,0.72013 1.20013,1.44025 0.24003,0.24004 0.48005,0.24004 -1.20013,1.92033 1.9202,0.48009 1.20013,0.24004 0.96011,0.48008 h 0.48005 l -0.96011,2.40042 -0.9601,2.16037 -0.24002,0.48008 -1.44016,1.20021 -0.24002,0.24004 h -0.48006 -0.48005 l -1.44015,0.24005 -0.24003,1.2002 v 0.24005 l 0.24003,2.40041 1.44015,4.32075 -1.68018,0.96017 -0.48005,2.40041 v 0.48008 l 0.24003,0.24005 0.24002,0.96016 0.72008,2.40042 h 0.48005 l 0.72008,0.72012 0.48005,0.72013 0.48005,1.44025 1.68018,1.20021 0.48005,1.44024 -0.48005,0.96017 -0.9601,2.40042 -1.20013,1.44025 -0.48005,0.48008 -2.16023,0.96017 -0.48005,0.96016 -0.48005,0.48008 -0.72008,1.20021 -0.72008,1.44025 -0.24002,0.48009 0.24002,0.24004 -0.24002,0.48008 -0.48006,2.40042 v 1.44025 0.96016 l -0.72007,4.08071 -0.72008,3.84066 -0.48005,1.68029 -0.48005,1.44025 v 3.60063 l -0.24003,3.12054 v 0.24004"
       id="path234"
       style="" />
    <path
       style="stroke-width:1.01015258"
       d="m 85.237625,172.87838 c -1.463736,-0.22527 -4.490693,-1.97543 -6.72657,-3.88926 -4.386364,-3.75456 -6.716443,-4.27941 -9.220374,-2.07688 -2.182188,1.91952 -8.160761,3.13903 -8.160761,1.66463 0,-0.62352 -2.045559,-3.32055 -4.545686,-5.99339 -2.500128,-2.67284 -4.545687,-5.29573 -4.545687,-5.82864 0,-1.4765 -5.014454,-5.75901 -10.19599,-8.70773 -4.01655,-2.28573 -10.007061,-8.44585 -10.007061,-10.29037 0,-0.33736 -0.91432,-1.85007 -2.031822,-3.36157 -2.992934,-4.04816 -3.136512,-6.50557 -0.884427,-15.13741 1.11806,-4.28532 2.049777,-9.23679 2.070482,-11.00327 0.04568,-3.89691 -5.468955,-15.09541 -8.675842,-17.617948 -1.276147,-1.003818 -4.001281,-4.647052 -6.055855,-8.096078 l -3.735589,-6.270955 4.204532,-3.621206 c 3.063029,-2.638072 4.312979,-4.552623 4.603979,-7.051925 0.288445,-2.47736 1.522787,-4.392258 4.441843,-6.89086 2.223317,-1.903077 4.042394,-4.070453 4.042394,-4.816392 0,-0.745939 1.253578,-1.631584 2.785728,-1.968102 1.532151,-0.336516 5.121275,-1.945733 7.975832,-3.576039 4.352938,-2.486066 5.827357,-4.151901 9.140838,-10.327553 2.465527,-4.595238 5.160637,-8.12286 7.169141,-9.383667 1.770124,-1.111168 3.498261,-3.043085 3.840307,-4.293149 0.342045,-1.250063 1.036936,-2.272843 1.544201,-2.272843 0.507265,0 1.440089,-1.136422 2.072941,-2.525381 0.632853,-1.38896 1.564334,-2.525382 2.069959,-2.525382 0.505625,0 3.075685,-1.818274 5.711242,-4.04061 2.635559,-2.222335 5.710159,-4.0406101 6.832447,-4.0406101 2.269887,0 18.617761,9.6080771 22.177753,13.0344531 1.25231,1.205301 4.46848,2.930536 7.14706,3.833857 2.67857,0.90332 5.77927,2.196788 6.89044,2.874373 1.11117,0.677584 3.97207,1.521477 6.35757,1.875315 2.3855,0.353838 5.18965,1.175658 6.23143,1.826266 1.48156,0.925248 2.25886,0.88025 3.5684,-0.206575 1.34026,-1.112314 1.83255,-1.133356 2.46781,-0.105487 0.43646,0.706208 0.97003,1.178488 1.1857,1.049512 0.21568,-0.128976 1.46276,0.105301 2.7713,0.520614 2.2844,0.725043 9.2376,-1.987432 9.2376,-3.603633 0,-0.36588 1.70463,-2.326096 3.78807,-4.356037 3.44571,-3.357227 4.15326,-3.63373 7.82868,-3.059347 4.58127,0.715944 11.90402,3.926478 13.59044,5.958487 0.85252,1.027232 0.4858,2.759802 -1.50572,7.113711 -2.49488,5.45437 -2.54231,5.855654 -0.90586,7.663914 1.3586,1.501231 1.47125,2.216175 0.52825,3.352418 -1.38501,1.668841 -0.83155,2.129304 3.73754,3.109555 2.82604,0.606296 3.22222,1.039369 2.64995,2.89671 -1.60859,5.220748 -3.58146,7.716459 -6.74309,8.530075 -3.86612,0.994911 -4.64969,4.095634 -2.74981,10.881362 1.0227,3.652717 0.94569,4.636637 -0.54041,6.90471 -1.4798,2.258455 -1.56523,3.311511 -0.58458,7.205983 0.63165,2.508549 1.83298,5.347746 2.66961,6.309327 6.31572,7.259011 6.41804,7.443977 5.48092,9.908777 -1.54822,4.07213 -4.08507,7.38444 -6.16004,8.04301 -3.87392,1.22954 -6.92839,7.64762 -7.9548,16.71471 -0.5291,4.67395 -1.64055,11.90735 -2.46989,16.07423 -0.82934,4.16688 -1.78239,10.19789 -2.11787,13.40226 -0.57968,5.53672 -0.79259,5.90242 -4.28618,7.36213 -4.75816,1.98808 -7.28567,4.32141 -7.28567,6.7259 0,1.05785 -0.46198,1.63784 -1.02663,1.28887 -0.56464,-0.34896 -0.78797,-1.02066 -0.49627,-1.49265 0.29172,-0.47198 -0.95093,-1.17302 -2.76143,-1.55784 -1.8105,-0.38484 -4.0901,-1.40395 -5.06577,-2.26468 -0.97568,-0.86073 -2.0608,-1.27814 -2.41136,-0.92757 -0.35057,0.35056 -1.89531,-0.2583 -3.43274,-1.35307 -3.40445,-2.42417 -6.32246,-2.5439 -8.15598,-0.33464 -1.17993,1.42173 -2.90501,1.56823 -12.20206,1.03629 -6.63699,-0.37973 -11.063237,-0.23866 -11.436009,0.3645 -0.334484,0.5412 -1.53302,0.98401 -2.663413,0.98401 -1.181173,0 -2.272179,0.8295 -2.565307,1.95043 -0.280527,1.07273 -1.175919,2.20594 -1.989761,2.51824 -0.813841,0.3123 -1.196789,1.0256 -0.850994,1.58511 0.345795,0.5595 0.260964,0.94918 -0.188513,0.86593 -0.449476,-0.0832 -2.014833,-0.33566 -3.478568,-0.56092 z"
       id="path4858"
       inkscape:connector-curvature="0"
       transform="matrix(0.26458333,0,0,0.26458333,2.2913791,5.6818699)" />
  </g>
</svg>
