<?xml version="1.0" standalone="no"?>
<!DOCTYPE svg PUBLIC "-//W3C//DTD SVG 20010904//EN"
 "http://www.w3.org/TR/2001/REC-SVG-20010904/DTD/svg10.dtd">
<svg version="1.0" xmlns="http://www.w3.org/2000/svg"
 width="1024.000000pt" height="1024.000000pt" viewBox="0 0 1024.000000 1024.000000"
 preserveAspectRatio="xMidYMid meet">
<metadata>
Created by potrace 1.10, written by Peter Selinger 2001-2011
</metadata>
<g transform="translate(0.000000,1024.000000) scale(0.100000,-0.100000)"
fill="#000000" stroke="none">

<path id="ES-AL" title="Almería" class="land" d="M489.56,237.69L490.66,238.77L492.16,238.31L493.34,239.4L493.78,238.93L496.72,239.55L495.95,241.31L496.06,244.98L495.55,246.03L496.65,249.2L500.69,255.52L501.8,256.34L501.71,255.65L504.01,255.99L507.29,258.6L507.29,258.6L505.86,259.41L501.97,264.42L500.56,270.32L498.97,273.45L499.14,274.96L497.74,275.43L496.93,276.87L496.19,277.04L495.87,279.23L494.06,280.29L494.09,281.48L492.69,282.01L492.23,283.19L490.07,283.68L486.97,279.82L484.87,279.03L482.87,280.22L481.17,279.32L478.59,280.08L476.73,283.62L474.47,285.1L472.24,285.13L470.81,284.19L469.89,284.63L467.57,282.46L466,282.97L461.31,282.5L461.31,282.5L460.95,281.08L464.36,278.92L463.14,276.2L464.29,275.86L464.57,274.73L465.97,273.84L464.34,268.64L465.24,269.34L466.82,269.28L467.42,267L468.9,265.81L470,262.27L472.03,262.91L472.65,264.29L473.44,263.88L475.68,264.85L475.51,262.05L476.43,257.85L480.16,254.57L481.9,254.13L481.94,253.42L484.94,252.92L483.93,248.67L486.25,249.07L486.02,246.3L487.45,243.1L486.73,242.6L486.89,239.25z"/>

</g>
</svg>
