<?xml version="1.0" encoding="utf-8"?>
<!-- (c) ammap.com | SVG map of Spain Provinces - High -->
<svg xmlns="http://www.w3.org/2000/svg" xmlns:amcharts="http://amcharts.com/ammap" xmlns:xlink="http://www.w3.org/1999/xlink" version="1.1">
	<defs>
		<style type="text/css">
			.land
			{
				fill: #CCCCCC;
				fill-opacity: 1;
				stroke:white;
				stroke-opacity: 1;
				stroke-width:0.5;
			}
		</style>

		<amcharts:ammap projection="mercator" leftLongitude="-9.303180" topLatitude="43.793001" rightLongitude="4.312512" bottomLatitude="31.732576"></amcharts:ammap>

		<!-- All areas are listed in the line below. You can use this list in your script. -->
		<!--{id:"divider"},{id:"ES-A"},{id:"ES-AB"},{id:"ES-AL"},{id:"ES-AV"},{id:"ES-B"},{id:"ES-BA"},{id:"ES-BI"},{id:"ES-BU"},{id:"ES-C"},{id:"ES-CA"},{id:"ES-CC"},{id:"ES-CE"},{id:"ES-CO"},{id:"ES-CR"},{id:"ES-CS"},{id:"ES-CU"},{id:"ES-GC"},{id:"ES-GI"},{id:"ES-GR"},{id:"ES-GU"},{id:"ES-H"},{id:"ES-HU"},{id:"ES-J"},{id:"ES-L"},{id:"ES-LE"},{id:"ES-LO"},{id:"ES-LU"},{id:"ES-M"},{id:"ES-MA"},{id:"ES-ML"},{id:"ES-MU"},{id:"ES-NA"},{id:"ES-O"},{id:"ES-OR"},{id:"ES-P"},{id:"ES-PM"},{id:"ES-PO"},{id:"ES-S"},{id:"ES-SA"},{id:"ES-SE"},{id:"ES-SG"},{id:"ES-SO"},{id:"ES-SS"},{id:"ES-TE"},{id:"ES-TF"},{id:"ES-TO"},{id:"ES-T"},{id:"ES-V"},{id:"ES-VA"},{id:"ES-VI"},{id:"ES-Z"},{id:"ES-ZA"}-->

	</defs>
    <g>
    <path id="ES-LU" title="Lugo" class="land" d="M322.93,1.62l0.26,1.39l0.71,0.09l-0.24,1.67l0.61,0.4l0.26,-1.77l1.79,-1.07l0.38,0.71l0.76,-0.55l0.97,0.68l-0.6,0.14l0.22,0.44l3.48,1.32l1.93,3.37l1.5,0.67l-0.65,1.51l0.91,-1.21l6.01,0.52l-0.34,3.48l0,0l-1.54,2l-2.15,-0.14l-0.28,1.62l1.68,0.82l-0.1,1.78l0.9,1.1l1.27,-0.05l-0.06,2.57l1.27,1.29l0.32,-0.4l1.18,0.78l-0.3,1.57l0.72,1.32l2.21,-0.89l0.72,-1.07l1.24,1.64l-1.53,2.18l-1.36,0.75l-0.69,-0.56l-0.86,1.06l0.05,1.12l-0.53,-0.28l-0.47,0.92l1.07,1.21l0.3,-1.28l1.29,1.3l1.18,0.05l1.1,1.3l-0.18,1.24l0.54,0.55l0,0l-0.73,0.03l1.02,1.82l-0.58,-0.47l-1.15,0.34l0.95,2.1l-0.83,1.51l-2.09,1.93l-0.73,-0.59l-0.41,1.25l-1.17,0.06l-1.05,1.2l1.25,2.16l-1.31,0.42l0.4,2.02l-1.07,1.23l-0.25,1.92l0,0l-0.7,2.06l-1.59,1.08l-1.56,4.42l-0.87,-1.38l0.33,-1.16l-2.67,-1.75l-1.93,0.34l-0.9,-0.59l-3.13,1.94l-1.22,0.18l-1.04,-0.85l-1.28,0.85l-2.96,-2.82l-2.32,-0.56l1.25,-0.58l-0.5,-0.57l-1.08,0.57l-2.32,-1.28l-1.16,0.11l0.36,-0.54l-0.69,-0.15l1.04,-1.04l-1.25,-1.18l0,0l1.17,-2.12l0,-2l0.96,-1.19l-3.59,-3.03l0.68,-2.53l-1.33,-0.38l0,0l2.81,-4.27l-1.07,-4.87l0.8,-0.86l-1.37,-4.26l1.21,-3.34l-0.77,-0.69l1.82,-2.11l-0.1,-2.61l2.08,-0.1l0.49,-1.54l0.83,-0.49l1.09,-2.66l-0.13,-2.77l0.95,-0.27l-0.54,-1.57l1.36,-1.41l-0.87,-1.38l0.51,0.04l-0.14,-1.03l0,0l0.55,0l0.12,-0.83L322.93,1.62z"/>

    </g>
</svg>
