<?xml version="1.0" standalone="no"?>
<!DOCTYPE svg PUBLIC "-//W3C//DTD SVG 20010904//EN"
 "http://www.w3.org/TR/2001/REC-SVG-20010904/DTD/svg10.dtd">
<svg version="1.0" xmlns="http://www.w3.org/2000/svg"
 width="1024.000000pt" height="1024.000000pt" viewBox="0 0 1024.000000 1024.000000"
 preserveAspectRatio="xMidYMid meet">
<metadata>
Created by potrace 1.10, written by Peter Selinger 2001-2011
</metadata>
<g transform="translate(0.000000,1024.000000) scale(0.100000,-0.100000)"
fill="#000000" stroke="none">

<path id="ES-AV" title="Avila" class="land" d="M400.05,110.25L404.19,109.08L408.06,111.79L409.56,111.41L409.6,110.35L410.44,109.78L412.41,109.54L412.41,109.54L412.68,113.05L414.98,114.33L415.95,116.78L417.19,117.37L417.4,120.22L418.25,121.32L417.41,122.09L417.8,122.66L419.41,122.33L420.02,124.71L421.34,126.01L421.69,130.4L424.75,129.84L424.75,129.84L426.66,129.6L426.12,128.68L426.12,128.68L428.93,127.8L429.65,128.13L429.65,128.13L429.61,130.81L427.13,131.66L425.67,130.63L425.68,133.18L424.48,134.38L424.86,137.17L424.12,138.62L424.72,139.36L421.62,139.53L420.59,143L419.09,143.2L418.41,142L417.8,142.11L418.33,144.09L417.1,145.52L417.36,146.9L416.8,147.11L416.8,147.11L414.5,147.88L413.49,147.37L413.14,144.51L411.21,145.37L409.89,144.8L409.78,146.39L406.19,149.01L406.17,150.36L405.22,150.47L405.27,150.96L403.47,151.36L403.31,149.44L401.73,149.85L398.61,152.41L397.68,152.49L397.35,151.53L393.57,151.17L393.57,151.17L392.59,149.24L392.54,147.07L393.35,145.24L390.69,145.71L389.43,147.49L387.59,148.02L385.16,147.19L384.79,145.97L383.96,145.82L382.63,144.12L381.25,144.04L381.25,144.04L383.23,141.85L382.67,138.91L384.42,137.36L386.67,136.69L386.25,138.01L387.7,138.89L388.23,137.23L389.59,137.14L390.82,133.5L390.44,133.11L387.78,134.14L388.04,132.34L388.51,131.86L388.55,132.49L390.14,132.57L392.13,130.92L392.65,129.79L392.05,128.87L397.3,125.39L397.16,124.78L398.92,123.12L398.85,120.92L400.33,119.55L399.96,117.46L400.66,117.21L401.12,115.74L399.19,113.02z"/>

</g>
</svg>
