<?xml version="1.0" encoding="utf-8"?>
<!-- (c) ammap.com | SVG map of Spain Provinces - High -->
<svg xmlns="http://www.w3.org/2000/svg" xmlns:amcharts="http://amcharts.com/ammap" xmlns:xlink="http://www.w3.org/1999/xlink" version="1.1">
	<defs>
		<style type="text/css">
			.land
			{
				fill: #CCCCCC;
				fill-opacity: 1;
				stroke:white;
				stroke-opacity: 1;
				stroke-width:0.5;
			}
		</style>

		<amcharts:ammap projection="mercator" leftLongitude="-9.303180" topLatitude="43.793001" rightLongitude="4.312512" bottomLatitude="31.732576"></amcharts:ammap>

		<!-- All areas are listed in the line below. You can use this list in your script. -->
		<!--{id:"divider"},{id:"ES-A"},{id:"ES-AB"},{id:"ES-AL"},{id:"ES-AV"},{id:"ES-B"},{id:"ES-BA"},{id:"ES-BI"},{id:"ES-BU"},{id:"ES-C"},{id:"ES-CA"},{id:"ES-CC"},{id:"ES-CE"},{id:"ES-CO"},{id:"ES-CR"},{id:"ES-CS"},{id:"ES-CU"},{id:"ES-GC"},{id:"ES-GI"},{id:"ES-GR"},{id:"ES-GU"},{id:"ES-H"},{id:"ES-HU"},{id:"ES-J"},{id:"ES-L"},{id:"ES-LE"},{id:"ES-LO"},{id:"ES-LU"},{id:"ES-M"},{id:"ES-MA"},{id:"ES-ML"},{id:"ES-MU"},{id:"ES-NA"},{id:"ES-O"},{id:"ES-OR"},{id:"ES-P"},{id:"ES-PM"},{id:"ES-PO"},{id:"ES-S"},{id:"ES-SA"},{id:"ES-SE"},{id:"ES-SG"},{id:"ES-SO"},{id:"ES-SS"},{id:"ES-TE"},{id:"ES-TF"},{id:"ES-TO"},{id:"ES-T"},{id:"ES-V"},{id:"ES-VA"},{id:"ES-VI"},{id:"ES-Z"},{id:"ES-ZA"}-->

	</defs>
    <g>
        <path id="ES-O" title="Asturias" class="land" d="M378.11,5.51l0.93,1.36h0.88l-0.31,0.63l1,1.19l1.28,0.74l0.57,-0.3l0.18,1.37l1.44,0.13l0.78,-0.75l3.85,0.6l2.61,-0.44l1.7,1.01l1.7,-0.22l2.57,2.62l2.84,-0.48l2.66,1.02l3.37,-0.08l8.36,2.6l4.34,0.33l0,0l-0.81,1.59l0.47,3.25l-0.74,0.4l-0.23,-0.81l-1.57,-0.52l-0.78,1.38l-3.04,0.43l-0.23,2.98l-3.15,0.24l0,0l-1,-2.05l-1.19,-0.3l-1.57,1.02l-1.01,1.65l-2.42,-0.35l-0.79,3.34l-1.41,-0.56l-2.22,1.32l-1.9,0.26l-2.67,-0.72l-0.65,1.89l-2.7,-0.23l-0.47,1.4l-2.34,-0.06l-3.78,-1.41l-1.07,0.58l-1.06,2.98l-1.26,0.36l-3.39,-1.26l-1.29,-1.08l-0.53,-1.94l-1.41,0.42l-1.89,-0.87l-0.46,1.89L369,32.43l-1.28,-1.12l-1.09,0.05l-0.4,1.58l-1.79,-1.15L363.18,32l-1,-1.18l-1.16,0.89l0.08,0.91l-0.51,-0.01l-0.43,1.23l-1.6,-0.18l0.13,1.01l1.21,0.15l0.02,1.02l-1.74,0.81l-6.17,-0.08l-0.97,0.2l-1.04,1.44l-2.07,-1.33l0,0l-0.54,-0.55l0.18,-1.24l-1.09,-1.3l-1.18,-0.05l-1.29,-1.3l-0.3,1.28l-1.07,-1.21l0.47,-0.92l0.53,0.28l-0.05,-1.12l0.86,-1.06l0.69,0.56l1.36,-0.74l1.53,-2.18l-1.24,-1.63l-0.72,1.07l-2.21,0.89l-0.72,-1.31l0.3,-1.57l-1.18,-0.78l-0.32,0.41l-1.27,-1.29l0.06,-2.57l-1.27,0.05l-0.9,-1.1l0.1,-1.78l-1.68,-0.82l0.28,-1.61l2.15,0.14l1.54,-2l0,0l0.63,-2.26l0.76,-0.08L341.6,9.9l1.71,-0.02l0.85,-0.73l4.14,0.87l1.13,-0.61l2.97,0.41l1.58,-0.67l0.89,0.9l1.88,0.33l1.98,-0.14l0.05,-0.9l1.24,0.76l2.29,0.07l3.07,-1.15l0.34,-0.8l1.81,1.43l1.07,-0.28l1.06,0.63l2.99,-1.38l0.73,0.66l1.03,-0.22l1.36,-1.11l0.07,-0.87l1.51,-0.3L378.11,5.51z"/>
    </g>
</svg>
