<?xml version="1.0" encoding="UTF-8" standalone="no"?>
<!-- Created with Inkscape (http://www.inkscape.org/) -->

<svg
   xmlns:dc="http://purl.org/dc/elements/1.1/"
   xmlns:cc="http://creativecommons.org/ns#"
   xmlns:rdf="http://www.w3.org/1999/02/22-rdf-syntax-ns#"
   xmlns:svg="http://www.w3.org/2000/svg"
   xmlns="http://www.w3.org/2000/svg"
   xmlns:sodipodi="http://sodipodi.sourceforge.net/DTD/sodipodi-0.dtd"
   xmlns:inkscape="http://www.inkscape.org/namespaces/inkscape"
   width="50.423897mm"
   height="48.914589mm"
   viewBox="0 0 50.423898 48.914589"
   version="1.1"
   id="svg4551"
   inkscape:version="0.92.3 (2405546, 2018-03-11)"
   sodipodi:docname="ad.svg">
  <defs
     id="defs4545">
    <clipPath
       id="SVG_CP_1">
      <path
         inkscape:connector-curvature="0"
         d="M 0,0 V 413.26299 H 439.51181 V 0 Z"
         id="path6" />
    </clipPath>
    <clipPath
       id="clipPath4541">
      <path
         inkscape:connector-curvature="0"
         d="M 0,0 V 413.26299 H 439.51181 V 0 Z"
         id="path4539" />
    </clipPath>
  </defs>
  <sodipodi:namedview
     id="base"
     pagecolor="#ffffff"
     bordercolor="#666666"
     borderopacity="1.0"
     inkscape:pageopacity="0.0"
     inkscape:pageshadow="2"
     inkscape:zoom="0.98994949"
     inkscape:cx="-86.655402"
     inkscape:cy="-113.36944"
     inkscape:document-units="mm"
     inkscape:current-layer="layer1"
     showgrid="false"
     fit-margin-top="0"
     fit-margin-left="0"
     fit-margin-right="0"
     fit-margin-bottom="0"
     inkscape:window-width="1920"
     inkscape:window-height="1025"
     inkscape:window-x="1920"
     inkscape:window-y="27"
     inkscape:window-maximized="1" />
  <metadata
     id="metadata4548">
    <rdf:RDF>
      <cc:Work
         rdf:about="">
        <dc:format>image/svg+xml</dc:format>
        <dc:type
           rdf:resource="http://purl.org/dc/dcmitype/StillImage" />
        <dc:title></dc:title>
      </cc:Work>
    </rdf:RDF>
  </metadata>
  <g
     inkscape:label="Capa 1"
     inkscape:groupmode="layer"
     id="layer1"
     transform="translate(-2.2913791,-5.6818699)">
    <path
       transform="matrix(0.88624584,0,0,0.82486349,-2.9158824,-138.55814)"
       inkscape:connector-curvature="0"
       clip-path="url(#SVG_CP_1)"
       stroke-miterlimit="10"
       d="m 6.96074,211.47663 -0.24002,-0.24004 -0.48005,0.24004 -0.24003,-0.24004 0.24003,-0.24004 -0.24003,-0.24005 0.24003,-0.48008 v -0.24004 l -0.24003,-0.24004 v -0.24004 h 0.24003 0.24002 v -0.24004 l 0.24003,-0.24005 v -0.24004 -0.24004 h 0.24002 v -0.24004 -0.24004 -0.24004 l 0.24003,-0.24005 v -0.24004 l 0.24003,-0.24004 0.48005,-0.24004 0.24002,-0.24004 0.24003,-0.48009 h 0.24002 l 0.48006,-0.48008 H 9.361 v -0.24004 -0.24004 l 0.24003,-0.24004 h 0.24002 0.24003 v -0.24004 -0.24005 h 0.24002 v -0.24004 h 0.24003 v -0.24004 l 0.24003,-0.24004 h 0.24002 v -0.24004 -0.24004 h 0.24003 l 0.24002,-0.24005 v -0.24004 l 0.24003,-0.24004 v -0.24004 l 0.24002,-0.24004 0.24003,-0.48009 0.24003,-0.24004 0.48005,-0.24004 h 0.24002 0.24003 0.24002 l 0.24003,-0.48008 0.72008,-0.48008 0.48005,-0.24005 h 0.24002 0.24003 v -0.24004 h 0.24002 l 0.24003,-0.24004 h 0.24003 l 0.24002,-0.24004 h 0.24003 v -0.24004 l 0.24002,-0.24004 v -0.24005 h 0.24003 0.24002 0.48006 v 0.24005 l -0.24003,0.24004 v 0.24004 0.24004 h -0.24003 l -0.24002,0.24004 -0.24003,0.48009 v 0.24004 0.24004 h 0.48005 l -0.48005,0.24004 v 0.24004 0.24004 l -0.24002,0.24004 -0.24003,0.72013 v 0.24004 0.48008 h -0.24002 -0.24003 l -0.24003,0.24005 h -0.24002 v 0.24004 h 0.24002 l -0.24002,0.24004 h -0.24003 l -0.24002,0.24004 -0.24003,0.24004 h -0.24002 v -0.24004 -0.24004 h 0.24002 l -0.24002,-0.24004 v 0.24004 h -0.24003 l -0.48005,0.48008 v 0.24004 0.24005 0.24004 h -0.24003 l -0.24002,0.24004 v 0.24004 h 0.24002 -0.24002 v 0.24004 0.24004 0.24004 h -0.24003 v 0.24005 l -0.24002,-0.24005 v 0.24005 0.24004 l -0.24003,0.24004 h -0.24002 -0.24003 0.24003 v 0.24004 0.24004 l -0.24003,0.48009 -0.24003,0.24004 h -0.24002 -0.24003 v 0.24004 h 0.24003 l -0.24003,0.24004 -0.24002,0.48008 v 0.24005 h -0.48005 l -0.24003,0.24004 -0.24003,0.24004 -0.24002,0.24004 H 9.84105 l -0.24002,0.24004 H 9.361 v 0.24004 H 9.12098 8.64092 8.4009 8.16087 L 7.92085,210.7565 7.68082,210.51646 7.4408,210.27642 v 0.24004 H 7.20077 v 0.24004 l 0.24003,0.24005 v 0.24004 H 7.20077 l -0.24003,0.24004"
       id="path508"
       style="fill:#000000;fill-opacity:1" />
    <path
       transform="matrix(0.88624584,0,0,0.82486349,-2.9158824,-138.55814)"
       inkscape:connector-curvature="0"
       clip-path="url(#SVG_CP_1)"
       stroke-miterlimit="10"
       d="m 50.40539,231.88016 h -0.24002 l -0.24003,0.24005 -0.24003,0.24004 -0.24002,-0.24004 v -0.24005 -0.24004 -0.24004 l 0.24002,-0.24004 V 230.92 l 0.24003,-0.24004 v -0.48009 -0.24004 -0.24004 l 0.24003,-0.24004 v -0.24004 h 0.24002 v -0.24005 -0.24004 l 0.24003,-0.24004 v -0.24004 -0.24004 h -0.24003 v -0.24004 l -0.24002,-0.24004 v -0.48009 l -0.24003,-0.24004 h 0.24003 v -0.24004 h -0.24003 0.24003 v -0.24004 h 0.24002 l 0.24003,-0.24004 v -0.24005 -0.24004 l -0.24003,-0.24004 h -0.24002 v 0.24004 0.24004 -0.24004 -0.24004 -0.24004 0.24004 h -0.24003 -0.24003 v 0.24004 h -0.24002 v -0.24004 -0.24004 h -0.24003 v -0.24004 h -0.24002 v 0.24004 -0.24004 h -0.24003 -0.24002 -0.72008 -0.24003 -0.24002 -0.24003 -0.24002 v 0.24004 0.24004 h -0.24003 l -0.24003,0.24004 h -0.24002 l -0.24003,0.24004 H 45.60488 45.36485 45.12483 44.8848 l -0.24002,0.24005 v -0.24005 h -0.24003 l -0.24003,0.24005 -0.24002,0.24004 v 0.24004 h 0.24002 l 0.24003,0.48008 v 0.24004 0.24005 l 0.24003,0.24004 v 0.24004 l 0.24002,0.24004 v 0.48008 h -0.24002 -0.24003 l 0.24003,0.24004 v 0.24005 h -0.24003 v 0.24004 h -0.24003 v 0.24004 0.24004 0.24004 0.24004 0.24005 L 43.9247,230.92 h -0.24003 -0.24002 l -0.24003,0.24004 H 42.9646 l -0.24003,0.24004 h -0.24003 v 0.24004 l -0.24002,0.24004 h -0.24003 l -0.24002,0.24005 h -0.24003 -0.24002 l -0.24003,0.24004 h -0.24003 -0.24002 l -0.24003,0.24004 h -0.24002 l -0.24003,0.24004 -0.24002,0.24004 -0.48006,0.24004 h -0.24002 l -0.48005,0.24004 -0.24003,0.24005 -0.24002,0.24004 -0.24003,-0.24004 h -0.24002 l -0.24003,-0.24005 0.24003,-0.72012 v -0.24004 h 0.24002 v -0.24004 h -0.24002 -0.24003 v -0.24004 h 0.24003 v -0.24005 h -0.24003 v -0.24004 l 0.24003,-0.24004 0.24002,0.24004 h 0.24003 v -0.24004 l 0.24002,-0.24004 V 230.92 h 0.24003 v -0.24004 h -0.24003 v -0.24005 -0.24004 -0.24004 h 0.24003 v -0.24004 h -0.24003 l 0.24003,-0.24004 -0.24003,-0.24004 0.24003,-0.24005 h -0.24003 l 0.24003,-0.24004 -0.24003,-0.24004 v -0.24004 -0.24004 h -0.24002 0.24002 -0.24002 v -0.24004 h -0.24003 -0.24002 -0.72008 v 0.24004 H 36.4839 36.24388 l -0.24003,0.24004 H 35.76383 35.5238 35.28377 35.04375 v 0.24004 l -0.24003,-0.24004 v 0.24004 l -0.24002,-0.24004 v -0.24004 -0.24004 -0.24004 h -0.24003 v -0.24005 -0.24004 -0.24004 h -0.24002 -0.24003 l -0.24003,-0.24004 h 0.24003 v -0.24004 h -0.24003 -0.24002 v 0.24004 h -0.24003 v 0.24004 h 0.24003 l -0.24003,0.24004 h 0.24003 v 0.24004 0.24005 h -0.24003 -0.24002 -0.24003 v 0.24004 h -0.24002 v 0.48008 l -0.24003,0.24004 0.24003,0.24004 h -0.24003 v 0.24004 l -0.48005,0.24005 v 0.24004 h -0.24003 -0.24002 -0.24003 l -0.48005,-0.24004 v 0.24004 h -0.24003 -0.24002 -0.24003 l -0.48005,0.24004 v -0.24004 h -0.24002 l -0.48005,-0.24004 v -0.48009 h 0.24002 v -0.24004 h 0.24003 0.24002 v -0.24004 h 0.24003 v -0.24004 -0.24004 l 0.24002,-0.24004 h -0.24002 v -0.24005 l 0.24002,-0.24004 0.48005,-0.48008 v -0.24004 h 0.24003 v -0.24004 h 0.24003 v 0.24004 h 0.24002 0.24003 v -0.24004 h 0.24002 0.24003 l -0.24003,0.24004 v 0.24004 h 0.24003 l 0.48005,-0.24004 h 0.24003 l 0.24002,-0.24004 0.24003,-0.24005 0.48005,-0.24004 0.24002,-0.24004 h 0.24003 0.24003 l 0.24002,-0.24004 h 0.24003 v -0.24004 h 0.24002 v -0.24004 h 0.24003 l 0.24002,-0.24005 h 0.24003 0.24003 l 0.24002,-0.24004 h 0.24003 v -0.24004 -0.24004 h 0.24002 l 0.24003,-0.24004 0.24002,-0.24004 v -0.24004 l -0.24002,-0.24005 v -0.24004 l 0.24002,0.24004 h 0.24003 0.24003 l 0.24002,-0.24004 h 0.24003 v -0.24004 h 0.24002 v -0.24004 -0.24004 l -0.24002,-0.24004 -0.48005,-0.24005 -0.48006,-0.24004 H 36.72393 36.4839 l -0.24002,0.24004 h -0.24003 v 0.24005 l 0.24003,0.48008 h -0.24003 0.24003 l -0.24003,-0.48008 h -0.24002 l 0.24002,0.24004 -0.24002,-0.24004 v 0.24004 l -0.24003,-0.24004 v 0.24004 l 0.24003,0.24004 H 35.5238 v -0.48008 l -0.24003,0.24004 0.24003,0.48008 h 0.24003 -0.24003 l -0.24003,-0.48008 h -0.24002 -0.24003 0.24003 l -0.24003,0.24004 -0.24002,0.24004 v -0.24004 h -0.24003 l -0.24002,0.24004 v 0.24004 0.24004 0.24005 l -0.24003,0.24004 0.48005,0.48008 h -0.24002 l -0.24003,-0.48008 h -0.24003 -0.24002 l 0.24002,-0.24004 h -0.24002 -0.24003 v 0.24004 h -0.24002 -0.24003 0.24003 -0.24003 -0.24002 -0.24003 -0.24003 -0.24002 -0.24003 l -0.24002,-0.24004 v -0.24005 -0.24004 h -0.24003 0.24003 v -0.24004 h -0.24003 v -0.24004 h -0.24002 -0.24003 -0.24003 v -0.24004 l -0.24002,0.24004 0.24002,-0.24004 v -0.24004 -0.24005 -0.24004 -0.24004 h -0.24002 v -0.24004 -0.24004 -0.24004 -0.24005 -0.24004 -0.24004 l -0.24003,-0.24004 v -0.24004 h -0.24002 v -0.24004 h -0.24003 v 0.24004 -0.24004 -0.24004 l -0.24002,-0.24005 -0.24003,0.24005 -0.24002,0.24004 -0.24003,0.24004 h 0.24003 v 0.24004 h -0.24003 v -0.24004 H 28.083 27.84298 v -0.24004 h -0.24003 v 0.24004 h -0.24002 l -0.24003,-0.24004 v -0.48009 -0.24004 -0.24004 h -0.24002 l -0.24003,-0.24004 H 26.40282 26.1628 v -0.24004 H 25.92277 25.68275 25.44272 25.2027 24.96267 l -0.24003,0.24004 v -0.24004 l -0.24002,-0.24004 h 0.24002 l 0.24003,-0.24005 v -0.24004 l 0.24003,-0.24004 h 0.24002 l -0.24002,-0.24004 v -0.24004 -0.24004 -0.24005 l -0.24003,-0.24004 h 0.24003 l -0.24003,-0.24004 -0.24003,-0.24004 h -0.24002 l -0.24003,-0.24004 h -0.24002 -0.24003 l 0.24003,0.24004 -0.24003,0.24004 h -0.24002 -0.24003 v -0.24004 l -0.24003,0.24004 h -0.24002 l -0.24003,-0.24004 h -0.24002 -0.24003 v -0.24004 h -0.24002 l -0.24003,-0.24004 h 0.24003 l 0.24002,-0.24004 0.24003,-0.24005 h -0.24003 v -0.24004 l 0.24003,-0.24004 0.24002,-0.24004 v -0.24004 -0.24004 l 0.24003,-0.24005 0.24002,-0.24004 v -0.24004 l 0.24003,-0.24004 h 0.24003 v -0.24004 -0.24004 -0.24005 h -0.24003 v -0.24004 l 0.24003,-0.24004 h 0.24002 v -0.24004 h 0.24003 v -0.24004 h -0.24003 -0.24002 l 0.24002,-0.24004 v -0.24004 l -0.24002,-0.24005 h 0.24002 v -0.24004 l 0.24003,-0.24004 0.24002,-0.24004 -0.24002,-0.48008 -0.24003,-0.24005 h -0.48005 l -0.24003,-0.24004 h -0.24002 -0.24003 l -0.24002,-0.24004 v -0.24004 -0.24004 l 0.24002,-0.24004 h -0.24002 v -0.24005 h -0.24003 l 0.24003,-0.24004 h -0.24003 -0.24002 v -0.24004 l 0.24002,-0.24004 v -0.48008 h -0.24002 -0.24003 l -0.24003,0.24004 h -0.24002 l -0.24003,-0.24004 v -0.24004 l -0.24002,-0.24005 v -0.24004 -0.24004 -0.24004 -0.24004 l -0.24003,0.24004 v -0.24004 l 0.24003,-0.24004 v -0.24005 -0.24004 l 0.24002,-0.24004 v -0.48008 l -0.24002,-0.24004 0.24002,-0.24005 v -0.24004 l 0.48005,-0.48008 v -0.24004 -0.24004 h -0.24002 0.24002 v -0.24004 h -0.24002 v -0.24005 -0.24004 h 0.24002 0.24003 v -0.24004 l 0.48005,-0.48008 0.24003,0.24004 0.24002,-0.24004 h 0.24003 0.24002 0.24003 v 0.24004 h 0.24003 0.24002 l 0.24003,-0.24004 v -0.24004 l -0.24003,-0.24005 v -0.24004 h 0.24003 v -0.24004 l 0.24002,-0.48008 v -0.24004 l -0.24002,-0.48009 v -0.24004 -0.48008 -0.24004 -0.72013 -0.48008 h 0.24002 0.24003 0.24002 0.24003 0.24003 v -0.24004 -0.24004 l 0.24002,-0.24005 v -0.24004 l 0.48005,-0.24004 v -0.24004 -0.24004 h 0.24003 v -0.24004 h 0.24002 v -0.24005 h 0.24003 v -0.24004 h 0.24003 0.24002 l 0.24003,-0.24004 h 0.24002 v -0.24004 -0.24004 h 0.24003 l 0.24002,-0.24004 v -0.24004 -0.24005 l 0.24003,-0.24004 0.24003,-0.24004 0.24002,0.24004 h 0.24003 0.24002 l 0.24003,0.48009 h 0.48005 0.24002 l 0.24003,-0.24005 h 0.24003 l 0.24002,-0.24004 v -0.24004 h 0.24003 0.24002 0.24003 l 0.24002,0.24004 h 0.24003 v -0.24004 h 0.24003 0.24002 l 0.24003,0.24004 h 0.24002 0.24003 0.24002 0.24003 0.24003 l 0.24002,-0.24004 v -0.24004 l 0.24003,-0.24004 0.24002,-0.24004 0.24003,-0.24005 0.24002,-0.24004 h 0.24003 v -0.24004 h 0.24003 l 0.24002,-0.24004 h 0.24003 v -0.24004 h 0.24002 0.24003 0.24002 0.24003 l 0.24003,-0.24004 v 0.24004 h 0.24002 0.24003 v -0.24004 -0.24005 l -0.24003,-0.24004 v -0.24004 l 0.24003,-0.24004 h 0.24002 l 0.24003,-0.24004 0.24002,-0.24004 v -0.24004 h 0.24003 0.24002 l 0.24003,0.24004 v 0.24004 l 0.24003,-0.24004 0.24002,-0.24004 v -0.24005 h 0.48005 l 0.24003,-0.24004 0.48005,-0.48008 v -0.24004 h 0.24003 0.24002 v -0.24004 l 0.24003,-0.24005 0.24002,-0.24004 v 0.24004 h 0.24003 v -0.24004 l 0.24002,-0.24004 v -0.24004 h 0.24003 v -0.24004 h 0.48005 l 0.24003,-0.48008 v -0.24005 l 0.24002,-0.24004 h 0.24003 0.24002 v -0.24004 h 0.24003 0.24003 v -0.24004 h 0.24002 v -0.24004 l 0.24003,-0.24004 v 0.24004 l 0.48005,-0.24004 h 0.24002 0.24003 l 0.24002,-0.24005 h 0.24003 0.24003 0.24002 0.24003 v -0.24004 -0.24004 -0.48008 -0.24004 h 0.24002 v -0.24005 h -0.24002 0.24002 v -0.24004 h -0.24002 v -0.24004 -0.24004 h -0.24003 v -0.24004 -0.24004 h -0.24002 v -0.24004 l 0.24002,-0.24005 h 0.24003 0.24002 0.24003 v -0.24004 -0.24004 -0.24004 h -0.24003 v -0.24004 h 0.24003 v 0.24004 h 0.24002 0.24003 0.24003 l 0.24002,-0.24004 0.24003,-0.24004 h 0.24002 l 0.24003,-0.24005 0.24002,-0.24004 v -0.24004 h 0.24003 v -0.24004 l 0.24003,-0.24004 v -0.24004 h 0.24002 0.24003 0.24002 v -0.24005 h 0.24003 l 0.72008,-0.72012 h 0.24002 v 0.24004 h 0.24003 l 0.24002,0.24004 0.24003,0.24004 0.24002,0.24005 v 0.24004 l -0.24002,0.24004 0.24002,0.24004 0.24003,0.96017 v 0.24004 h 0.24003 0.24002 l 0.24003,0.24004 h 0.48005 0.24002 l 0.48005,0.24004 0.48006,0.24004 v 0.24005 l 0.48005,0.24004 0.24002,0.24004 h 0.24003 l -0.24003,0.24004 v 0.48008 0.24004 0.24005 0.24004 0.24004 l 0.24003,0.48008 v 0.24004 l -0.24003,0.72013 -0.24002,0.96017 0.24002,0.48008 v 0.24004 0.24004 0.24004 0.24004 l 0.24003,0.24005 v 0.24004 0.24004 l 0.48005,0.96017 0.24003,0.24004 0.24002,0.24004 0.24003,0.24004 h 0.24002 l 0.48005,0.48008 h 0.24003 v 0.48009 l 0.24003,0.24004 v 0.24004 0.48008 0.24004 0.24005 0.24004 h 0.24002 l 0.24003,0.24004 0.24002,0.24004 0.24003,0.24004 h 0.24002 l 0.24003,0.24004 v 0.48009 0.24004 0.48008 0.48008 0.24005 0.24004 l 0.24003,0.24004 0.24002,0.24004 v 0.24004 0.24004 0.24005 H 60.7265 v 0.24004 h -0.24003 l 0.24003,0.48008 h 0.24002 0.24003 v 0.24004 0.24004 0.48009 l -0.24003,0.72012 0.24003,0.48008 0.24002,0.24005 v 0.24004 l 0.24003,0.24004 0.24002,0.96017 0.24003,0.48008 -0.24003,0.48008 v 0.24004 0.48009 l 0.24003,0.24004 v 0.24004 l 0.24003,0.24004 h 0.24002 v 0.48008 l -0.24002,0.24005 -0.24003,0.24004 -0.24003,0.24004 v 0.24004 l -0.24002,0.24004 -0.24003,0.24004 -0.24002,0.48009 v 0.72012 l -0.24003,0.48009 v 0.24004 H 60.7265 60.48647 60.24644 59.76639 l -0.72007,-0.24004 h -0.24003 v 0.24004 h -0.24003 l -0.24002,0.24004 h -0.24003 -0.24002 -0.72008 l -0.48005,0.24004 h -0.24003 l -0.72007,1.68029 v 1.68029 0.24004 0.24005 l 0.24002,0.24004 -0.24002,0.24004 v 0.24004 0.24004 h -0.24003 v 0.48008 l -0.24003,0.72013 v 0.24004 l 0.24003,0.24004 0.24003,0.24004 h 0.24002 0.24003 l 0.9601,0.96017 1.68018,0.48008 0.24003,0.96017 0.24002,0.48008 1.20013,-0.24004 -0.24003,0.24004 v 0.24004 l -0.24002,0.48009 -0.24003,0.24004 -0.24002,0.24004 -0.24003,0.24004 v 0.24004 h -0.24002 v 0.24005 l -0.48006,0.24004 -0.24002,0.24004 -0.24003,0.24004 h -0.24002 -0.24003 v 0.24004 l -0.24002,0.24004 -0.24003,0.48009 v 0.24004 0.48008 0.24004 0.24004 l -0.24003,0.24005 -0.24002,0.24004 -0.24003,0.24004 -0.48005,0.72012 h -0.24002 l -0.24003,0.24005 -0.24003,0.24004 h -0.24002 l -0.72008,0.48008 v 0.24004 l -0.24002,0.24004 -0.24003,0.24005 v 0.48008 l 0.24003,0.24004 -0.24003,0.24004 v 0.24004 0.24004 0.24005 l -0.24002,0.48008 -0.48006,0.48008 h -0.24002 l -0.48005,0.48009 -0.24003,0.24004 -0.24002,0.48008 v 0.72013 0.24004 0.24004 l -0.24003,0.24004 v 0.48008 l -0.24003,0.24004 h 0.24003 v 0.24005 l -0.24003,0.24004 -0.24002,0.24004 -0.24003,0.48008 -0.24002,0.48009 v 0.48008 l -0.24003,0.48008 v 0.24004"
       id="path510"
       style="fill:#000000;fill-opacity:1" />
  </g>
</svg>
