<?xml version="1.0" encoding="UTF-8" standalone="no"?>
<!-- Created with Inkscape (http://www.inkscape.org/) -->

<svg
   xmlns:dc="http://purl.org/dc/elements/1.1/"
   xmlns:cc="http://creativecommons.org/ns#"
   xmlns:rdf="http://www.w3.org/1999/02/22-rdf-syntax-ns#"
   xmlns:svg="http://www.w3.org/2000/svg"
   xmlns="http://www.w3.org/2000/svg"
   xmlns:sodipodi="http://sodipodi.sourceforge.net/DTD/sodipodi-0.dtd"
   xmlns:inkscape="http://www.inkscape.org/namespaces/inkscape"
   width="50.423897mm"
   height="48.914589mm"
   viewBox="0 0 50.423898 48.914589"
   version="1.1"
   id="svg4551"
   inkscape:version="0.92.3 (2405546, 2018-03-11)"
   sodipodi:docname="ca.svg">
  <defs
     id="defs4545">
    <clipPath
       id="SVG_CP_1">
      <path
         inkscape:connector-curvature="0"
         d="M 0,0 V 413.26299 H 439.51181 V 0 Z"
         id="path6" />
    </clipPath>
    <clipPath
       id="clipPath4541">
      <path
         inkscape:connector-curvature="0"
         d="M 0,0 V 413.26299 H 439.51181 V 0 Z"
         id="path4539" />
    </clipPath>
    <clipPath
       id="SVG_CP_1-3">
      <path
         inkscape:connector-curvature="0"
         d="M 0,0 V 413.26299 H 439.51181 V 0 Z"
         id="path6-6" />
    </clipPath>
    <clipPath
       id="SVG_CP_1-7">
      <path
         inkscape:connector-curvature="0"
         d="M 0,0 V 413.26299 H 439.51181 V 0 Z"
         id="path6-5" />
    </clipPath>
    <clipPath
       id="SVG_CP_1-35">
      <path
         inkscape:connector-curvature="0"
         d="M 0,0 V 413.26299 H 439.51181 V 0 Z"
         id="path6-62" />
    </clipPath>
    <clipPath
       id="SVG_CP_1-9">
      <path
         inkscape:connector-curvature="0"
         d="M 0,0 V 413.26299 H 439.51181 V 0 Z"
         id="path6-1" />
    </clipPath>
    <clipPath
       id="SVG_CP_1-2">
      <path
         inkscape:connector-curvature="0"
         d="M 0,0 V 413.26299 H 439.51181 V 0 Z"
         id="path6-7" />
    </clipPath>
    <clipPath
       id="SVG_CP_1-0">
      <path
         inkscape:connector-curvature="0"
         d="M 0,0 V 413.26299 H 439.51181 V 0 Z"
         id="path6-9" />
    </clipPath>
    <clipPath
       id="SVG_CP_1-36">
      <path
         inkscape:connector-curvature="0"
         d="M 0,0 V 413.26299 H 439.51181 V 0 Z"
         id="path6-0" />
    </clipPath>
  </defs>
  <sodipodi:namedview
     id="base"
     pagecolor="#ffffff"
     bordercolor="#666666"
     borderopacity="1.0"
     inkscape:pageopacity="0.0"
     inkscape:pageshadow="2"
     inkscape:zoom="0.98994949"
     inkscape:cx="-86.655402"
     inkscape:cy="-113.36944"
     inkscape:document-units="mm"
     inkscape:current-layer="layer1"
     showgrid="false"
     fit-margin-top="0"
     fit-margin-left="0"
     fit-margin-right="0"
     fit-margin-bottom="0"
     inkscape:window-width="1920"
     inkscape:window-height="1025"
     inkscape:window-x="1920"
     inkscape:window-y="27"
     inkscape:window-maximized="1" />
  <metadata
     id="metadata4548">
    <rdf:RDF>
      <cc:Work
         rdf:about="">
        <dc:format>image/svg+xml</dc:format>
        <dc:type
           rdf:resource="http://purl.org/dc/dcmitype/StillImage" />
        <dc:title></dc:title>
      </cc:Work>
    </rdf:RDF>
  </metadata>
  <g
     inkscape:label="Capa 1"
     inkscape:groupmode="layer"
     id="layer1"
     transform="translate(-2.2913791,-5.6818699)">
    <path
       inkscape:connector-curvature="0"
       style="fill:#000000;fill-opacity:1"
       d="M 16.967394,6.1422456 V 6.2797715 L 16.709548,6.400104 v 0.1375259 h -0.137526 l -0.137526,0.1375259 -0.120333,0.5328791 -0.395362,0.9110514 v 0.1375259 l 0.120333,0.257846 -0.532879,0.1375259 -0.395362,-0.1375259 v 0.5328791 h -0.120332 l -0.137526,0.1375259 v 0.1203325 l -0.137526,0.1375052 -0.257846,0.2578439 -0.395362,0.2750351 -0.137525,0.5328791 0.137525,0.257846 v 0.137526 0.120333 0.137525 0.137526 l 0.137526,0.120333 v 0.137526 0.137526 l 0.257846,0.515687 0.137526,0.137526 0.120333,0.137526 0.137526,0.120333 h 0.137526 l 0.257844,0.275035 h 0.137525 v 0.257846 l 0.120333,0.137526 v 0.137526 0.257844 0.137525 0.120333 0.137526 h 0.137505 l 0.137526,0.137526 0.137526,0.120332 0.120332,0.137526 h 0.137526 l 0.137526,0.137526 v 0.257844 0.137526 0.257844 0.257846 0.137526 0.137526 l 0.120333,0.120332 0.137526,0.137526 v 0.137526 0.137526 0.120333 H 16.43456 v 0.137525 h -0.120333 l 0.120333,0.257844 h 0.137526 0.137526 v 0.137526 0.137526 0.257846 l -0.137526,0.395362 0.137526,0.257844 0.120333,0.137525 v 0.137526 l 0.137525,0.120333 0.137526,0.532879 0.120333,0.275033 -0.120333,0.257846 v 0.137526 0.257844 l 0.120333,0.137526 v 0.120332 l 0.137526,0.137526 h 0.137526 v 0.257846 l -0.137526,0.137526 -0.137526,0.137526 -0.120333,0.120333 v 0.137526 l -0.137526,0.137525 -0.137525,0.120333 -0.120333,0.275035 v 0.395362 l -0.137526,0.257846 v 0.137526 H 16.43456 16.314227 16.176701 15.918857 l -0.412552,-0.137526 h -0.120333 v 0.137526 h -0.137526 l -0.137526,0.137505 h -0.120332 -0.137505 -0.395364 l -0.257844,0.120332 h -0.137526 l -0.395361,0.928241 v 0.928242 0.120333 0.137526 l 0.137526,0.137526 -0.137526,0.120332 v 0.137526 0.137526 h -0.137526 v 0.257846 l -0.120333,0.395362 v 0.137526 l 0.120333,0.137525 0.137526,0.120333 h 0.137526 0.120332 l 0.532879,0.532879 0.928241,0.257846 0.120332,0.532879 0.137526,0.257844 0.670397,-0.120332 -0.137526,0.120332 v 0.137526 l -0.137526,0.275035 -0.120332,0.120333 -0.137526,0.137526 -0.137526,0.137526 v 0.120332 h -0.137526 v 0.137526 l -0.257846,0.137526 -0.137526,0.120332 -0.120332,0.137526 h -0.137526 -0.137526 v 0.137526 l -0.120333,0.120333 -0.137526,0.275035 v 0.120333 0.275035 0.120332 0.137526 l -0.137526,0.137505 -0.120332,0.120333 -0.137526,0.137526 -0.257844,0.395361 H 13.66689 l -0.137526,0.137526 -0.120332,0.137526 h -0.137526 l -0.395362,0.257844 v 0.137526 l -0.137526,0.120332 -0.120332,0.137526 v 0.257844 l 0.120332,0.137526 -0.120332,0.137526 v 0.120333 0.137526 0.137525 l -0.137526,0.257844 -0.275035,0.257846 h -0.120333 l -0.275035,0.275033 -0.120333,0.120333 -0.137526,0.275035 v 0.395362 0.137526 0.120332 l -0.137525,0.137526 v 0.257846 l -0.120333,0.137526 h 0.120333 v 0.137505 l -0.120333,0.120333 -0.137526,0.137525 -0.137526,0.257844 -0.120332,0.275036 v 0.257843 l -0.137526,0.257846 0.137526,0.137526 v 0.137505 h 0.120332 0.137526 L 11.29464,37.17024 v -0.137526 h 0.120333 v -0.120332 l 0.137525,-0.137526 V 36.63733 h 0.137526 v -0.120332 -0.137526 l 0.120333,-0.137526 v -0.120333 h 0.137526 v -0.137526 h 0.137526 0.120332 0.137526 v 0.137526 h 0.137526 v -0.137526 -0.137526 -0.120332 l -0.137526,0.120332 v -0.120332 l 0.137526,-0.137505 h 0.137526 v 0.137505 0.120332 0.137526 h 0.120333 l 0.137525,0.137526 h 0.137526 0.120333 0.137526 0.137526 0.120332 v -0.137526 h 0.137526 v -0.137526 h 0.137526 v -0.120332 h 0.120333 0.137526 0.137525 l 0.120333,-0.137505 h -0.120333 l -0.137525,-0.137526 v -0.120333 -0.137526 l -0.137526,-0.137526 v -0.120332 -0.137526 -0.137526 l 0.137526,0.137526 h 0.137525 v -0.137526 h -0.137525 v -0.120332 h 0.137525 l 0.120333,-0.137526 h 0.137526 l 0.137526,-0.137526 h 0.120332 l 0.137526,-0.137526 h 0.137526 l 0.257846,-0.120333 h 0.137526 0.120333 0.137526 V 33.86966 h 0.137525 0.137526 V 33.732134 33.611802 L 16.03924,33.474276 V 33.33675 l 0.137526,-0.120332 h 0.137526 v 0.120332 l 0.120333,-0.120332 h 0.137526 v 0.120332 0.137526 l 0.137525,-0.137526 0.120333,0.137526 v 0.137526 h 0.137526 v 0.120332 h -0.137526 v 0.137526 h -0.120333 v 0.137526 h 0.120333 0.137526 0.137526 0.120332 l -0.120332,-0.137526 0.120332,-0.137526 h 0.137526 v 0.137526 l 0.257844,0.137526 h 0.137526 v 0.120333 l 0.137526,0.275035 v 0.137526 h 0.120333 v 0.120332 h 0.137525 l -0.137525,0.137526 0.137525,0.137526 v -0.137526 h 0.137526 v 0.137526 0.120333 h 0.120333 v 0.137526 h 0.137526 l 0.137526,0.137526 v 0.120332 h 0.137526 v 0.137526 0.137505 0.120333 0.137526 0.137526 h 0.120332 0.137526 0.137526 l 0.120333,-0.137526 v 0.137526 h 0.137525 v 0.120332 h 0.137526 v 0.137526 0.137526 0.120332 l 0.120333,0.275036 h 0.137526 0.137526 v 0.120332 l -0.137526,0.137526 -0.137526,0.137505 v 0.137526 0.120333 l 0.137526,0.137526 v 0.137525 h 0.137526 0.120332 v -0.137525 h 0.137526 0.137526 0.120333 0.137526 0.137525 v -0.137526 h 0.120333 0.137526 v 0.137526 0.137525 h 0.137526 0.120332 0.275036 v -0.137525 h 0.120332 0.137526 v 0.137525 l 0.137526,-0.137525 v 0.137525 h 0.137526 0.120332 l 0.137526,-0.137525 v 0.137525 h 0.137526 v 0.120333 0.137526 0.395361 0.395364 0.137526 h -0.137547 -0.137525 -0.120333 v 0.120332 l -0.137526,-0.120332 v 0.120332 h -0.137526 -0.137526 l -0.120332,-0.120332 h -0.137526 v 0.120332 h -0.137526 v 0.137526 h -0.120333 l -0.137526,0.137526 h 0.137526 v 0.120333 H 21.058852 L 20.921327,39.422116 H 20.800994 20.663468 20.525942 20.40561 20.268084 20.130558 l 0.137526,-0.137526 h -0.137526 -0.120333 -0.137526 v 0.137526 h -0.137526 v 0.120333 h 0.137526 l 0.137526,0.137526 h 0.120333 v 0.137526 l 0.137526,-0.137526 v 0.137526 H 20.130558 20.010225 L 19.872699,39.679975 19.735173,39.542449 H 19.614841 V 39.422116 39.28459 39.147064 l -0.137526,0.137526 v 0.137526 0.120333 h -0.137526 -0.120332 v 0.137526 h -0.137526 l -0.137526,0.137526 -0.120333,0.120332 h -0.137526 v 0.137526 H 18.54902 v 0.137526 h -0.137526 v 0.257846 h 0.137526 v 0.137505 0.137526 l 0.137526,0.120333 H 18.54902 18.411494 l 0.137526,0.137525 h -0.137526 v 0.137526 h -0.120332 v 0.120333 h -0.137526 v 0.137526 H 18.01611 l -0.120332,0.137526 v 0.120332 h 0.120332 0.137526 0.137526 v -0.120332 h 0.120332 0.137526 0.137526 v 0.120332 h 0.137526 l 0.120333,0.137526 v 0.137526 0.120333 0.137526 h -0.120333 v 0.257843 0.137526 h -0.137526 v 0.137526 0.120333 0.137526 0.137526 h 0.137526 0.120333 0.137526 0.137526 0.120332 l 0.137526,0.137526 h 0.137526 v 0.120332 h 0.120332 v 0.137526 0.137526 h 0.137526 l 0.137526,0.120332 h 0.120333 v 0.137526 l 0.137526,0.137526 h 0.137526 v 0.120333 h -0.137526 -0.137526 -0.120333 v 0.137526 l 0.120333,0.137526 h -0.120333 l 0.120333,0.120332 v 0.137526 l 0.137526,-0.137526 v 0.137526 l 0.137526,0.137526 v 0.257844 0.137526 h 0.120332 0.137526 l 0.137526,-0.137526 0.120333,-0.137526 v -0.120333 h 0.137525 l 0.137526,-0.137525 0.120333,-0.137526 v -0.120333 -0.137526 h 0.137526 0.137526 0.120332 l 0.275035,0.137526 h 0.137526 0.120333 l 0.137526,0.120333 v -0.120333 l 0.137526,0.120333 0.257844,0.137526 v 0.137525 0.120333 l -0.137526,0.137526 v 0.137526 0.257846 0.137526 l -0.120333,-0.137526 v 0.137526 0.120332 h 0.120333 l -0.120333,0.137526 H 22.3825 v 0.257844 0.137526 0.137526 h 0.137526 v 0.137526 L 22.3825,46.676471 h -0.137526 v 0.137526 0.137526 l 0.275036,0.257844 v 0.137526 0.120333 0.137525 l 0.120332,0.137526 V 47.86261 H 22.52001 l 0.120332,0.137526 H 22.52001 l 0.120332,0.137526 v 0.120332 l 0.137526,0.137526 v 0.137526 h 0.137526 0.120332 0.137526 0.137526 0.120333 0.137526 v 0.120333 0.137526 l -0.137526,0.137505 v 0.257846 h 0.137526 l -0.137526,0.137526 v 0.257843 l -0.120333,0.137526 -0.137526,0.257844 v 0.137526 0.137526 h -0.137526 v 0.120333 l -0.120332,0.137526 v 0.137525 l -0.137526,0.120333 v 0.137526 l -0.137526,0.137526 v 0.120332 L 22.52001,51.300674 V 51.4382 l 0.120332,-0.137526 0.137526,-0.137526 v -0.120332 h 0.137526 l 0.120332,-0.137526 0.137526,-0.137526 v -0.120333 h 0.137526 0.120333 V 50.509906 50.37238 l 0.137526,-0.120333 h 0.137526 v -0.137526 h 0.120332 v -0.137526 h 0.137526 l 0.137526,-0.120332 0.120333,-0.137526 h 0.137525 l 0.137526,-0.137526 v 0.137526 h 0.120333 v -0.137526 -0.120333 h 0.137526 v 0.120333 l 0.137526,-0.120333 v 0.120333 l 0.137526,-0.120333 h 0.120332 l 0.275035,0.120333 v 0.137526 h 0.120312 l 0.137526,0.137526 h 0.137526 v -0.137526 h 0.120333 l 0.137525,0.137526 -0.137525,0.120332 h 0.137525 0.137526 v 0.137526 h 0.120333 0.137526 v 0.137526 h 0.137526 v 0.120333 l 0.120332,-0.120333 v 0.120333 0.137526 h 0.137526 0.137526 0.120333 0.137526 l -0.137526,0.137525 h 0.137526 l 0.137525,0.120333 v 0.137526 h 0.120333 l -0.120333,0.137526 v 0.257844 0.137526 h 0.120333 v 0.120332 h 0.137526 l -0.137526,0.137526 v 0.137526 0.120333 H 27.40211 v 0.137525 0.137506 l 0.120333,0.137525 v -0.137525 h 0.137526 v 0.137525 l 0.137526,0.120333 v -0.120333 l 0.120332,-0.137525 h 0.137526 v 0.137525 h 0.137526 v -0.137525 l 0.137526,-0.137506 h 0.120333 0.137526 l 0.137505,0.137506 v 0.137525 l 0.257846,-0.137525 v 0.137525 0.120333 h 0.137526 l 0.257843,0.275033 h -0.137525 l 0.137525,0.120333 v 0.137526 h 0.137526 0.120333 0.137526 v -0.137526 h 0.137526 0.120332 v -0.120333 l 0.137526,0.120333 h 0.137526 0.120333 0.137526 0.137525 0.120333 0.137526 v 0.137526 h 0.137526 v 0.137525 h 0.120332 v -0.137525 h 0.137526 0.137526 0.137526 v -0.137526 h 0.120333 l 0.137526,0.137526 v 0.137525 l 0.137505,0.120333 v -0.120333 h 0.120332 v -0.137525 h -0.120332 l 0.120332,-0.137526 v -0.257844 l 0.137526,-0.137526 v -0.120333 -0.137526 h -0.137526 -0.120332 v -0.137505 h -0.137505 -0.137526 l -0.257846,-0.137526 h -0.137526 v -0.120332 h 0.137526 0.137526 0.120332 V 51.69604 l 0.137526,-0.257844 V 51.30067 h -0.137526 v -0.137713 h 0.137526 l -0.137526,-0.120332 v -0.137526 -0.137526 -0.257846 -0.137526 h 0.137526 v -0.120333 -0.275035 -0.120332 h 0.137505 V 49.718975 49.581449 49.461116 49.32359 h -0.137505 -0.137526 v 0.137526 H 31.630971 L 31.355935,49.32359 v -0.137526 h 0.137526 v -0.137526 -0.120332 -0.137505 h -0.137526 v -0.137526 h -0.137526 v -0.120333 h 0.137526 l 0.137526,0.120333 v -0.120333 l -0.137526,-0.137526 v -0.137525 l 0.275036,0.137525 h 0.120332 0.137526 l -0.137526,0.137526 h 0.137526 0.137505 0.120333 0.137526 l -0.137526,0.120333 v 0.137526 h 0.137526 l 0.137525,-0.137526 0.120333,-0.120333 v -0.137526 -0.137525 -0.120333 l -0.120333,-0.137526 v -0.137526 -0.120332 l -0.137525,-0.137526 v -0.137526 l 0.137525,-0.120333 h 0.120333 l 0.137526,0.120333 0.137526,-0.120333 h 0.120332 v -0.137526 h 0.137526 l 0.137526,-0.137505 V 46.951326 46.8138 h 0.120333 v -0.137526 -0.120333 -0.137526 -0.137526 h -0.120645 v -0.137525 h 0.120333 l 0.137526,-0.120333 v 0.120333 h 0.137526 v -0.120333 -0.137526 h 0.120332 v -0.137526 -0.120332 -0.137526 -0.01726 h 0.03439 0.103139 0.01726 l 0.240655,0.01726 0.137526,-0.137526 v -0.120333 h 0.137525 l -0.137525,-0.137526 h 0.137525 V 44.957211 44.836878 44.699352 L 34.260855,44.561826 V 44.441494 44.166458 44.046126 43.9086 L 34.39838,43.650756 34.260855,43.51323 h -0.137526 v -0.137526 -0.120332 h -0.257844 -0.137526 v -0.137526 h 0.137526 V 42.98032 h 0.137526 0.120332 v -0.137526 h 0.137526 V 42.722461 42.584935 L 34.123343,42.44741 h 0.137526 V 42.327077 42.189572 42.052046 41.931713 41.794188 H 34.123343 V 41.656662 41.536329 H 34.003011 33.865485 L 33.727959,41.398803 V 41.261277 41.140945 L 33.607626,41.003419 H 33.4701 v -0.137526 -0.257846 -0.137505 h 0.137526 l 0.120333,-0.257846 V 40.07517 39.937644 h 0.137526 v -0.120333 l 0.137526,-0.137525 h 0.120332 l 0.137526,-0.137526 h 0.137526 l 0.395361,-0.120333 h 0.137526 v 0.120333 h 0.120333 0.137526 0.137526 l 0.395363,-0.257844 h 0.120333 V 39.14689 39.026557 h 0.137526 l 0.137526,-0.137526 V 38.751505 H 35.979889 L 35.842363,38.631173 H 35.72203 35.584504 35.446979 35.326646 L 35.18912,38.493647 H 35.051594 34.931262 34.793736 34.65621 v 0.137526 H 34.535877 L 34.398351,38.493647 34.260825,37.960768 H 34.1233 v -0.120333 -0.137526 l 0.137525,-0.137525 H 34.1233 l -0.120333,-0.120333 -0.137526,-0.137526 v -0.27547 l 0.137526,-0.395363 V 36.516359 L 34.1233,36.378833 h 0.137525 L 34.398351,36.241307 34.260825,36.120975 34.1233,35.983449 v -0.137526 l 0.412552,-0.257844 v -0.137526 h 0.120333 0.137526 0.137526 l -0.137526,0.137526 h 0.137526 0.120332 0.137526 0.137526 0.120333 l 0.137525,-0.137526 v -0.257846 h 0.137526 v -0.137526 h 0.120333 l 0.137526,-0.120332 h 0.137526 v 0.120332 h 0.120332 v -0.120332 h 0.274867 l 0.120333,-0.137526 v -0.137526 h 0.137526 v 0.137526 h 0.137505 v 0.137526 l 0.120332,0.120332 h 0.137526 l -0.137526,-0.120332 h 0.137526 0.137526 v -0.137526 l -0.137526,-0.137526 h 0.137526 l -0.137526,-0.120333 v -0.137525 l 0.137526,-0.137526 v -0.137526 l 0.120333,0.137526 0.137525,-0.137526 h 0.137526 l 0.137526,-0.120333 v -0.137526 h 0.120333 0.137526 V 33.731502 33.61117 l 0.137526,-0.137526 0.257846,-0.137526 h 0.137526 0.120332 0.137526 l 0.257844,-0.120333 0.137526,0.120333 h 0.137526 l 0.120332,-0.120333 0.137505,0.120333 h 0.137526 l 0.120333,-0.120333 0.395361,-0.137525 v 0.137525 l 0.137526,0.120333 h 0.137526 l 0.257844,-0.120333 h 0.137526 l 0.137526,-0.137525 0.120332,0.137525 0.137526,0.120333 h 0.137526 V 33.215785 33.07826 32.820416 32.68289 h 0.120333 v 0.137526 l 0.137526,0.120332 v 0.137526 h 0.137526 V 33.2158 l 0.120332,-0.275035 h 0.137526 v 0.137526 0.137526 l 0.257844,-0.137526 h 0.137526 l 0.137526,-0.137526 0.120332,-0.120333 v 0.120333 h 0.137526 0.137526 v -0.120333 h 0.120333 0.137526 l 0.137505,-0.137526 h 0.120332 l 0.137526,-0.137525 h 0.137526 0.137526 v 0.137525 h 0.120333 v 0.257844 l 0.137525,0.137526 h 0.137526 v 0.137526 l 0.120333,-0.137526 V 32.94075 h -0.120333 -0.137526 l 0.137526,-0.120332 h -0.137526 v -0.137526 -0.257846 h -0.137525 v -0.137505 l 0.137525,-0.137526 h 0.137526 l 0.120333,-0.257846 H 44.437328 V 31.754643 31.63431 h 0.120333 v -0.137525 l 0.137526,0.137525 0.137526,-0.137525 v -0.257844 -0.137526 h 0.120332 v -0.137526 h 0.137526 v -0.137526 l 0.137505,-0.120333 h -0.137505 v -0.137505 h 0.137505 l 0.120333,-0.257846 v -0.137526 h 0.137526 v -0.137526 l 0.137526,-0.120332 h -0.137526 l 0.137526,-0.137526 -0.137526,-0.137526 h -0.137526 v -0.120332 h 0.137526 V 29.382385 29.244859 H 45.348409 V 29.124526 28.987 h 0.137526 0.137526 v -0.137526 l 0.395361,-0.257846 0.120333,-0.137526 h -0.120333 l -0.275035,0.275036 -0.120333,-0.137526 H 45.485928 L 45.228082,28.454086 44.832721,28.196242 H 44.695195 44.299834 44.04199 l -0.137526,-0.137526 -0.395364,-0.257844 -0.395361,-0.275035 -0.395362,-0.257844 -0.790725,-0.653207 0.257846,-0.53288 0.257844,-0.257846 0.275035,-0.532879 1.048569,-0.92824 0.532879,-0.395362 0.653208,-0.395363 L 44.8327,23.314372 44.437339,22.91901 44.162304,22.781484 43.766942,22.643959 43.629416,22.523626 h -0.395361 l -0.51569,-0.275033 H 42.580839 L 42.322995,21.990747 41.927631,21.715714 41.53227,21.595381 41.136908,21.457855 40.861873,21.320329 h -0.532879 l -0.257844,-0.257843 0.257844,-0.395362 v -0.137526 -0.257846 l 0.137526,-0.137526 0.137526,-0.120332 0.137526,-0.137526 -0.137526,-0.257844 -0.137526,-0.137526 H 40.328994 L 40.07115,19.343472 H 39.933624 39.538263 L 39.41793,19.223139 h -0.137526 l -0.257844,0.120333 h -0.137525 l -0.137526,-0.120333 -0.257844,-0.137525 v -0.137526 l -0.137526,-0.395364 -0.120333,-0.395361 v -0.137526 -0.120333 l 0.120333,-0.137526 0.137526,-0.137526 0.653205,-0.51569 0.275035,-0.275035 0.51569,-0.790723 h 0.137526 0.395362 0.395361 v -0.137526 -0.120332 l 0.395362,-0.395364 h 0.137525 l 0.137526,-0.275033 0.257846,-0.257846 0.137526,-0.137526 0.120333,-0.257844 0.137526,-0.137526 0.257844,-0.120332 h 0.137526 0.137525 l 0.120333,-0.137526 v -0.257347 l 0.137526,-0.275033 0.137526,-0.257846 0.120332,-0.137526 -0.911051,0.275035 -0.928243,-0.137526 h -0.92824 l -0.395362,0.137526 h -0.138085 -0.120332 -0.137526 l -0.137505,-0.137526 -0.120333,0.137526 h -0.137526 -0.137526 -0.120332 l -0.137526,-0.275035 -0.137526,-0.137526 -0.653208,0.412553 v 0.120332 l -0.137526,0.137526 -0.257843,0.395362 v 0.395361 l -0.137526,0.137526 -0.257844,0.120333 -0.275035,0.137526 h -0.120333 v 0.137526 h -0.137505 v 0.120332 h -0.137526 -0.120333 -0.275033 -0.120332 l -0.137796,-0.120332 -0.257844,0.120332 h -0.275036 l -0.257843,0.275033 -0.653208,-0.532879 -0.275035,0.257846 -0.137526,0.275033 h -0.515686 l -0.532879,0.120333 v 0.137526 l -0.395361,0.137526 -0.137526,0.120332 -0.51569,0.412553 -2.114327,1.048569 0.257846,0.92824 -0.928243,0.257844 -0.257844,-0.532879 -0.395361,-0.51569 -1.58145,1.048569 -0.395345,-0.79075 L 25.940392,16.43885 24.61679,15.648127 24.358944,15.390281 24.1011,15.115248 23.963574,14.462041 22.777488,13.929162 22.244608,13.671316 21.591401,13.413472 v -0.137526 l 0.120333,-0.137526 v -0.137526 l 0.137525,-0.120333 V 12.743035 12.60551 L 21.711734,12.347666 21.591401,12.21014 V 11.952294 11.69445 L 21.453875,11.556924 V 11.419398 L 21.591401,11.299065 21.453875,11.16154 V 11.024014 10.76617 10.628644 10.508311 9.8379147 l 0.257846,-0.532879 V 9.0471918 8.3939843 8.2564584 L 21.849247,8.1189325 V 7.9985999 7.861074 L 21.986773,7.7235481 20.663169,7.2078582 19.734928,6.7953075 19.339565,6.674975 17.895634,6.3999398 Z M 37.02772,35.055244 36.907387,35.19277 h 0.120333 z m -0.120333,0.137526 -0.137505,0.137526 h 0.137505 z M 31.750492,48.531942 31.63016,48.394416 v 0.137526 z m -0.395363,4.4865 -0.137526,0.137526 h 0.137526 z m -7.786912,-4.366171 h -0.137526 v 0.137525 z m -1.186087,-2.767535 0.137526,-0.395362 h 0.120333 L 22.519656,45.351849 H 22.38213 v 0.137525 0.137526 0.120333 z M 18.015963,34.7974 V 34.659874 H 17.89563 Z m 2.389362,5.019379 0.257844,0.257844 h -0.137526 l -0.120333,-0.137526 -0.137526,0.137526 v 0.137526 l -0.137526,0.137526 v -0.137526 -0.137526 -0.137526 h 0.137526 z"
       id="path438" />
  </g>
</svg>
