<?xml version="1.0" encoding="UTF-8" standalone="no"?>
<!-- Created with Inkscape (http://www.inkscape.org/) -->

<svg
   xmlns:dc="http://purl.org/dc/elements/1.1/"
   xmlns:cc="http://creativecommons.org/ns#"
   xmlns:rdf="http://www.w3.org/1999/02/22-rdf-syntax-ns#"
   xmlns:svg="http://www.w3.org/2000/svg"
   xmlns="http://www.w3.org/2000/svg"
   xmlns:sodipodi="http://sodipodi.sourceforge.net/DTD/sodipodi-0.dtd"
   xmlns:inkscape="http://www.inkscape.org/namespaces/inkscape"
   width="50.423897mm"
   height="48.914589mm"
   viewBox="0 0 50.423898 48.914589"
   version="1.1"
   id="svg4551"
   inkscape:version="0.92.3 (2405546, 2018-03-11)"
   sodipodi:docname="de.svg">
  <defs
     id="defs4545">
    <clipPath
       id="SVG_CP_1">
      <path
         inkscape:connector-curvature="0"
         d="M 0,0 V 413.26299 H 439.51181 V 0 Z"
         id="path6" />
    </clipPath>
    <clipPath
       id="clipPath4541">
      <path
         inkscape:connector-curvature="0"
         d="M 0,0 V 413.26299 H 439.51181 V 0 Z"
         id="path4539" />
    </clipPath>
    <clipPath
       id="SVG_CP_1-3">
      <path
         inkscape:connector-curvature="0"
         d="M 0,0 V 413.26299 H 439.51181 V 0 Z"
         id="path6-6" />
    </clipPath>
    <clipPath
       id="SVG_CP_1-7">
      <path
         inkscape:connector-curvature="0"
         d="M 0,0 V 413.26299 H 439.51181 V 0 Z"
         id="path6-5" />
    </clipPath>
    <clipPath
       id="SVG_CP_1-35">
      <path
         inkscape:connector-curvature="0"
         d="M 0,0 V 413.26299 H 439.51181 V 0 Z"
         id="path6-62" />
    </clipPath>
    <clipPath
       id="SVG_CP_1-9">
      <path
         inkscape:connector-curvature="0"
         d="M 0,0 V 413.26299 H 439.51181 V 0 Z"
         id="path6-1" />
    </clipPath>
  </defs>
  <sodipodi:namedview
     id="base"
     pagecolor="#ffffff"
     bordercolor="#666666"
     borderopacity="1.0"
     inkscape:pageopacity="0.0"
     inkscape:pageshadow="2"
     inkscape:zoom="0.98994949"
     inkscape:cx="-86.655402"
     inkscape:cy="-113.36944"
     inkscape:document-units="mm"
     inkscape:current-layer="layer1"
     showgrid="false"
     fit-margin-top="0"
     fit-margin-left="0"
     fit-margin-right="0"
     fit-margin-bottom="0"
     inkscape:window-width="1920"
     inkscape:window-height="1025"
     inkscape:window-x="1920"
     inkscape:window-y="27"
     inkscape:window-maximized="1" />
  <metadata
     id="metadata4548">
    <rdf:RDF>
      <cc:Work
         rdf:about="">
        <dc:format>image/svg+xml</dc:format>
        <dc:type
           rdf:resource="http://purl.org/dc/dcmitype/StillImage" />
        <dc:title></dc:title>
      </cc:Work>
    </rdf:RDF>
  </metadata>
  <g
     inkscape:label="Capa 1"
     inkscape:groupmode="layer"
     id="layer1"
     transform="translate(-2.2913791,-5.6818699)">
    <path
       transform="matrix(1.9748927,0,0,1.9748927,-220.7071,-207.69989)"
       inkscape:connector-curvature="0"
       clip-path="url(#SVG_CP_1-9)"
       stroke-miterlimit="10"
       d="m 130.57397,109.21892 0.48005,0.72012 1.20013,1.92033 0.72007,0.96017 1.68018,1.44025 0.48005,0.72013 0.24003,0.48008 0.24003,0.96016 0.48005,1.92034 0.48005,0.72012 0.48005,0.48009 -0.48005,0.72012 -0.72008,1.44025 -0.72008,0.96017 -0.72007,1.44025 -0.48005,1.2002 -0.48006,1.20021 v 0.24004 l -0.72007,1.68029 -0.48005,0.48009 -0.24003,0.48008 v 0.72012 l -0.24003,0.24005 -0.24002,0.24004 -0.24003,0.72012 v 0.48009 l -0.48005,-0.48009 h -0.24002 l -0.24003,-0.24004 v -0.24004 h -0.24003 l 0.48006,-1.20021 -0.96011,-0.72012 -0.24002,-1.20021 v -0.24004 l -0.72008,-0.96017 -0.72008,-0.48008 -0.48005,0.48008 h -1.20013 -2.40025 -0.72008 l -0.24003,0.48008 -0.24002,0.24005 -0.9601,0.96016 h -0.24003 l -0.24002,0.48009 -0.24003,0.24004 v 0.24004 h -0.24003 l -0.24002,0.24004 -0.72008,0.72012 h -0.24002 l -0.72008,0.72013 -0.24003,0.24004 h -0.48005 -0.24002 l -0.24003,-0.24004 v -0.48008 l -0.24003,-0.24005 v -0.48008 l -0.24002,-0.24004 -0.24003,-0.72012 v -0.24005 l -0.48005,-1.44025 -0.24002,-1.68029 -0.48006,-0.24004 v -0.24004 l -0.24002,-0.24004 -0.24003,-0.24004 -0.24002,-0.24004 -0.48005,-0.24005 0.24002,-0.48008 h 0.24003 l 0.48005,-0.24004 0.24002,-0.24004 h 0.24003 v -0.48009 h 0.24003 v -0.24004 l 0.72007,-0.24004 v -0.24004 l 0.24003,-0.24004 V 121.221 l 0.24002,-0.24005 -0.24002,-0.24004 v -0.24004 l 0.24002,-0.24004 v -0.24004 -0.24004 l -0.24002,-0.24004 v -0.48009 l -0.24003,-0.24004 v -0.24004 h -0.24002 l -0.24003,-0.24004 v -0.24004 -0.24005 h -0.24002 l -0.48006,0.24005 h -0.24002 l 0.24002,-0.24005 h 0.24003 v -0.24004 h 0.24003 l 0.24002,-0.24004 0.24003,-0.24004 0.24002,0.24004 v 0.24004 h 0.24003 0.24002 l -0.24002,0.24004 0.24002,0.48009 0.24003,0.24004 v 0.24004 l 0.24003,0.24004 v 0.24004 h 0.24002 l 0.24003,-0.24004 0.24002,-0.24004 h 0.24003 v -0.24004 -0.24004 l 0.24002,-0.24004 0.24003,-0.24005 v -0.24004 -0.24004 -0.24004 h 0.24003 v -0.24004 -0.24004 h 0.24002 v -0.24005 l 0.24003,-0.48008 v -0.24004 l 0.24002,-0.24004 v -0.24004 -0.24004 -0.24005 -0.24004 -0.24004 l 0.24003,-0.24004 0.24002,-0.24004 0.24003,-0.24004 0.24003,-0.24005 v -0.24004 h 0.24002 l 0.24003,0.24004 v 0.24005 h 0.24002 l 0.24003,0.24004 0.24002,0.24004 h 0.24003 v 0.24004 0.24004 0.24004 h 0.24002 v 0.24005 0.24004 h 0.48006 V 115.46 l 0.24002,-0.24004 -0.24002,-0.24004 v -0.24005 h 0.24002 v -0.24004 -0.24004 h 0.24003 v 0.24004 0.24004 h 0.24002 v -0.24004 h 0.24003 0.24002 0.24003 v -0.24004 -0.24004 l 0.24003,-0.24004 v -0.24004 h 0.24002 l 0.24003,-0.24005 v 0.24005 h 0.24002 v -0.24005 -0.24004 h 0.24003 0.24002 l 0.48006,-0.72012 h 0.24002 v -0.24004 l 0.24003,-0.24005 0.24002,-0.24004 h 0.24003 0.24002 v -0.24004 -0.24004 l 0.24003,-0.24004 h 0.24003 v -0.24004 h -0.24003 0.24003 0.24002 l 0.24003,-0.24004 h 0.24002 0.24003 0.24002 0.24003 v -0.24005 -0.24004 h 0.24002 V 109.699 l 0.24003,-0.24004 v -0.24004 h 0.24003"
       id="path332"
       style="fill:#000000;fill-opacity:1" />
    <path
       style="fill:#000000;fill-opacity:1;stroke-width:1.01015258"
       d="m 133.16539,172.09818 c -2.38843,-0.63015 -2.7316,-3.21587 -1.02076,-7.69132 0.80525,-2.10649 1.29355,-3.96035 1.08511,-4.1197 -0.20845,-0.15935 -2.04426,-1.52813 -4.07959,-3.04172 -3.16589,-2.35435 -3.8025,-3.5106 -4.4059,-8.00213 -0.7842,-5.83734 -5.52906,-12.73902 -10.53915,-15.32984 -2.58002,-1.33418 -2.98432,-1.28862 -4.62178,0.52074 -1.6437,1.81628 -3.18135,1.98283 -18.30539,1.98283 -10.78606,0 -16.510955,0.36526 -16.510955,1.05343 0,1.57047 -9.161857,11.0684 -10.676761,11.0684 -0.719909,0 -1.584432,0.86805 -1.921162,1.92899 -0.66525,2.09602 -10.928228,12.48342 -12.936316,13.09316 -0.679142,0.20622 -2.889034,1.95388 -4.910871,3.88371 -3.966679,3.78616 -7.204006,4.1131 -7.72862,0.78052 -0.300353,-1.90798 -1.524112,-5.15795 -3.255394,-8.64542 -0.433021,-0.87228 -1.515673,-4.28154 -2.405894,-7.57614 -0.890221,-3.29461 -2.301171,-8.47575 -3.135444,-11.51364 -0.834273,-3.03789 -1.51686,-6.7734 -1.51686,-8.30112 0,-2.0218 -1.645477,-4.4856 -6.046701,-9.05381 -3.325685,-3.45187 -5.939455,-6.34035 -5.808377,-6.41885 0.131078,-0.0785 2.345386,-1.34866 4.920685,-2.82257 2.885601,-1.65151 4.91726,-3.61575 5.294507,-5.11882 0.372298,-1.48335 1.600265,-2.68699 3.134037,-3.07194 4.114898,-1.03277 6.50869,-7.008386 6.139375,-15.325695 -0.321334,-7.236699 -2.684242,-13.559203 -5.067478,-13.559203 -1.484685,0 -2.703029,-5.857025 -1.387472,-6.670083 0.462951,-0.28612 0.841729,0.188463 0.841729,1.054627 0,0.866165 0.356472,1.574845 0.79216,1.574845 0.435688,0 2.140321,2.719934 3.788072,6.044297 3.140498,6.336 5.870831,7.792615 8.551751,4.562305 0.69164,-0.833376 1.883721,-1.515229 2.64907,-1.515229 0.791764,0 1.39154,-1.035168 1.39154,-2.401693 0,-1.320932 0.681853,-2.967582 1.515229,-3.659222 0.833376,-0.69164 1.515229,-2.020381 1.515229,-2.952757 0,-2.159188 2.285547,-7.130511 3.282996,-7.140887 0.416688,-0.0043 0.757614,-0.711693 0.757614,-1.571907 0,-0.860214 0.909137,-3.445723 2.020305,-5.745576 1.111168,-2.299851 2.020305,-5.745706 2.020305,-7.657454 0,-2.538945 0.932374,-4.507931 3.458895,-7.304487 2.499922,-2.767115 3.611384,-3.431201 4.008906,-2.395275 0.302508,0.788321 1.13249,1.448432 1.844407,1.466916 2.107684,0.05472 5.838982,3.677839 5.853874,5.684152 0.02818,3.796984 1.269954,6.404072 3.0503,6.404072 1.00007,0 2.009553,0.56821 2.243293,1.26269 0.331321,0.984404 0.795133,0.957144 2.104485,-0.123688 0.923725,-0.762508 1.683048,-1.898929 1.687383,-2.525381 0.0092,-1.332045 4.633036,-3.664384 7.264575,-3.664384 1.224565,0 1.818916,-0.759181 1.818916,-2.323351 0,-2.960406 1.787312,-4.747717 4.747717,-4.747717 1.649916,0 2.323351,-0.585596 2.323351,-2.020305 0,-1.177874 0.673435,-2.020305 1.615022,-2.020305 1.609657,0 5.971037,-4.167548 8.083317,-7.724067 0.61162,-1.02981 2.31625,-2.016218 3.78807,-2.192017 2.08222,-0.248709 2.67603,-0.870675 2.67603,-2.802922 0,-1.692594 0.77285,-2.777124 2.42726,-3.406128 1.33498,-0.507562 2.72552,-1.405448 3.09007,-1.995303 0.36455,-0.589854 2.45427,-1.072462 4.64382,-1.072462 2.18954,0 3.98268,-0.340926 3.98477,-0.757614 0.002,-0.416688 0.95388,-2.316114 2.11512,-4.220948 l 2.11135,-3.463333 5.37154,8.514096 c 8.5004,13.473467 11.50609,17.264044 17.96497,22.656232 8.36626,6.984573 10.56848,10.770714 13.88176,23.866094 1.99033,7.866597 3.8445,12.736588 6.02945,15.836398 l 3.15524,4.476381 -3.75417,7.204987 c -2.06481,3.962743 -4.98837,8.795981 -6.49682,10.740521 -1.50844,1.94454 -3.9273,5.88493 -5.37523,8.75643 -2.88658,5.72452 -10.76333,25.11285 -10.76333,26.49352 0,1.57262 -5.06283,11.6631 -7.60365,15.15452 -1.37384,1.88781 -2.49788,4.77689 -2.49788,6.42018 0,1.71321 -1.07731,4.2681 -2.52538,5.98903 -1.38896,1.65068 -2.52538,3.64822 -2.52538,4.43897 0,1.47179 -0.26389,1.53351 -3.22089,0.75337 z"
       id="path4746"
       inkscape:connector-curvature="0"
       transform="matrix(0.26458333,0,0,0.26458333,2.2913791,5.6818699)" />
  </g>
</svg>
