<?xml version="1.0" encoding="UTF-8" standalone="no"?>
<!-- Created with Inkscape (http://www.inkscape.org/) -->

<svg
   xmlns:dc="http://purl.org/dc/elements/1.1/"
   xmlns:cc="http://creativecommons.org/ns#"
   xmlns:rdf="http://www.w3.org/1999/02/22-rdf-syntax-ns#"
   xmlns:svg="http://www.w3.org/2000/svg"
   xmlns="http://www.w3.org/2000/svg"
   xmlns:sodipodi="http://sodipodi.sourceforge.net/DTD/sodipodi-0.dtd"
   xmlns:inkscape="http://www.inkscape.org/namespaces/inkscape"
   width="50.423897mm"
   height="48.914589mm"
   viewBox="0 0 50.423898 48.914589"
   version="1.1"
   id="svg4551"
   inkscape:version="0.92.3 (2405546, 2018-03-11)"
   sodipodi:docname="esc.svg">
  <defs
     id="defs4545">
    <clipPath
       id="SVG_CP_1">
      <path
         inkscape:connector-curvature="0"
         d="M 0,0 V 413.26299 H 439.51181 V 0 Z"
         id="path6" />
    </clipPath>
    <clipPath
       id="clipPath4541">
      <path
         inkscape:connector-curvature="0"
         d="M 0,0 V 413.26299 H 439.51181 V 0 Z"
         id="path4539" />
    </clipPath>
    <clipPath
       id="SVG_CP_1-3">
      <path
         inkscape:connector-curvature="0"
         d="M 0,0 V 413.26299 H 439.51181 V 0 Z"
         id="path6-6" />
    </clipPath>
    <clipPath
       id="SVG_CP_1-7">
      <path
         inkscape:connector-curvature="0"
         d="M 0,0 V 413.26299 H 439.51181 V 0 Z"
         id="path6-5" />
    </clipPath>
    <clipPath
       id="SVG_CP_1-35">
      <path
         inkscape:connector-curvature="0"
         d="M 0,0 V 413.26299 H 439.51181 V 0 Z"
         id="path6-62" />
    </clipPath>
    <clipPath
       id="SVG_CP_1-9">
      <path
         inkscape:connector-curvature="0"
         d="M 0,0 V 413.26299 H 439.51181 V 0 Z"
         id="path6-1" />
    </clipPath>
    <clipPath
       id="SVG_CP_1-2">
      <path
         inkscape:connector-curvature="0"
         d="M 0,0 V 413.26299 H 439.51181 V 0 Z"
         id="path6-7" />
    </clipPath>
    <clipPath
       id="SVG_CP_1-0">
      <path
         inkscape:connector-curvature="0"
         d="M 0,0 V 413.26299 H 439.51181 V 0 Z"
         id="path6-9" />
    </clipPath>
    <clipPath
       id="SVG_CP_1-36">
      <path
         inkscape:connector-curvature="0"
         d="M 0,0 V 413.26299 H 439.51181 V 0 Z"
         id="path6-0" />
    </clipPath>
  </defs>
  <sodipodi:namedview
     id="base"
     pagecolor="#ffffff"
     bordercolor="#666666"
     borderopacity="1.0"
     inkscape:pageopacity="0.0"
     inkscape:pageshadow="2"
     inkscape:zoom="0.98994949"
     inkscape:cx="-86.655402"
     inkscape:cy="-113.36944"
     inkscape:document-units="mm"
     inkscape:current-layer="layer1"
     showgrid="false"
     fit-margin-top="0"
     fit-margin-left="0"
     fit-margin-right="0"
     fit-margin-bottom="0"
     inkscape:window-width="1920"
     inkscape:window-height="1025"
     inkscape:window-x="1920"
     inkscape:window-y="27"
     inkscape:window-maximized="1" />
  <metadata
     id="metadata4548">
    <rdf:RDF>
      <cc:Work
         rdf:about="">
        <dc:format>image/svg+xml</dc:format>
        <dc:type
           rdf:resource="http://purl.org/dc/dcmitype/StillImage" />
        <dc:title></dc:title>
      </cc:Work>
    </rdf:RDF>
  </metadata>
  <g
     inkscape:label="Capa 1"
     inkscape:groupmode="layer"
     id="layer1"
     transform="translate(-2.2913791,-5.6818699)">
    <path
       transform="matrix(0.55117854,0,0,0.60349629,-79.142494,-18.327007)"
       inkscape:connector-curvature="0"
       clip-path="url(#SVG_CP_1-36)"
       stroke-miterlimit="10"
       d="m 222.26377,42.7274 -1.44015,1.20021 0.24003,2.40041 0.24002,0.96017 0.48005,0.24004 0.48005,1.44025 v 0.72013 l 0.24003,2.40041 1.20013,1.44025 0.9601,1.20021 1.68018,0.48008 v 1.92034 l 1.20013,0.96016 v 1.20021 l 0.72008,1.44025 0.24002,1.68029 v 1.92033 l -0.48005,0.96017 0.72008,1.44025 v 1.44025 l 0.72007,2.16037 0.48006,1.68029 0.72007,0.96017 0.48005,0.48008 0.24003,0.24004 0.24002,0.24005 v 0.24004 l 0.24003,0.48008 2.88031,4.08071 -0.72008,1.20021 -1.20013,0.72012 -1.44015,-0.48008 -1.92021,0.96016 -1.44015,0.24004 -0.24003,0.72013 -0.72007,0.48008 -0.72008,0.48009 -0.72008,0.48008 -0.72007,-0.96017 H 224.424 l -1.68018,-0.24004 -1.20012,0.24004 h -1.20013 l -3.12034,0.72013 -0.24002,0.48008 -0.72008,0.24004 -1.44015,1.20021 v 0.24004 l -0.48005,0.48008 -0.48006,0.72013 -1.68017,1.20021 -0.24003,0.48008 -0.9601,0.48008 h -0.48005 l -0.48006,0.72013 -0.72007,0.72012 h -0.96011 l -1.20012,1.92034 -0.96011,0.24004 -0.48005,0.48008 -0.48005,0.24004 -0.24002,0.72013 v 0.72012 l -0.24003,0.48008 -0.48005,0.24005 -1.20013,1.2002 -0.9601,0.72013 -0.24003,0.48008 h -0.24002 l -0.72008,0.96017 -0.24003,0.24004 -0.9601,0.72012 -0.24003,0.72013 -0.9601,0.48008 -0.72008,0.24004 -0.48005,-0.24004 -0.72007,0.48009 -0.24003,0.48008 -0.24002,0.72012 -0.96011,1.68029 -1.20013,0.72013 -0.48005,0.24004 -0.24002,0.24004 -0.48005,0.24004 -0.24003,0.24005 -0.24003,0.48008 -0.24002,0.24004 -0.48005,0.72013 h -0.24003 -0.24002 l -0.48006,0.24004 h -0.24002 l -0.9601,0.48008 h -0.24003 l -0.24003,0.96017 -1.44015,0.24004 -0.72008,0.24004 h -0.24002 -0.48005 l -0.24003,-0.24004 h -0.24002 v -0.24004 h -0.24003 v -0.24005 -0.24004 -0.24004 l -0.48005,-0.72012 v -0.24004 l -0.48005,-0.24005 h -0.24003 -0.24002 v -0.24004 -0.24004 l -0.24003,-0.24004 h -0.24003 v -0.24004 -0.24004 h -0.24002 v -0.24005 l -0.24003,-0.24004 -0.48005,-0.24004 -0.48005,-0.48008 -0.24003,-0.24004 h -0.24002 l -0.24003,-0.24005 -0.24002,-0.24004 -0.24003,0.24004 V 103.938 h -0.24002 v -0.24004 h -0.72008 -0.48005 -0.24003 l -0.72007,0.24004 H 177.619 l -0.9601,0.24004 -1.44016,0.96017 -0.72008,0.24004 -0.9601,1.20021 -0.48005,0.72013 -0.72008,0.72012 -0.72007,0.72012 0.72007,0.72013 0.24003,0.24004 v 0.24004 0.48009 l 0.24002,0.48008 v 0.24004 l -0.24002,0.72012 v 0.24005 l -0.24003,0.24004 -0.72007,0.48008 -0.72008,0.24004 v 0.48009 l -0.24003,0.24004 -0.24002,0.48008 -0.48005,0.72013 -0.24003,0.24004 -0.24002,0.24004 -0.72008,0.96016 h -0.72008 l -0.72008,0.48009 h -0.9601 l -0.24002,0.24004 -1.44016,1.44025 -0.72008,-0.48008 -0.9601,-0.24005 -0.48005,0.48009 -0.48005,0.72012 -0.24003,-0.24004 -1.20012,-0.72012 h -0.24003 v -0.24005 l 0.24003,-0.48008 1.20012,-0.96017 V 115.46 l 0.48006,-1.44025 -0.24003,-0.96017 1.20013,0.24004 0.72007,-0.24004 v -0.24004 l 0.24003,-0.24004 0.24003,-0.48008 0.9601,-0.72013 0.48005,0.24004 0.48005,-0.72012 0.24003,-1.68029 -0.48005,-0.72013 -1.20013,-0.24004 -0.72008,-1.20021 0.48005,-0.24004 0.72008,-0.48008 0.72008,-0.24004 h 0.24002 v -0.24004 -0.48009 -0.24004 l 0.48005,-0.24004 0.96011,-0.72013 0.72007,-0.72012 0.48005,-0.72012 0.48006,-0.48009 0.24002,-0.48008 0.48005,-0.96017 0.24003,-0.24004 0.24002,-0.48008 0.24003,-0.48009 0.24003,-0.72012 0.24002,-0.48008 0.48005,-0.72013 0.48005,-0.48008 0.48005,-0.48008 0.48006,-0.24005 v -0.24004 l 0.24002,-0.24004 v -0.24004 -0.48008 -0.24005 l 0.24003,-0.48008 h 0.24002 l 0.48005,-0.72012 v -0.24004 l -1.44015,-0.72013 h -0.24003 -0.24002 -0.48005 -0.24003 -0.24002 v -0.24004 h -0.48005 -0.24003 l -0.24003,-0.24004 v -0.24004 -0.24005 l -0.24002,-0.24004 v -0.96016 l -0.9601,-0.24005 -0.96011,-0.96016 0.48005,-1.20021 v -0.48008 l -1.68018,-1.68029 -1.9202,-1.44025 v -0.96017 -0.72012 h -0.9601 l -1.20013,0.48008 -0.72008,0.24004 -0.9601,0.24004 h -0.24003 l -0.48005,0.48009 -0.72008,-0.24005 h -0.72007 l -0.96011,-0.72012 h -0.48005 l -0.48005,-0.24004 h -0.72008 l -0.48005,-0.48009 -1.44015,-0.48008 v -0.48008 h 0.24002 l 0.24003,-0.24004 h -0.24003 v -0.24005 h 0.48006 l 0.24002,-0.24004 h 0.24003 v -0.24004 0.24004 h 0.24002 l 0.24003,-0.48008 h 0.24002 v -0.24004 -0.24004 h 0.24003 v -0.24004 l 0.24003,-0.24005 0.24002,-0.24004 0.24003,-0.24004 v -0.24004 h 0.24002 0.24003 0.24002 0.24003 l 0.48005,0.24004 v -0.24004 l 0.24003,-0.24004 v 0.24004 l 0.24002,0.24004 v 0.24004 0.24004 0.24005 l -0.24002,0.24004 h 0.24002 v 0.24004 0.24004 h 0.24003 v 0.24004 l 0.24002,0.24004 h 0.24003 l 0.24003,-0.24004 h 0.24002 l 0.24003,0.24004 v -0.24004 h 0.24002 l 0.24003,-0.24004 h 0.24002 v -0.24004 l 0.24003,0.24004 h 0.24003 l 0.24002,-0.24004 0.48005,-0.24004 0.24003,-0.24004 v -0.48009 h 0.24002 v -0.24004 h 0.24003 0.48005 0.24003 v -0.24004 l 0.24002,-0.24004 h 0.24003 l 0.24002,-0.24004 h 0.24003 l 0.24002,-0.24005 -0.24002,-0.24004 h 0.24002 v -0.24004 0.24004 l 0.24003,-0.24004 v -0.24004 h 0.24003 v -0.24004 h 0.24002 0.24003 V 77.05335 76.8133 76.57326 l 0.24002,-0.24004 h -0.24002 v -0.24004 h -0.24003 v -0.24004 h 0.24003 V 75.6131 75.37306 h -0.24003 v -0.24005 -0.24004 -0.24004 l -0.24002,-0.24004 v -0.24004 -0.24004 l 0.24002,-0.24005 h 0.24003 l 0.24002,-0.24004 h 0.24003 v 0.24004 h 0.24002 v 0.24005 l 0.24003,0.24004 v 0.24004 h 0.24003 0.24002 l 0.24003,0.24004 h 0.24002 0.24003 0.48005 v -0.24004 0.24004 h 0.24003 0.24002 v 0.24004 h 0.24003 l 0.24002,-0.24004 v -0.24004 l -0.24002,-0.24004 -0.24003,-0.24004 v -0.24005 h -0.24002 V 73.45272 H 169.2181 V 72.97264 72.7326 72.49256 72.25251 72.01247 71.77243 l 0.24003,-0.24004 v -0.48008 -0.48009 h 0.24002 v -0.24004 h -0.24002 -0.24003 V 70.09214 69.8521 h -0.24003 v -0.24004 -0.24004 l 0.48006,-0.72013 v -0.24004 l 0.24002,-0.24004 0.24003,-0.48009 h 0.24002 l 0.24003,-0.48008 h 0.24002 l 0.24003,-0.24004 h 0.24003 0.24002 0.24003 0.24002 0.24003 v 0.24004 l 0.24002,0.24004 0.24003,0.24004 0.24002,-0.24004 v 0.24004 h 0.24003 v 0.24005 l 0.24003,0.24004 v 0.24004 h 0.24002 l 0.24003,-0.24004 h 0.24002 0.24003 v -0.24004 -0.24005 l 0.24002,-0.24004 V 67.21164 66.9716 66.73156 h 0.24003 v -0.24004 h 0.24003 0.24002 0.24003 0.24002 v 0.24004 h 0.24003 v 0.24004 h 0.24002 l 0.24003,0.24004 h 0.24003 0.24002 0.24003 0.24002 v 0.24004 h 0.24003 v 0.24004 h 0.48005 v 0.24005 0.24004 0.24004 0.24004 l 0.24003,0.24004 h 0.24002 v -0.24004 l 0.24003,-0.24004 h 0.24002 v -0.24004 -0.24004 h 0.24003 l 0.24002,0.24004 h 0.24003 0.24003 0.24002 V 67.93177 67.69172 67.45168 66.9716 l -0.24002,0.24004 V 66.9716 l -0.24003,-0.24004 -0.24003,0.24004 v -0.24004 h 0.24003 v -0.24004 -0.24004 h 0.24003 v -0.24005 l -0.24003,0.24005 -0.24003,-0.24005 h -0.24002 v -0.24004 h -0.24003 l -0.24002,-0.24004 v -0.24004 -0.24004 -0.24004 -0.24005 l 0.24002,-0.24004 V 64.0911 l 0.24003,-0.24004 0.24002,-0.24004 0.24003,-0.24004 h 0.24003 l 0.24002,0.24004 h 0.24003 0.24002 l 0.24003,-0.24004 0.48005,0.24004 0.24002,0.24004 v 0.24004 0.24004 0.24004 h -0.24002 v 0.24005 0.24004 h 0.48005 0.24003 0.24002 0.72008 l 0.48005,0.24004 v -0.24004 0.24004 0.24004 h 0.24003 v 0.24004 l 0.24002,-0.24004 h 0.24003 l 0.24002,-0.24004 h 0.24003 l 0.24002,-0.24004 0.24003,-0.24004 h 0.24003 0.24002 l 0.24003,0.24004 h 0.24002 0.24003 v 0.24004 -0.24004 -0.48009 -0.24004 -0.24004 h 0.24002 V 63.85106 63.61102 H 186.98 l 0.24003,0.24004 V 64.0911 L 186.98,64.33114 v 0.24004 h 0.24003 v 0.24005 0.24004 H 186.98 l 0.24003,0.24004 0.24002,0.24004 v -0.24004 h 0.24003 0.24002 0.24003 V 65.05127 64.81123 64.57118 64.33114 64.0911 63.85106 h 0.24002 l 0.24003,-0.24004 0.24002,-0.24004 h 0.48006 v -0.24005 h 0.24002 l 0.24003,0.24005 0.24002,-0.24005 0.24003,-0.24004 v -0.24004 l 0.24002,-0.24004 0.24003,0.24004 h 0.24003 v -0.24004 -0.24004 -0.24004 l 0.24002,-0.24004 h 0.24003 v -0.24005 l 0.24002,-0.24004 0.24003,-0.24004 0.24002,0.24004 h 0.24003 v 0.24004 l 0.24003,0.48009 h 0.24002 v 0.24004 l 0.24003,0.24004 v 0.24004 l 0.24002,0.24004 v 0.24004 l 0.24003,-0.24004 h 0.24002 l 0.48006,-0.24004 0.24002,-0.72012 v -0.24004 h 0.24003 v -0.24005 l 0.24002,-0.24004 v -0.24004 -0.24004 l 0.24003,-0.24004 v -0.24004 l -0.24003,-0.24005 0.24003,-0.24004 v -0.24004 h 0.24002 0.24003 l 0.48005,-0.24004 h 0.24003 l 0.24002,-0.48008 v -0.24005 l 0.24003,-0.48008 v -0.24004 h -0.24003 V 57.60998 57.36994 57.1299 56.88985 l 0.24003,-0.24004 v -0.24004 h 0.24002 v -0.24004 h 0.24003 v 0.24004 h 0.24002 l 0.24003,-0.24004 v 0.24004 l 0.48005,-0.48008 h 0.24003 l 0.48005,-0.24004 h 0.24002 l 0.48006,0.24004 h 0.24002 l 0.24003,-0.24004 0.24002,-0.24005 h 0.24003 0.24002 0.24003 l 0.48005,0.24005 V 55.4496 l 0.24003,-0.24004 h 0.24002 v 0.24004 l 0.24003,-0.24004 h 0.24002 0.24003 0.24003 l 0.24002,-0.24004 h -0.24002 0.24002 v -0.24004 l 0.24003,-0.24004 h 0.24002 0.24003 0.24002 l 0.24003,-0.24004 h 0.24003 v -0.24005 h 0.24002 v -0.24004 -0.24004 -0.24004 l 0.24003,-0.24004 0.24002,0.24004 v -0.24004 l 0.24003,-0.48008 v -0.24005 h 0.24002 v -0.24004 l 0.24003,-0.24004 0.24002,-0.24004 0.24003,-0.24004 h 0.24003 0.24002 v -0.24004 h 0.24003 -0.24003 l 0.24003,-0.24005 0.24002,-0.24004 v 0.24004 l 0.24003,-0.24004 h 0.24002 v -0.24004 l 0.24003,-0.24004 0.24003,-0.24004 h 0.24002 v -0.24004 -0.24005 h 0.24003 l 0.24002,-0.24004 v -0.24004 l -0.24002,-0.24004 V 48.4884 48.24836 h 0.24002 v -0.48009 h 0.24003 v -0.24004 h 0.24002 0.24003 v 0.24004 -0.24004 h 0.24003 0.24002 v -0.24004 h 0.24003 l 0.24002,-0.24004 v -0.48008 l 0.24003,-0.24005 0.24002,-0.24004 v -0.24004 h 0.24003 0.24003 0.24002 V 45.6079 h 0.24003 0.24002 v 0.24004 -0.24004 l 0.24003,-0.24004 h 0.24002 v -0.24004 l 0.24003,-0.24005 0.48005,-0.24004 0.24003,-0.24004 h 0.24002 0.48005 0.24003 0.24002 v 0.24004 h 0.24003 0.24003 v 0.48009 0.24004 h 0.24002 0.24003 0.48005 v -0.24004 h 0.24002 l 0.24003,-0.24005 0.24003,-0.24004 h 0.24002 l 0.24003,0.24004 0.24002,-0.24004 v -0.24004 h 0.24003 v -0.24004 h 0.24002 v 0.24004 0.24004 h 0.24003 v -0.24004 l 0.24003,0.24004 v -0.24004 l 0.24002,0.24004 0.24003,-0.24004 0.24002,-0.24004 h -0.24002 v -0.24004 -0.24004 -0.24004 -0.24005 h 0.24002 V 42.96744 42.7274 42.48736 42.24732 l 0.24003,-0.24004 h 0.24002 0.24003 0.24003 v 0.24004 l 0.24002,0.24004 0.24003,0.24004 v -0.24004 h 0.24002 v 0.24004 l 0.24003,-0.24004 v 0.24004 h 0.24002"
       id="path348"
       style="fill:#000000;fill-opacity:1" />
  </g>
</svg>
